<svg width="50" height="19" fill="none" xmlns="http://www.w3.org/2000/svg"><g clip-path="url(#clip0_200_42151)" fill="#fff"><path d="M7.471 14.82h-.93c.191.26.335.555.423.87.019.065.03.13.045.196.052-.257.139-.505.257-.736.06-.116.129-.226.205-.33zM9.493 19a2.35 2.35 0 01-.405-.042 2.49 2.49 0 01-.323-.081.146.146 0 01-.032-.018c-.1-.037-.196-.08-.29-.13l-.034-.018-.017-.008a2.427 2.427 0 01-.278-.184.62.62 0 01-.054-.044 2.115 2.115 0 01-.255-.233l-.016-.02a2.519 2.519 0 01-.209-.267l-.018-.03-.019-.021a2.588 2.588 0 01-.186-.343l-.015-.032a2.569 2.569 0 01-.194-.665c-.005-.034-.007-.065-.01-.095 0-.016 0-.032-.003-.047v-.029a.812.812 0 01-.016-.14v-.311c0-.048.011-.098.018-.142.065-.473.254-.916.544-1.28h3.653a2.574 2.574 0 01.524 1.151c.011.06.018.122.025.183 0 .018 0 .027.004.036.004.009 0 .02 0 .027.005.064.008.12.008.172v.073c0 .051 0 .107-.006.163v.081l-.02.146-.006.036c0 .02-.005.038-.009.057-.01.047-.019.095-.03.14-.004.023-.01.044-.016.065l-.007.027a1.784 1.784 0 01-.041.132c-.016.044-.021.063-.033.094-.013.03-.021.055-.033.082l-.017.04c-.015.032-.03.063-.044.096a1.984 1.984 0 01-.081.156l-.005.008a1.327 1.327 0 01-.025.042l-.024.035-.04.064-.046.066-.02.027a5.037 5.037 0 01-.071.093l-.007.008a2.051 2.051 0 01-.07.082l-.01.012-.009.01-.057.061a.911.911 0 01-.089.082c-.03.023-.052.05-.077.073a.89.89 0 01-.067.058l-.007.006-.03.023-.008.006a.846.846 0 01-.077.055c-.027.017-.048.033-.077.048l-.036.026a.541.541 0 00-.041.025l-.006.002-.033.02c-.029.017-.06.031-.09.046l-.05.024-.026.013-.046.022a2.374 2.374 0 01-.525.151l-.042.006-.041.007c-.087.01-.168.015-.246.017h-.027L9.493 19zm.022-3.874c-.248 0-.49.078-.695.225a1.316 1.316 0 00-.46.597 1.41 1.41 0 00-.072.77c.049.258.168.495.343.68.175.187.398.313.641.364.243.052.495.025.723-.076a1.26 1.26 0 00.56-.491 1.392 1.392 0 00-.157-1.68 1.216 1.216 0 00-.883-.389zm2.024-.306c.02.032.043.061.064.092l-.034-.091h-.03zM4.51 17.088c.328 0 .593-.282.593-.63 0-.348-.265-.63-.593-.63-.327 0-.592.282-.592.63 0 .348.265.63.592.63z"/><path d="M9.514 17.088c.327 0 .592-.282.592-.63 0-.348-.265-.63-.592-.63-.327 0-.592.282-.592.63 0 .348.265.63.592.63zM4.497 19a2.396 2.396 0 01-.753-.133l-.012-.006a2.118 2.118 0 01-.287-.128l-.025-.013-.024-.018a2.23 2.23 0 01-.333-.228 2.266 2.266 0 01-.255-.233l-.016-.02a2.474 2.474 0 01-.206-.266l-.02-.03-.02-.021a2.588 2.588 0 01-.19-.356l-.009-.02a2.59 2.59 0 01-.13-.357 2.675 2.675 0 01-.07-.354c0-.022-.005-.042-.007-.063v-.031a2.806 2.806 0 01-.015-.268v-.082a2.66 2.66 0 01.03-.327v-.012c.02-.121.049-.24.084-.357l.123-.327a2.6 2.6 0 01.323-.53h3.653a2.572 2.572 0 01.547 1.343c0 .024.006.039.008.055.006.058.007.116.009.172v.072c0 .051 0 .105-.006.16 0 .027 0 .054-.006.081-.004.047-.011.092-.018.139v.01a2.668 2.668 0 01-.066.32c-.012.045-.027.09-.042.133a.813.813 0 01-.033.094l-.026.068-.006.014-.016.041a1.92 1.92 0 00-.043.096c-.013.032-.04.077-.06.112l-.017.032-.035.063-.024.037-.04.064-.041.059-.006.007-.019.027a5.037 5.037 0 01-.071.093l-.007.008-.008.01c-.02.023-.04.048-.062.071l-.021.024c-.018.02-.035.04-.055.06-.019.018-.059.06-.089.081-.03.023-.052.05-.077.073-.024.024-.045.038-.069.056l-.031.024-.023.018-.009.006c-.017.013-.033.026-.051.038a1.77 1.77 0 01-.117.074l-.036.023a.837.837 0 01-.045.028l-.077.04h-.01l-.05.025-.032.016-.04.02a2.169 2.169 0 01-.526.15l-.04.007-.043.007c-.087.01-.167.015-.246.017H4.54l-.044.011zm.014-3.874c-.247 0-.49.078-.695.225a1.316 1.316 0 00-.46.597 1.41 1.41 0 00-.071.77c.048.258.167.495.343.68.175.187.398.313.64.364.243.052.495.025.723-.076.229-.101.424-.272.561-.491a1.392 1.392 0 00-.158-1.68 1.216 1.216 0 00-.883-.389zm29.577.843h-3.045v-2.943h3.045v2.943zm-2.458-2.076a.08.08 0 00-.076.053.092.092 0 00.02.096.769.769 0 01.187.485.774.774 0 01-.16.496.092.092 0 00.007.123.08.08 0 00.05.023c.022 0 .044-.01.06-.027a.952.952 0 00.204-.62.945.945 0 00-.24-.606.077.077 0 00-.054-.025l.002.002zm5.322 2.076h-2.7v-2.943h2.7v2.943zm-2.243-2.078a.078.078 0 00-.046.014.086.086 0 00-.03.04.09.09 0 00.018.096.772.772 0 01.028.98.091.091 0 00-.012.095.088.088 0 00.03.038.08.08 0 00.045.014c.023 0 .045-.01.06-.028a.956.956 0 00.204-.62.95.95 0 00-.239-.606.079.079 0 00-.058-.023zm-3.831 2.078h-2.847v-2.943h2.848v2.943zm-2.374-2.078a.08.08 0 00-.058.025.09.09 0 00-.024.064.087.087 0 00.024.06.772.772 0 01.03.98.093.093 0 00-.013.094.087.087 0 00.03.039.08.08 0 00.044.015.08.08 0 00.06-.028.953.953 0 00.204-.62.946.946 0 00-.239-.606.079.079 0 00-.058-.023zM48.06 4.853H20.506V0h25.67c.419 0 .828.14 1.17.398.342.258.6.622.74 1.042l.881 2.647a.653.653 0 01.029.26 1.027 1.027 0 01-.4.394.948.948 0 01-.534.112zm-1.928-3.848a.95.95 0 01.477.13c.146.086.27.21.358.36l.26.436.138-.095-.26-.433a1.185 1.185 0 00-.417-.42 1.104 1.104 0 00-.557-.153h-3.026v.175h3.027zm-21.15 14.253h-4.148V7.192a.52.52 0 01.138-.356.46.46 0 01.334-.147h3.204a.46.46 0 01.334.148.52.52 0 01.138.355v8.066zm-3.7-7.871v4.904h3.046V7.387h-3.046zm24.946 8.585h-2.394a2.728 2.728 0 00-.866-1.696 2.423 2.423 0 00-1.713-.635V5.028h4.028l-.077.017 1.022 5.36v5.567zm-3.744-9.808a.399.399 0 00-.29.128.452.452 0 00-.12.309v2.712c0 .116.043.226.12.308a.399.399 0 00.29.128h2.358c.06 0 .119-.014.172-.04a.416.416 0 00.14-.113.449.449 0 00.096-.352l-.406-2.711a.444.444 0 00-.139-.264.396.396 0 00-.267-.105h-1.954zm-24.773 9.821h-2.337v-2.731h2.337v2.73zm-1.863-2.093a.08.08 0 00-.058.025.094.094 0 00-.017.097c.005.01.01.02.018.027a.773.773 0 01.029.98.092.092 0 00-.022.064.093.093 0 00.027.06.082.082 0 00.057.023c.022 0 .043-.01.059-.026a.951.951 0 00.203-.62.945.945 0 00-.239-.605.078.078 0 00-.058-.025zm33.859-7.367a8.04 8.04 0 00-.874-1.728 1.058 1.058 0 01-.461.202c.449.59.77 1.277.938 2.014-.254.232-.45.526-.576.856-.124.33-.173.687-.14 1.042.027.288.157.617.424.673.267.057.52-.214.648-.485a3.496 3.496 0 00.041-2.574z"/><path d="M47.337 15.972h-.945v-5.584l-1.025-5.36h1.563a.52.52 0 01.222.207c.053.091.08.197.076.304l1.28 4.78v4.66a.948.948 0 01-.185.686 1.289 1.289 0 01-.986.307zm-.307-8.079l.113.127-.696.696.116.552c.017.074.056.14.111.187a.307.307 0 00.197.074h1.144l-.368-1.421-.538.608-.12-.12.606-.687-.237-.899-.498.53-.115-.124.563-.598-.15-.564h-.837a.299.299 0 00-.136.033.32.32 0 00-.11.093.345.345 0 00-.06.283l.395 1.856.622-.624-.002-.002zM41.218 18.65a1.978 1.978 0 01-.628-.11l-.03-.012a2.015 2.015 0 01-.56-.314l-.02-.017a1.944 1.944 0 01-.218-.2l-.015-.017a2.01 2.01 0 01-.18-.229c-.014-.016-.022-.031-.032-.047a2.175 2.175 0 01-.148-.266l-.013-.029-.012-.027a2.248 2.248 0 01-.166-.565v-.022l-.009-.049a5.418 5.418 0 01-.018-.192v-.07a2.136 2.136 0 01.008-.22v-.032a2.243 2.243 0 01.55-1.279 2.028 2.028 0 011.504-.692c.445.002.878.156 1.234.44.357.284.618.683.745 1.137.01.039.018.082.026.117v.017c.029.138.046.277.05.418v.207c0 .076-.014.149-.02.202v.012a2.162 2.162 0 01-.036.185l-.006.02a1.61 1.61 0 01-.05.172l-.01.028c-.02.053-.039.105-.06.157l-.017.038a2.678 2.678 0 01-.174.31l-.02.03-.014.024-.023.025-.06.082a.424.424 0 01-.03.036l-.018.021c-.029.034-.054.065-.083.093l-.028.028-.032.032a1.926 1.926 0 01-.085.077c-.015.014-.03.025-.046.037l-.03.023c-.028.022-.054.043-.082.063a1.23 1.23 0 01-.095.06l-.03.02-.047.029-.025.011c-.03.016-.06.03-.09.044l-.023.011-.044.021a1.947 1.947 0 01-.456.132h-.022c-.021 0-.035.006-.049.006-.07.01-.14.016-.212.018h-.051v.006zm.013-3.382c-.222 0-.438.07-.622.2s-.328.317-.413.535a1.263 1.263 0 00-.064.688c.043.23.15.443.307.61a1.1 1.1 0 00.573.326c.217.046.442.022.647-.068.204-.09.38-.243.502-.44a1.246 1.246 0 00-.14-1.502 1.087 1.087 0 00-.79-.35z"/><path d="M41.23 16.948c.255 0 .462-.22.462-.49 0-.271-.207-.49-.461-.49-.255 0-.461.219-.461.49 0 .27.206.49.46.49z"/><path d="M24.682 18.317H20.93v-.35h.63v-.556h-.63v-.35h.63v-1.089h-3.682v-2.9h-2.675v2.9H12.7l-.682-1.85H2.12l-.702 1.85H.604L.469 6 .44 3.73A4.764 4.764 0 011.475.538c.132-.16.292-.289.472-.381.18-.092.375-.145.574-.156H20.34v5.027h20.752v8.787h.081a2.246 2.246 0 011.65.55c.464.401.766.976.845 1.607h-.26a2.385 2.385 0 00-.845-1.412 2.15 2.15 0 00-1.332-.475c-.4 0-.792.114-1.136.331a2.311 2.311 0 00-.819.902 2.49 2.49 0 00-.23.654h-1.94v-3.118h-9.247v3.12h-3.807v1.091h.63v.347h-.63v.553h.63v.353zm-2.956-.899v.565h2.157v-.56l-2.157-.005zm0-1.453v1.086h2.157v-1.084l-2.157-.002zm-.42-9.626a.76.76 0 00-.307.065.8.8 0 00-.26.186.859.859 0 00-.174.277.901.901 0 00-.06.326v8.42h4.807v-8.42a.882.882 0 00-.235-.602.778.778 0 00-.567-.25l-3.204-.002zm-12.384 6.3v.176h2.09v-.175h-2.09zm-3.292 0v.176h2.09v-.175H5.63zm3.292-.787v.175h2.09v-.175h-2.09zm-3.292 0v.175h2.09v-.175H5.63zm3.292-.788v.175h2.09v-.175h-2.09zm-3.292 0v.175h2.09v-.175H5.63zm27.832-3.94v4.028h3.95V7.124h-3.95zm-5.992 0v4.028h3.95V7.124h-3.95zm-12.823 0v4.028H18.6V7.124h-3.953zM.904 10.84v.306h2.26v-4.02H.904v3.366h.456l1.292-1.501.12.119-1.191 1.384h1.377v.348L.904 10.84zm8.018-.548v.175h2.09v-.175h-2.09zm-3.292 0v.175h2.09v-.175H5.63zm3.292-.788v.175h2.09v-.175h-2.09zm-3.292 0v.175h2.09v-.175H5.63zm3.292-.788v.175h2.09v-.175h-2.09zm-3.292 0v.175h2.09v-.175H5.63zm3.292-.77v.174h2.09v-.175h-2.09zm-3.292 0v.174h2.09v-.175H5.63zm3.292-.789v.175h2.09v-.175h-2.09zm-3.292 0v.175h2.09v-.175H5.63zm3.292-.788v.175h2.09V6.37h-2.09zm-3.292 0v.175h2.09V6.37H5.63zm3.292-.77v.176h2.09V5.6h-2.09zm-3.292 0v.176h2.09V5.6H5.63zm7.724-3.76v1.613h4.563l-.74-1.618-3.823.004zm-5.997 0l-.741 1.613h4.561V1.836l-3.82.003z"/><path d="M18.204 10.449h-2.372l.904-.808-.106-.134-1.027.918.018.023h-.538v.35h3.123l-.002-.349zM7.19 2.841v.35h3.617v-.35H8.33l.763-.676-.105-.135-.914.81-.883.001zm7.192.044l.868-.627-.092-.144-1.07.771h-.364v.35H17.3v-.35h-2.917zm16.601 7.555h-2.412l1.07-1.063-.111-.127-1.2 1.192h-.511v.35h3.163l.001-.352zm6.002.011h-3.128v.35h3.128v-.35zM1.421 9.296L2.49 8.114l.118.121L1.54 9.417l-.119-.121z"/><path d="M9.195 2.466l.538-.436.1.139-.538.436-.1-.139zm6.086.041l.615-.438.091.145-.614.438-.092-.145zm-.049 7.263l1.85-1.704.107.133-1.85 1.704-.107-.133zm1.602.177l1.356-1.268.108.132-1.356 1.268-.108-.132zm6.439-1.358l-.114-.126-1.397 1.443.115.125 1.396-1.442zm-1.755 2.318l1.234-1.136.108.132-1.233 1.135-.109-.131zm1.026.571l1.356-1.355.113.127-1.356 1.356-.113-.128zm7.715-3.589l-.114-.127-2.014 2.055.114.127 2.014-2.055zm-.275 1.969l.822-.743.107.133-.822.744-.107-.134zm-1.151-1.439l.657-.613.108.131-.657.612-.108-.13zm5.75 1.396l1.972-1.88.11.13-1.973 1.88-.109-.13zm.495.349l.863-.787.106.132-.862.787-.107-.132zm-.244-1.49l1.478-1.312.106.134L34.94 8.81l-.106-.135zm-.985.176l.657-.571.104.135-.657.573-.104-.136zm8.749.266l1.767-1.661.11.13-1.768 1.662-.109-.131zm1.197-.308l.904-.787.104.134-.904.788-.104-.135zm-.658-.832l1.397-1.226.105.135-1.398 1.226-.104-.135z"/></g><defs><clipPath id="clip0_200_42151"><path fill="#fff" transform="translate(.439)" d="M0 0h49.491v19H0z"/></clipPath></defs></svg>