<svg width="39" height="43" fill="none" xmlns="http://www.w3.org/2000/svg"><g opacity=".651" fill="#fff"><path d="M17.715 37.938l6.97-6.971c5.088-4.188 9.69-3.165 14.273-1.957-4.249-3.09-9.004-4.331-14.88 0l-8.323 7.027 1.96 1.901z"/><path d="M17.715 37.938l6.97-6.971c5.088-4.188 9.69-3.165 14.273-1.957-4.249-3.09-9.004-4.331-14.88 0l-8.323 7.027 1.96 1.901z"/><path d="M17.715 38.028l-2.051-1.993.054-.047 8.323-7.026a12.544 12.544 0 017.484-2.817A12.688 12.688 0 0139 28.959l-.054.113a24.89 24.89 0 00-6.295-1.059 11.95 11.95 0 00-7.922 3.003l-7.01 7.01-.004.002zm13.807-11.755a12.412 12.412 0 00-7.404 2.79l-8.263 6.978 1.86 1.805 6.927-6.927a12.077 12.077 0 018.007-3.036c2.03.069 4.043.396 5.99.975a12.334 12.334 0 00-7.117-2.585z"/><path d="M17.715 38.028l-2.051-1.993.054-.047 8.323-7.026a12.544 12.544 0 017.484-2.817A12.688 12.688 0 0139 28.959l-.054.113a24.89 24.89 0 00-6.295-1.059 11.95 11.95 0 00-7.922 3.003l-7.01 7.01-.004.002zm13.807-11.755a12.412 12.412 0 00-7.404 2.79l-8.263 6.978 1.86 1.805 6.927-6.927a12.077 12.077 0 018.007-3.036c2.03.069 4.043.396 5.99.975a12.334 12.334 0 00-7.117-2.585z"/><path d="M16.475 39.067l-2.507 2.645a1.945 1.945 0 01-2.865-.275 1.117 1.117 0 011.543-1.544l2.342-2.535c.401-.488.132-.71-.192-.91l-.497-.412c-.68-.888.375-1.39.855-.883l1.13 1.213 5.759-4.353-4.657 5.455 1.212.881c.945.702.01 1.447-.66.909l-.524-.44a.658.658 0 00-.939.25z"/><path d="M16.475 39.067l-2.507 2.645a1.945 1.945 0 01-2.865-.275 1.117 1.117 0 011.543-1.544l2.342-2.535c.401-.488.132-.71-.192-.91l-.497-.412c-.68-.888.375-1.39.855-.883l1.13 1.213 5.759-4.353-4.657 5.455 1.212.881c.945.702.01 1.447-.66.909l-.524-.44a.658.658 0 00-.939.25z"/><path d="M12.688 42.29a2.328 2.328 0 01-1.632-.807l-.012-.017a1.29 1.29 0 010-1.268 1.182 1.182 0 011.003-.524c.204 0 .405.048.586.141l2.307-2.498a.583.583 0 00.178-.437c-.023-.144-.159-.253-.357-.375l-.513-.43a.776.776 0 01-.176-.84.667.667 0 01.601-.348.712.712 0 01.524.223l1.09 1.17 5.717-4.318.087.092-4.613 5.404 1.157.84c.344.258.49.558.401.825a.615.615 0 01-.601.385.856.856 0 01-.539-.2l-.52-.438a.768.768 0 00-.34-.093.628.628 0 00-.509.325l-2.513 2.653a2.1 2.1 0 01-1.326.535zm-.644-2.489a1.054 1.054 0 00-.893.465 1.164 1.164 0 000 1.135 2.168 2.168 0 001.53.76c.46-.016.9-.191 1.242-.497l2.508-2.64a.738.738 0 01.602-.372.916.916 0 01.407.111l.013.008.523.44c.129.108.29.168.458.17a.488.488 0 00.481-.3c.07-.212-.061-.46-.357-.682l-1.267-.922 4.319-5.06-5.336 4.033-1.17-1.255a.581.581 0 00-.429-.182.537.537 0 00-.49.276.678.678 0 00.16.701l.49.41a.75.75 0 01.41.456.7.7 0 01-.209.542l-2.377 2.575-.045-.023a1.165 1.165 0 00-.57-.149z"/><path d="M12.688 42.29a2.328 2.328 0 01-1.632-.807l-.012-.017a1.29 1.29 0 010-1.268 1.182 1.182 0 011.003-.524c.204 0 .405.048.586.141l2.307-2.498a.583.583 0 00.178-.437c-.023-.144-.159-.253-.357-.375l-.513-.43a.776.776 0 01-.176-.84.667.667 0 01.601-.348.712.712 0 01.524.223l1.09 1.17 5.717-4.318.087.092-4.613 5.404 1.157.84c.344.258.49.558.401.825a.615.615 0 01-.601.385.856.856 0 01-.539-.2l-.52-.438a.768.768 0 00-.34-.093.628.628 0 00-.509.325l-2.513 2.653a2.1 2.1 0 01-1.326.535zm-.644-2.489a1.054 1.054 0 00-.893.465 1.164 1.164 0 000 1.135 2.168 2.168 0 001.53.76c.46-.016.9-.191 1.242-.497l2.508-2.64a.738.738 0 01.602-.372.916.916 0 01.407.111l.013.008.523.44c.129.108.29.168.458.17a.488.488 0 00.481-.3c.07-.212-.061-.46-.357-.682l-1.267-.922 4.319-5.06-5.336 4.033-1.17-1.255a.581.581 0 00-.429-.182.537.537 0 00-.49.276.678.678 0 00.16.701l.49.41a.75.75 0 01.41.456.7.7 0 01-.209.542l-2.377 2.575-.045-.023a1.165 1.165 0 00-.57-.149z"/><path d="M16.555 37.94h-.762l-.042-.761.129-.007.036.64h.64v.129z"/><path d="M16.555 37.94h-.762l-.042-.761.129-.007.036.64h.64v.129zm-.955 1.092h-.761l-.042-.762.128-.007.036.64h.64v.129z"/><path d="M15.6 39.032h-.761l-.042-.762.128-.007.036.64h.64v.129zm-.895 1.091h-.762l-.042-.762.128-.007.036.64h.64v.129z"/><path d="M14.705 40.123h-.762l-.042-.762.128-.007.036.64h.64v.129zm-2.089-.173l.088-.094.702.662-.089.093-.701-.661z"/><path d="M12.616 39.95l.088-.094.702.662-.089.093-.701-.661zm4.38-3.426l4.487-4.152.175.189-4.488 4.15-.174-.187z"/><path d="M16.996 36.524l4.487-4.152.175.189-4.488 4.15-.174-.187z"/><path d="M22.232 37.94l-6.971-6.97c-5.088-4.188-9.69-3.165-14.273-1.957 4.249-3.09 9.004-4.331 14.88 0l8.323 7.027-1.959 1.9z"/><path d="M22.232 37.94l-6.971-6.97c-5.088-4.188-9.69-3.165-14.273-1.957 4.249-3.09 9.004-4.331 14.88 0l8.323 7.027-1.959 1.9z"/><path d="M22.232 38.032l-7.02-7.02a11.944 11.944 0 00-7.916-2.998 24.819 24.819 0 00-6.295 1.06l-.054-.114a12.691 12.691 0 017.476-2.814 12.535 12.535 0 017.479 2.814l8.379 7.075-2.052 1.993.003.004zM7.3 27.89a12.08 12.08 0 018.003 3.031l6.93 6.93 1.86-1.804-8.267-6.98a11.151 11.151 0 00-14.516-.201 23.917 23.917 0 015.989-.977z"/><path d="M22.232 38.032l-7.02-7.02a11.944 11.944 0 00-7.916-2.998 24.819 24.819 0 00-6.295 1.06l-.054-.114a12.691 12.691 0 017.476-2.814 12.535 12.535 0 017.479 2.814l8.379 7.075-2.052 1.993.003.004zM7.3 27.89a12.08 12.08 0 018.003 3.031l6.93 6.93 1.86-1.804-8.267-6.98a11.151 11.151 0 00-14.516-.201 23.917 23.917 0 015.989-.977z"/><path d="M23.473 39.071l2.507 2.646a1.946 1.946 0 002.866-.276 1.117 1.117 0 00-1.544-1.542l-2.342-2.535c-.401-.489-.132-.71.193-.91l.496-.413c.68-.888-.375-1.389-.855-.882l-1.129 1.213-5.759-4.353 4.657 5.455-1.212.882c-.945.702-.01 1.447.66.91l.524-.44a.657.657 0 01.937.247v-.002z"/><path d="M23.473 39.071l2.507 2.646a1.946 1.946 0 002.866-.276 1.117 1.117 0 00-1.544-1.542l-2.342-2.535c-.401-.489-.132-.71.193-.91l.496-.413c.68-.888-.375-1.389-.855-.882l-1.129 1.213-5.759-4.353 4.657 5.455-1.212.882c-.945.702-.01 1.447.66.91l.524-.44a.657.657 0 01.937.247v-.002z"/><path d="M27.261 42.293a2.095 2.095 0 01-1.32-.527l-2.513-2.65a.64.64 0 00-.514-.334.773.773 0 00-.342.095l-.517.435a.86.86 0 01-.54.2.613.613 0 01-.601-.384c-.089-.267.058-.566.4-.824l1.158-.842-4.613-5.403.087-.093 5.716 4.32 1.09-1.17a.71.71 0 01.525-.223.667.667 0 01.601.347.777.777 0 01-.176.84l-.011.012-.495.413c-.208.128-.341.236-.367.38a.586.586 0 00.182.44l2.306 2.494c.182-.093.384-.141.588-.141a1.18 1.18 0 011.003.524 1.288 1.288 0 010 1.268l-.013.017a2.329 2.329 0 01-1.634.806zm-4.348-3.637a.75.75 0 01.614.378l2.502 2.638a1.95 1.95 0 001.232.489 2.168 2.168 0 001.534-.758 1.162 1.162 0 000-1.134 1.052 1.052 0 00-.892-.465c-.2 0-.396.051-.57.15l-.044.024-2.376-2.573a.708.708 0 01-.212-.545c.036-.212.235-.35.417-.461l.484-.401a.68.68 0 00.16-.703.54.54 0 00-.491-.275.587.587 0 00-.431.182l-1.169 1.255-5.335-4.034 4.32 5.06-1.27.924c-.3.22-.425.469-.355.68a.488.488 0 00.481.3.728.728 0 00.459-.17l.535-.448a.89.89 0 01.405-.113h.002z"/><path d="M27.261 42.293a2.095 2.095 0 01-1.32-.527l-2.513-2.65a.64.64 0 00-.514-.334.773.773 0 00-.342.095l-.517.435a.86.86 0 01-.54.2.613.613 0 01-.601-.384c-.089-.267.058-.566.4-.824l1.158-.842-4.613-5.403.087-.093 5.716 4.32 1.09-1.17a.71.71 0 01.525-.223.667.667 0 01.601.347.777.777 0 01-.176.84l-.011.012-.495.413c-.208.128-.341.236-.367.38a.586.586 0 00.182.44l2.306 2.494c.182-.093.384-.141.588-.141a1.18 1.18 0 011.003.524 1.288 1.288 0 010 1.268l-.013.017a2.329 2.329 0 01-1.634.806zm-4.348-3.637a.75.75 0 01.614.378l2.502 2.638a1.95 1.95 0 001.232.489 2.168 2.168 0 001.534-.758 1.162 1.162 0 000-1.134 1.052 1.052 0 00-.892-.465c-.2 0-.396.051-.57.15l-.044.024-2.376-2.573a.708.708 0 01-.212-.545c.036-.212.235-.35.417-.461l.484-.401a.68.68 0 00.16-.703.54.54 0 00-.491-.275.587.587 0 00-.431.182l-1.169 1.255-5.335-4.034 4.32 5.06-1.27.924c-.3.22-.425.469-.355.68a.488.488 0 00.481.3.728.728 0 00.459-.17l.535-.448a.89.89 0 01.405-.113h.002z"/><path d="M24.153 37.945h-.762v-.128h.64l.036-.641.129.007-.043.762z"/><path d="M24.153 37.945h-.762v-.128h.64l.036-.641.129.007-.043.762zm.955 1.09h-.762v-.126h.641l.035-.641.128.007-.042.76z"/><path d="M25.108 39.035h-.762v-.126h.641l.035-.641.128.007-.042.76zm.897 1.091h-.762v-.128h.64l.036-.641.128.007-.042.762z"/><path d="M26.005 40.126h-.762v-.128h.64l.036-.641.128.007-.042.762zm.538.397l.702-.664.088.093-.701.664-.089-.093z"/><path d="M26.543 40.523l.702-.664.088.093-.701.664-.089-.093zm-8.255-7.957l.175-.189 4.491 4.147-.174.188-4.492-4.146z"/><path d="M18.288 32.566l.175-.189 4.491 4.147-.174.188-4.492-4.146zm2.355-22.029h-2.006c-1.384 2.99-.236 3.461-.55 3.581-.255.06-.521.051-.771-.027.388.582.895 1.27.578 1.46-.367-.055-.541-.09-.689-.44l-.082 1.652c-.108.417-.506.443-.634-.027a10.256 10.256 0 011.543-6.86l-.358-.166c-.459.81-1.404 1.06-1.158 3.31-.227.3-.4.27-.55.137l-.083 3.416c-.168.354-.35.615-.662.027l-.602-2.066a3.52 3.52 0 011.323-4.298 60.062 60.062 0 001.873-1.432l-.827.22c-2.006 1.844-4.814 2.415-4.413 6.751-.142.32-.36.472-.633.055a4.853 4.853 0 01-.166-3.637 11.356 11.356 0 013.196-3.361c-1.108.138-2.245.07-3.14 1.764-.277.575-.487.44-.69.22l-.3 1.186c-.334.501-.803.057-.602-.386.23-.551 1.04-5.761 6.062-3.72.566.271 1.084.187.247-.468-.608-.301-1.465-1.518-3.443-.602-.795.685-.756-.252-.301-.578a6.798 6.798 0 00-2.453 1.704c-.465.41-.768 0-.578-.413A4.725 4.725 0 0113.85 5.39c.624-.165.244-.33.11-.496-2.09-.543-2.306.1-3.196.936-.126.234-.677.222-.523-.3 1.203-2.397 5.69-3.04 7.687.22.224.301.502.055.276-.22-.501-.476-1.265-2.26-3.085-2.176-.263.023-.645-.235-.442-.414a5.082 5.082 0 00-3.692.965c-.035.1-1.066.2-.91-.386 2.5-2.287 6.83-1.934 8.266.441-.115-.586.276-1.404-.991-1.653-.421-.568 1.46-1.436 1.873-1.268.914.275.773.812.854 1.295.067.365.187.507.496-.027 1.618-2.27 4.822-.928 5.923-.579.517.364.42.682-.137.716l-2.15-.276c.22.107.289.43-.137.413-1.16-.21-1.867-.042-2.342.55a.643.643 0 01-.76.57.678.678 0 00-.663.5c-.04.232.153.316.319.201a5.674 5.674 0 016.642-.582l1.404 1.323c.542.567-.252.865-.468.523-2.014-1.831-3.682-1.444-5.594-.881-.072.216-.178.453.248.386 3.39-.994 6.117 1.073 6.585 3.031.165 1.17-.501 1.065-.826.468-.365-.838-.579-1.995-1.157-1.905a.476.476 0 01-.661.275c-.23-.074-.684-.95-1.433-1.019.116.401-2.138.475-3.388.44-.128.15-.301.307 0 .386a6.347 6.347 0 017.577 3.109l.633 1.543c.43 1.727-.416 1.663-1.075.826a37.09 37.09 0 00-2.617-3.664c-.1.547-.365.43-.602.413a6.309 6.309 0 00-3.884-1.515c-.16.17-.34.342 0 .44 2.346.561 5.638 1.681 5.704 6.778.009.66-.754 1.577-1.13.414l.3-1.736c.133-.273-.1-.552-.276-.414-.266.257-.449.23-.496-.247a2.493 2.493 0 00-.358-1.35c-.184.67-.528.466-.854.358l-1.736-1.79c1.988 3.136.87 4.813.579 5.345-.327.229-.703.396-.772-.138a1.9 1.9 0 01.524-1.432c.293-.527.02-.681-.194-.662-.447.118-.349-.966-.468-1.57-.464-.026-.448-.291-.331-.602.29-.529-.153-.78-.413-1.103l-.552.137a9.967 9.967 0 011.158 5.483c-.122.472-.686.76-.992.028a21.349 21.349 0 00-1.061-4.961z"/><path d="M20.643 10.537h-2.006c-1.384 2.99-.236 3.461-.55 3.581-.255.06-.521.051-.771-.027.388.582.895 1.27.578 1.46-.367-.055-.541-.09-.689-.44l-.082 1.652c-.108.417-.506.443-.634-.027a10.256 10.256 0 011.543-6.86l-.358-.166c-.459.81-1.404 1.06-1.158 3.31-.227.3-.4.27-.55.137l-.083 3.416c-.168.354-.35.615-.662.027l-.602-2.066a3.52 3.52 0 011.323-4.298 60.062 60.062 0 001.873-1.432l-.827.22c-2.006 1.844-4.814 2.415-4.413 6.751-.142.32-.36.472-.633.055a4.853 4.853 0 01-.166-3.637 11.356 11.356 0 013.196-3.361c-1.108.138-2.245.07-3.14 1.764-.277.575-.487.44-.69.22l-.3 1.186c-.334.501-.803.057-.602-.386.23-.551 1.04-5.761 6.062-3.72.566.271 1.084.187.247-.468-.608-.301-1.465-1.518-3.443-.602-.795.685-.756-.252-.301-.578a6.798 6.798 0 00-2.453 1.704c-.465.41-.768 0-.578-.413A4.725 4.725 0 0113.85 5.39c.624-.165.244-.33.11-.496-2.09-.543-2.306.1-3.196.936-.126.234-.677.222-.523-.3 1.203-2.397 5.69-3.04 7.687.22.224.301.502.055.276-.22-.501-.476-1.265-2.26-3.085-2.176-.263.023-.645-.235-.442-.414a5.082 5.082 0 00-3.692.965c-.035.1-1.066.2-.91-.386 2.5-2.287 6.83-1.934 8.266.441-.115-.586.276-1.404-.991-1.653-.421-.568 1.46-1.436 1.873-1.268.914.275.773.812.854 1.295.067.365.187.507.496-.027 1.618-2.27 4.822-.928 5.923-.579.517.364.42.682-.137.716l-2.15-.276c.22.107.289.43-.137.413-1.16-.21-1.867-.042-2.342.55a.643.643 0 01-.76.57.678.678 0 00-.663.5c-.04.232.153.316.319.201a5.674 5.674 0 016.642-.582l1.404 1.323c.542.567-.252.865-.468.523-2.014-1.831-3.682-1.444-5.594-.881-.072.216-.178.453.248.386 3.39-.994 6.117 1.073 6.585 3.031.165 1.17-.501 1.065-.826.468-.365-.838-.579-1.995-1.157-1.905a.476.476 0 01-.661.275c-.23-.074-.684-.95-1.433-1.019.116.401-2.138.475-3.388.44-.128.15-.301.307 0 .386a6.347 6.347 0 017.577 3.109l.633 1.543c.43 1.727-.416 1.663-1.075.826a37.09 37.09 0 00-2.617-3.664c-.1.547-.365.43-.602.413a6.309 6.309 0 00-3.884-1.515c-.16.17-.34.342 0 .44 2.346.561 5.638 1.681 5.704 6.778.009.66-.754 1.577-1.13.414l.3-1.736c.133-.273-.1-.552-.276-.414-.266.257-.449.23-.496-.247a2.493 2.493 0 00-.358-1.35c-.184.67-.528.466-.854.358l-1.736-1.79c1.988 3.136.87 4.813.579 5.345-.327.229-.703.396-.772-.138a1.9 1.9 0 01.524-1.432c.293-.527.02-.681-.194-.662-.447.118-.349-.966-.468-1.57-.464-.026-.448-.291-.331-.602.29-.529-.153-.78-.413-1.103l-.552.137a9.967 9.967 0 011.158 5.483c-.122.472-.686.76-.992.028a21.349 21.349 0 00-1.061-4.961z"/><path d="M16.811 17.148c-.135 0-.308-.1-.386-.393a10.374 10.374 0 011.512-6.85l-.24-.11a3.69 3.69 0 01-.378.493l-.005.006a2.927 2.927 0 00-.736 2.716v.026l-.014.02a.515.515 0 01-.386.261.335.335 0 01-.156-.042l-.085 3.324c-.095.201-.209.412-.381.412-.132 0-.257-.122-.394-.381l-.612-2.08a3.604 3.604 0 011.349-4.37 61.35 61.35 0 001.63-1.238l-.515.138c-.468.41-.961.791-1.477 1.139-1.648 1.162-3.203 2.26-2.9 5.547v.016l-.005.015c-.1.227-.23.347-.37.347-.125 0-.255-.1-.377-.282l-.008-.019c-.045-.164-.095-.33-.142-.483a4.273 4.273 0 01-.019-3.19 11.22 11.22 0 013.026-3.246l-.113.012a2.888 2.888 0 00-2.742 1.69c-.144.302-.286.445-.447.445a.4.4 0 01-.264-.128l-.285 1.095a.482.482 0 01-.384.25.367.367 0 01-.306-.178.546.546 0 01-.028-.518 3.08 3.08 0 00.09-.301c.273-.973 1.104-3.932 3.9-3.932.743.019 1.474.18 2.155.476.152.08.32.127.491.14.065 0 .1-.016.105-.03.005-.016.015-.134-.412-.469a2.93 2.93 0 01-.4-.264 2.673 2.673 0 00-1.658-.662 3.19 3.19 0 00-1.315.323.852.852 0 01-.49.255.219.219 0 01-.216-.161.71.71 0 01.112-.539c-.816.368-1.547.9-2.148 1.564a.653.653 0 01-.41.188.31.31 0 01-.272-.148.555.555 0 010-.523l.008-.013a4.772 4.772 0 014.12-2.172c.26-.07.288-.128.29-.14.009-.032-.066-.1-.116-.145a.931.931 0 01-.09-.089 5.179 5.179 0 00-1.25-.194 1.905 1.905 0 00-1.532.787c-.1.1-.208.211-.33.327a.387.387 0 01-.328.17.336.336 0 01-.271-.127.44.44 0 01-.037-.401 4.212 4.212 0 013.777-2.062 4.635 4.635 0 014.027 2.265.233.233 0 00.166.1.07.07 0 00.067-.04.209.209 0 00-.06-.21 3.854 3.854 0 01-.383-.477 3.215 3.215 0 00-2.535-1.678h-.155a.595.595 0 01-.513-.292.2.2 0 010-.144 3.023 3.023 0 00-.545-.048 5.572 5.572 0 00-2.992 1.015c-.077.092-.369.096-.401.096a.73.73 0 01-.564-.201.377.377 0 01-.05-.344v-.02l.013-.011a6.217 6.217 0 014.173-1.558 4.914 4.914 0 014.047 1.796V3.51c0-.501 0-.972-.914-1.15H17.3l-.013-.02a.373.373 0 01-.023-.414 2.736 2.736 0 011.81-.978.433.433 0 01.16.026 1.039 1.039 0 01.866 1.095c.005.07.013.162.028.249.049.263.1.271.109.271.008 0 .093-.015.268-.32A3.191 3.191 0 0123.268.948c1 .047 1.985.252 2.92.61l.117.039.2.066.018.008c.277.2.401.395.356.562-.045.168-.231.253-.526.271l-1.96-.25a.266.266 0 01.04.201c-.015.057-.075.192-.338.192h-.035a4.864 4.864 0 00-.852-.087 1.705 1.705 0 00-1.426.597.74.74 0 01-.186.395.68.68 0 01-.533.22c-.035 0-.072 0-.11-.005a.618.618 0 00-.595.457.164.164 0 00.025.133.1.1 0 00.081.035.194.194 0 00.114-.04 6.108 6.108 0 013.887-1.425 5.041 5.041 0 012.827.843l1.414 1.33c.248.26.218.452.179.543a.43.43 0 01-.401.237.401.401 0 01-.338-.168 4.442 4.442 0 00-3.08-1.326 8.678 8.678 0 00-2.415.456v.009c-.03.09-.068.2-.04.242.014.02.052.03.11.03.04-.001.08-.005.121-.011a6.234 6.234 0 011.757-.258 4.975 4.975 0 014.9 3.337 1.147 1.147 0 01-.114.871.312.312 0 01-.302.107c.18.24.355.501.519.767l.639 1.552c.164.658.16 1.121-.014 1.341a.359.359 0 01-.3.142 1.324 1.324 0 01-.877-.593c-.27-.384-.53-.78-.78-1.16l-.008-.01a21.567 21.567 0 00-1.744-2.398c-.07.247-.2.364-.4.364-.05-.001-.1-.005-.15-.012-.035 0-.064-.007-.094-.01h-.023l-.016-.013a5.768 5.768 0 00-3.463-1.441l-.179-.027h-.02l-.156-.023c-.061.064-.166.173-.152.225 0 .014.025.05.146.085 2.808.671 5.689 2.006 5.75 6.84a1.292 1.292 0 01-.344.854.534.534 0 01-.366.18c-.16 0-.383-.1-.545-.601v-.015l.312-1.768a.294.294 0 00-.007-.281.141.141 0 00-.111-.076.1.1 0 00-.06.022.502.502 0 01-.32.175c-.157 0-.251-.157-.28-.467a2.27 2.27 0 00-.282-1.188c-.1.252-.238.37-.435.37a1.075 1.075 0 01-.345-.082h-.011l-.015-.005-.081-.028-.015-.005-1.361-1.403c1.54 2.735.666 4.28.337 4.86l-.06.094a.996.996 0 01-.528.229c-.132 0-.3-.071-.345-.411v-.016a1.959 1.959 0 01.536-1.464c.113-.206.144-.371.087-.466a.221.221 0 00-.194-.094H23.3a.256.256 0 01-.07.01c-.32 0-.36-.501-.401-1.042v-.016c-.014-.182-.028-.369-.056-.525a.45.45 0 01-.358-.17.6.6 0 01.023-.52c.212-.387.009-.6-.226-.845a3.614 3.614 0 01-.151-.163l-.43.108a10.038 10.038 0 011.124 5.45.647.647 0 01-.565.528c-.13 0-.375-.063-.55-.483v-.024a15.655 15.655 0 00-.76-3.911l-.03-.1a80.64 80.64 0 01-.243-.88h-1.929c-.974 2.124-.657 2.93-.52 3.274.04.1.066.167.038.23a.141.141 0 01-.086.075.788.788 0 01-.282.045 2.032 2.032 0 01-.372-.042l.016.03c.314.465.639.946.577 1.224a.256.256 0 01-.123.17l-.02.013h-.022c-.3-.045-.484-.082-.627-.276l-.07 1.427c-.062.203-.204.35-.375.35zm.834-7.52l.478.22-.04.06a10.24 10.24 0 00-1.534 6.82c.05.178.15.29.261.29.112 0 .2-.107.248-.271l.081-1.64.122-.023c.127.301.254.344.615.401a.13.13 0 00.046-.077c.05-.223-.27-.702-.552-1.118v-.007l-.186-.277.145.022c.05.008.1.018.154.028.114.025.23.038.347.042a.658.658 0 00.254-.047.558.558 0 00-.041-.126c-.144-.364-.478-1.215.54-3.41l.017-.037h2.106l.014.049c.078.3.163.601.245.888l.039.14c.42 1.273.677 2.595.764 3.933.108.255.26.396.427.396a.52.52 0 00.438-.426 9.962 9.962 0 00-1.15-5.435l-.043-.074.674-.168.026.032c.046.058.1.115.153.169l.015.015c.237.247.5.526.25.989-.071.193-.08.32-.03.395a.384.384 0 00.308.116h.05l.01.05c.032.193.054.389.065.585v.017c.033.434.072.926.274.926a.186.186 0 00.048-.007h.051a.343.343 0 01.301.156c.083.142.052.344-.091.602l-.012.015a1.836 1.836 0 00-.502 1.385c.036.261.14.291.218.291a.881.881 0 00.441-.2l.034-.061c.346-.611 1.266-2.235-.618-5.206l.1-.079 1.725 1.78.084.03c.1.043.205.07.313.078.112 0 .256-.048.36-.428l.043-.156.076.143c.253.417.38.898.365 1.386.018.154.058.339.154.339.039 0 .111-.025.234-.144a.234.234 0 01.146-.054.267.267 0 01.218.137.416.416 0 01.018.4l-.3 1.712c.107.324.25.501.416.501a.416.416 0 00.277-.141c.19-.21.3-.48.306-.764-.06-4.743-2.892-6.056-5.653-6.718-.139-.04-.216-.1-.237-.176-.033-.121.08-.238.188-.353l.04-.044.034.005.387.06a5.888 5.888 0 013.51 1.457l.05.005h.046a.964.964 0 00.115.01c.114 0 .24-.03.3-.384l.024-.128.087.1a20.651 20.651 0 011.845 2.516l.034.051c.241.365.49.743.745 1.103a1.214 1.214 0 00.773.54.237.237 0 00.195-.09c.083-.108.194-.411-.009-1.223l-.63-1.534a9.275 9.275 0 00-.666-.954 1.073 1.073 0 01-.244-.293 5.851 5.851 0 00-4.557-2.091 8.63 8.63 0 00-2.035.263h-.031c-.119-.032-.186-.079-.207-.148-.032-.1.056-.2.141-.3l.053-.063h.032c.174.005.369.008.578.008a6.325 6.325 0 002.738-.328.04.04 0 00.01-.039l-.026-.09.094.008c.473.1.89.373 1.173.765.076.1.169.188.274.258a.677.677 0 00.2.035.391.391 0 00.375-.268l.012-.04.04-.005a.482.482 0 01.078-.007c.436 0 .662.63.903 1.297.074.206.157.439.248.65l.018.03c.082.092.158.182.226.268a.389.389 0 00.23.1.187.187 0 00.145-.066c.062-.07.155-.264.085-.763a4.841 4.841 0 00-4.774-3.234 6.139 6.139 0 00-1.729.256.937.937 0 01-.148.014.247.247 0 01-.214-.084c-.067-.094-.022-.228.022-.357l.025-.073.032-.01a8.933 8.933 0 012.482-.469 4.569 4.569 0 013.173 1.366l.011.013a.268.268 0 00.235.115.307.307 0 00.284-.158c.048-.108-.006-.25-.15-.401L27.214 3.87a4.906 4.906 0 00-2.747-.814 5.994 5.994 0 00-3.811 1.397.339.339 0 01-.195.068.229.229 0 01-.178-.081.294.294 0 01-.052-.245.753.753 0 01.725-.557c.044 0 .074.005.1.005a.57.57 0 00.595-.507v-.028l.014-.021a1.82 1.82 0 011.539-.661c.29.003.58.033.865.087h.021c.12 0 .201-.034.213-.092a.211.211 0 00-.135-.2l.036-.122 2.15.276c.221-.015.37-.082.4-.18.031-.097-.081-.26-.3-.415-.09-.029-.194-.064-.31-.1h-.006a9.295 9.295 0 00-2.873-.602 3.065 3.065 0 00-2.654 1.265c-.152.262-.267.379-.376.379-.148 0-.2-.2-.235-.377a3.424 3.424 0 01-.03-.261.918.918 0 00-.78-.985.326.326 0 00-.118-.018 2.615 2.615 0 00-1.696.903.254.254 0 000 .262 1.058 1.058 0 01.992 1.27 2.28 2.28 0 00.024.428l-.119.045a4.685 4.685 0 00-4.081-1.951A6.105 6.105 0 0010.12 3.55a.249.249 0 00.033.215.602.602 0 00.462.148.817.817 0 00.3-.045V3.86l.018-.012c.897-.637 1.96-1 3.06-1.046.229-.001.458.023.682.071l.124.028-.095.084a.078.078 0 00-.03.094.481.481 0 00.393.208h.159a3.32 3.32 0 012.63 1.728c.113.166.238.323.375.47a.33.33 0 01.083.352.2.2 0 01-.184.117.354.354 0 01-.269-.165 4.513 4.513 0 00-3.92-2.206 4.073 4.073 0 00-3.659 1.98.327.327 0 00.02.282.206.206 0 00.17.074.253.253 0 00.22-.113l.013-.015c.123-.116.234-.23.332-.329a2.037 2.037 0 011.625-.826c.44.013.879.08 1.303.2l.021.006.013.016c.026.03.054.057.084.083l.009.008c.085.077.181.166.156.272-.025.106-.141.17-.392.236h-.016a4.648 4.648 0 00-4.023 2.12.423.423 0 000 .391.19.19 0 00.167.093.512.512 0 00.316-.153 6.901 6.901 0 012.469-1.72l.063.112a.69.69 0 00-.284.636.09.09 0 00.095.072c.056 0 .183-.032.412-.23l.015-.009a3.309 3.309 0 011.376-.339 2.82 2.82 0 011.73.685c.123.097.254.184.392.26.36.282.512.484.465.62-.027.075-.105.115-.227.115a1.379 1.379 0 01-.543-.15 5.653 5.653 0 00-2.106-.466c-2.703 0-3.482 2.787-3.776 3.836l-.01.037a3.06 3.06 0 01-.088.28.42.42 0 00.017.4.242.242 0 00.2.122.355.355 0 00.272-.185l.33-1.289.08.087c.08.088.167.169.251.169.1 0 .214-.126.332-.374a3.029 3.029 0 012.843-1.761l.348-.038.245-.031-.2.145a11.179 11.179 0 00-3.18 3.343c-.39.998-.38 2.107.027 3.097.049.157.1.32.142.48.094.142.185.217.263.217.077 0 .17-.091.246-.257-.3-3.348 1.278-4.464 2.952-5.646a14.456 14.456 0 001.478-1.14l.012-.012.843-.223.057.112a55.8 55.8 0 01-1.876 1.434 3.433 3.433 0 00-1.304 4.227l.602 2.068c.141.263.235.301.277.301.1 0 .216-.236.258-.326l.086-3.538.1.088a.273.273 0 00.174.082c.082 0 .172-.064.27-.19a3.055 3.055 0 01.765-2.788c.152-.163.286-.34.401-.53l.028-.052.022-.013zm6.377-3.11a5.941 5.941 0 014.413 1.874c-.043-.11-.083-.223-.122-.332l-.01-.027c-.223-.623-.434-1.21-.783-1.21h-.018a.516.516 0 01-.482.32.794.794 0 01-.245-.043 1.02 1.02 0 01-.33-.294 1.925 1.925 0 00-1.02-.715.187.187 0 01-.033.062c-.258.341-2.072.378-2.84.378-.187 0-.373 0-.551-.007l-.014.016c-.052.059-.128.146-.116.182.006.019.043.041.1.058a8.698 8.698 0 012.05-.262h.001z"/><path d="M16.811 17.148c-.135 0-.308-.1-.386-.393a10.374 10.374 0 011.512-6.85l-.24-.11a3.69 3.69 0 01-.378.493l-.005.006a2.927 2.927 0 00-.736 2.716v.026l-.014.02a.515.515 0 01-.386.261.335.335 0 01-.156-.042l-.085 3.324c-.095.201-.209.412-.381.412-.132 0-.257-.122-.394-.381l-.612-2.08a3.604 3.604 0 011.349-4.37 61.35 61.35 0 001.63-1.238l-.515.138c-.468.41-.961.791-1.477 1.139-1.648 1.162-3.203 2.26-2.9 5.547v.016l-.005.015c-.1.227-.23.347-.37.347-.125 0-.255-.1-.377-.282l-.008-.019c-.045-.164-.095-.33-.142-.483a4.273 4.273 0 01-.019-3.19 11.22 11.22 0 013.026-3.246l-.113.012a2.888 2.888 0 00-2.742 1.69c-.144.302-.286.445-.447.445a.4.4 0 01-.264-.128l-.285 1.095a.482.482 0 01-.384.25.367.367 0 01-.306-.178.546.546 0 01-.028-.518 3.08 3.08 0 00.09-.301c.273-.973 1.104-3.932 3.9-3.932.743.019 1.474.18 2.155.476.152.08.32.127.491.14.065 0 .1-.016.105-.03.005-.016.015-.134-.412-.469a2.93 2.93 0 01-.4-.264 2.673 2.673 0 00-1.658-.662 3.19 3.19 0 00-1.315.323.852.852 0 01-.49.255.219.219 0 01-.216-.161.71.71 0 01.112-.539c-.816.368-1.547.9-2.148 1.564a.653.653 0 01-.41.188.31.31 0 01-.272-.148.555.555 0 010-.523l.008-.013a4.772 4.772 0 014.12-2.172c.26-.07.288-.128.29-.14.009-.032-.066-.1-.116-.145a.931.931 0 01-.09-.089 5.179 5.179 0 00-1.25-.194 1.905 1.905 0 00-1.532.787c-.1.1-.208.211-.33.327a.387.387 0 01-.328.17.336.336 0 01-.271-.127.44.44 0 01-.037-.401 4.212 4.212 0 013.777-2.062 4.635 4.635 0 014.027 2.265.233.233 0 00.166.1.07.07 0 00.067-.04.209.209 0 00-.06-.21 3.854 3.854 0 01-.383-.477 3.215 3.215 0 00-2.535-1.678h-.155a.595.595 0 01-.513-.292.2.2 0 010-.144 3.023 3.023 0 00-.545-.048 5.572 5.572 0 00-2.992 1.015c-.077.092-.369.096-.401.096a.73.73 0 01-.564-.201.377.377 0 01-.05-.344v-.02l.013-.011a6.217 6.217 0 014.173-1.558 4.914 4.914 0 014.047 1.796V3.51c0-.501 0-.972-.914-1.15H17.3l-.013-.02a.373.373 0 01-.023-.414 2.736 2.736 0 011.81-.978.433.433 0 01.16.026 1.039 1.039 0 01.866 1.095c.005.07.013.162.028.249.049.263.1.271.109.271.008 0 .093-.015.268-.32A3.191 3.191 0 0123.268.948c1 .047 1.985.252 2.92.61l.117.039.2.066.018.008c.277.2.401.395.356.562-.045.168-.231.253-.526.271l-1.96-.25a.266.266 0 01.04.201c-.015.057-.075.192-.338.192h-.035a4.864 4.864 0 00-.852-.087 1.705 1.705 0 00-1.426.597.74.74 0 01-.186.395.68.68 0 01-.533.22c-.035 0-.072 0-.11-.005a.618.618 0 00-.595.457.164.164 0 00.025.133.1.1 0 00.081.035.194.194 0 00.114-.04 6.108 6.108 0 013.887-1.425 5.041 5.041 0 012.827.843l1.414 1.33c.248.26.218.452.179.543a.43.43 0 01-.401.237.401.401 0 01-.338-.168 4.442 4.442 0 00-3.08-1.326 8.678 8.678 0 00-2.415.456v.009c-.03.09-.068.2-.04.242.014.02.052.03.11.03.04-.001.08-.005.121-.011a6.234 6.234 0 011.757-.258 4.975 4.975 0 014.9 3.337 1.147 1.147 0 01-.114.871.312.312 0 01-.302.107c.18.24.355.501.519.767l.639 1.552c.164.658.16 1.121-.014 1.341a.359.359 0 01-.3.142 1.324 1.324 0 01-.877-.593c-.27-.384-.53-.78-.78-1.16l-.008-.01a21.567 21.567 0 00-1.744-2.398c-.07.247-.2.364-.4.364-.05-.001-.1-.005-.15-.012-.035 0-.064-.007-.094-.01h-.023l-.016-.013a5.768 5.768 0 00-3.463-1.441l-.179-.027h-.02l-.156-.023c-.061.064-.166.173-.152.225 0 .014.025.05.146.085 2.808.671 5.689 2.006 5.75 6.84a1.292 1.292 0 01-.344.854.534.534 0 01-.366.18c-.16 0-.383-.1-.545-.601v-.015l.312-1.768a.294.294 0 00-.007-.281.141.141 0 00-.111-.076.1.1 0 00-.06.022.502.502 0 01-.32.175c-.157 0-.251-.157-.28-.467a2.27 2.27 0 00-.282-1.188c-.1.252-.238.37-.435.37a1.075 1.075 0 01-.345-.082h-.011l-.015-.005-.081-.028-.015-.005-1.361-1.403c1.54 2.735.666 4.28.337 4.86l-.06.094a.996.996 0 01-.528.229c-.132 0-.3-.071-.345-.411v-.016a1.959 1.959 0 01.536-1.464c.113-.206.144-.371.087-.466a.221.221 0 00-.194-.094H23.3a.256.256 0 01-.07.01c-.32 0-.36-.501-.401-1.042v-.016c-.014-.182-.028-.369-.056-.525a.45.45 0 01-.358-.17.6.6 0 01.023-.52c.212-.387.009-.6-.226-.845a3.614 3.614 0 01-.151-.163l-.43.108a10.038 10.038 0 011.124 5.45.647.647 0 01-.565.528c-.13 0-.375-.063-.55-.483v-.024a15.655 15.655 0 00-.76-3.911l-.03-.1a80.64 80.64 0 01-.243-.88h-1.929c-.974 2.124-.657 2.93-.52 3.274.04.1.066.167.038.23a.141.141 0 01-.086.075.788.788 0 01-.282.045 2.032 2.032 0 01-.372-.042l.016.03c.314.465.639.946.577 1.224a.256.256 0 01-.123.17l-.02.013h-.022c-.3-.045-.484-.082-.627-.276l-.07 1.427c-.062.203-.204.35-.375.35zm.834-7.52l.478.22-.04.06a10.24 10.24 0 00-1.534 6.82c.05.178.15.29.261.29.112 0 .2-.107.248-.271l.081-1.64.122-.023c.127.301.254.344.615.401a.13.13 0 00.046-.077c.05-.223-.27-.702-.552-1.118v-.007l-.186-.277.145.022c.05.008.1.018.154.028.114.025.23.038.347.042a.658.658 0 00.254-.047.558.558 0 00-.041-.126c-.144-.364-.478-1.215.54-3.41l.017-.037h2.106l.014.049c.078.3.163.601.245.888l.039.14c.42 1.273.677 2.595.764 3.933.108.255.26.396.427.396a.52.52 0 00.438-.426 9.962 9.962 0 00-1.15-5.435l-.043-.074.674-.168.026.032c.046.058.1.115.153.169l.015.015c.237.247.5.526.25.989-.071.193-.08.32-.03.395a.384.384 0 00.308.116h.05l.01.05c.032.193.054.389.065.585v.017c.033.434.072.926.274.926a.186.186 0 00.048-.007h.051a.343.343 0 01.301.156c.083.142.052.344-.091.602l-.012.015a1.836 1.836 0 00-.502 1.385c.036.261.14.291.218.291a.881.881 0 00.441-.2l.034-.061c.346-.611 1.266-2.235-.618-5.206l.1-.079 1.725 1.78.084.03c.1.043.205.07.313.078.112 0 .256-.048.36-.428l.043-.156.076.143c.253.417.38.898.365 1.386.018.154.058.339.154.339.039 0 .111-.025.234-.144a.234.234 0 01.146-.054.267.267 0 01.218.137.416.416 0 01.018.4l-.3 1.712c.107.324.25.501.416.501a.416.416 0 00.277-.141c.19-.21.3-.48.306-.764-.06-4.743-2.892-6.056-5.653-6.718-.139-.04-.216-.1-.237-.176-.033-.121.08-.238.188-.353l.04-.044.034.005.387.06a5.888 5.888 0 013.51 1.457l.05.005h.046a.964.964 0 00.115.01c.114 0 .24-.03.3-.384l.024-.128.087.1a20.651 20.651 0 011.845 2.516l.034.051c.241.365.49.743.745 1.103a1.214 1.214 0 00.773.54.237.237 0 00.195-.09c.083-.108.194-.411-.009-1.223l-.63-1.534a9.275 9.275 0 00-.666-.954 1.073 1.073 0 01-.244-.293 5.851 5.851 0 00-4.557-2.091 8.63 8.63 0 00-2.035.263h-.031c-.119-.032-.186-.079-.207-.148-.032-.1.056-.2.141-.3l.053-.063h.032c.174.005.369.008.578.008a6.325 6.325 0 002.738-.328.04.04 0 00.01-.039l-.026-.09.094.008c.473.1.89.373 1.173.765.076.1.169.188.274.258a.677.677 0 00.2.035.391.391 0 00.375-.268l.012-.04.04-.005a.482.482 0 01.078-.007c.436 0 .662.63.903 1.297.074.206.157.439.248.65l.018.03c.082.092.158.182.226.268a.389.389 0 00.23.1.187.187 0 00.145-.066c.062-.07.155-.264.085-.763a4.841 4.841 0 00-4.774-3.234 6.139 6.139 0 00-1.729.256.937.937 0 01-.148.014.247.247 0 01-.214-.084c-.067-.094-.022-.228.022-.357l.025-.073.032-.01a8.933 8.933 0 012.482-.469 4.569 4.569 0 013.173 1.366l.011.013a.268.268 0 00.235.115.307.307 0 00.284-.158c.048-.108-.006-.25-.15-.401L27.214 3.87a4.906 4.906 0 00-2.747-.814 5.994 5.994 0 00-3.811 1.397.339.339 0 01-.195.068.229.229 0 01-.178-.081.294.294 0 01-.052-.245.753.753 0 01.725-.557c.044 0 .074.005.1.005a.57.57 0 00.595-.507v-.028l.014-.021a1.82 1.82 0 011.539-.661c.29.003.58.033.865.087h.021c.12 0 .201-.034.213-.092a.211.211 0 00-.135-.2l.036-.122 2.15.276c.221-.015.37-.082.4-.18.031-.097-.081-.26-.3-.415-.09-.029-.194-.064-.31-.1h-.006a9.295 9.295 0 00-2.873-.602 3.065 3.065 0 00-2.654 1.265c-.152.262-.267.379-.376.379-.148 0-.2-.2-.235-.377a3.424 3.424 0 01-.03-.261.918.918 0 00-.78-.985.326.326 0 00-.118-.018 2.615 2.615 0 00-1.696.903.254.254 0 000 .262 1.058 1.058 0 01.992 1.27 2.28 2.28 0 00.024.428l-.119.045a4.685 4.685 0 00-4.081-1.951A6.105 6.105 0 0010.12 3.55a.249.249 0 00.033.215.602.602 0 00.462.148.817.817 0 00.3-.045V3.86l.018-.012c.897-.637 1.96-1 3.06-1.046.229-.001.458.023.682.071l.124.028-.095.084a.078.078 0 00-.03.094.481.481 0 00.393.208h.159a3.32 3.32 0 012.63 1.728c.113.166.238.323.375.47a.33.33 0 01.083.352.2.2 0 01-.184.117.354.354 0 01-.269-.165 4.513 4.513 0 00-3.92-2.206 4.073 4.073 0 00-3.659 1.98.327.327 0 00.02.282.206.206 0 00.17.074.253.253 0 00.22-.113l.013-.015c.123-.116.234-.23.332-.329a2.037 2.037 0 011.625-.826c.44.013.879.08 1.303.2l.021.006.013.016c.026.03.054.057.084.083l.009.008c.085.077.181.166.156.272-.025.106-.141.17-.392.236h-.016a4.648 4.648 0 00-4.023 2.12.423.423 0 000 .391.19.19 0 00.167.093.512.512 0 00.316-.153 6.901 6.901 0 012.469-1.72l.063.112a.69.69 0 00-.284.636.09.09 0 00.095.072c.056 0 .183-.032.412-.23l.015-.009a3.309 3.309 0 011.376-.339 2.82 2.82 0 011.73.685c.123.097.254.184.392.26.36.282.512.484.465.62-.027.075-.105.115-.227.115a1.379 1.379 0 01-.543-.15 5.653 5.653 0 00-2.106-.466c-2.703 0-3.482 2.787-3.776 3.836l-.01.037a3.06 3.06 0 01-.088.28.42.42 0 00.017.4.242.242 0 00.2.122.355.355 0 00.272-.185l.33-1.289.08.087c.08.088.167.169.251.169.1 0 .214-.126.332-.374a3.029 3.029 0 012.843-1.761l.348-.038.245-.031-.2.145a11.179 11.179 0 00-3.18 3.343c-.39.998-.38 2.107.027 3.097.049.157.1.32.142.48.094.142.185.217.263.217.077 0 .17-.091.246-.257-.3-3.348 1.278-4.464 2.952-5.646a14.456 14.456 0 001.478-1.14l.012-.012.843-.223.057.112a55.8 55.8 0 01-1.876 1.434 3.433 3.433 0 00-1.304 4.227l.602 2.068c.141.263.235.301.277.301.1 0 .216-.236.258-.326l.086-3.538.1.088a.273.273 0 00.174.082c.082 0 .172-.064.27-.19a3.055 3.055 0 01.765-2.788c.152-.163.286-.34.401-.53l.028-.052.022-.013zm6.377-3.11a5.941 5.941 0 014.413 1.874c-.043-.11-.083-.223-.122-.332l-.01-.027c-.223-.623-.434-1.21-.783-1.21h-.018a.516.516 0 01-.482.32.794.794 0 01-.245-.043 1.02 1.02 0 01-.33-.294 1.925 1.925 0 00-1.02-.715.187.187 0 01-.033.062c-.258.341-2.072.378-2.84.378-.187 0-.373 0-.551-.007l-.014.016c-.052.059-.128.146-.116.182.006.019.043.041.1.058a8.698 8.698 0 012.05-.262h.001z"/><path d="M12.584 12.365l-.112-.061c1.646-3.033 3.842-3.63 5.78-4.157.469-.127.91-.248 1.338-.401l.067.1-1.59 1.642-.092-.09 1.404-1.451c-.353.114-.716.212-1.096.315-1.911.529-4.08 1.119-5.699 4.103z"/><path d="M12.584 12.365l-.112-.061c1.646-3.033 3.842-3.63 5.78-4.157.469-.127.91-.248 1.338-.401l.067.1-1.59 1.642-.092-.09 1.404-1.451c-.353.114-.716.212-1.096.315-1.911.529-4.08 1.119-5.699 4.103z"/><path d="M14.866 10.38l-.1-.075c.248-.355.535-.682.854-.975.158-.146.308-.3.448-.464l.1.083a5.779 5.779 0 01-.458.475 5.92 5.92 0 00-.844.955z"/><path d="M14.866 10.38l-.1-.075c.248-.355.535-.682.854-.975.158-.146.308-.3.448-.464l.1.083a5.779 5.779 0 01-.458.475 5.92 5.92 0 00-.844.955zm7.219 2.906a9.016 9.016 0 00-2.483-5.325l-1.887 3.789-.115-.057 1.97-3.953.063.066a9.156 9.156 0 012.58 5.464l-.128.016z"/><path d="M22.085 13.286a9.016 9.016 0 00-2.483-5.325l-1.887 3.789-.115-.057 1.97-3.953.063.066a9.156 9.156 0 012.58 5.464l-.128.016z"/><path d="M22.4 9.527a1.784 1.784 0 00-1.188-1.384.64.64 0 01.085.095 1.177 1.177 0 01.1.994l-.125-.03a1.064 1.064 0 00-.078-.888c-.235-.318-.78-.354-1.303-.389-.1-.007-.209-.014-.311-.023v-.128h.057c1.687 0 2.659.58 2.89 1.727l-.126.026z"/><path d="M22.4 9.527a1.784 1.784 0 00-1.188-1.384.64.64 0 01.085.095 1.177 1.177 0 01.1.994l-.125-.03a1.064 1.064 0 00-.078-.888c-.235-.318-.78-.354-1.303-.389-.1-.007-.209-.014-.311-.023v-.128h.057c1.687 0 2.659.58 2.89 1.727l-.126.026z"/><path d="M26.812 12.48a9.736 9.736 0 00-7.248-4.608l.01-.128a9.866 9.866 0 017.346 4.666l-.108.07z"/><path d="M26.812 12.48a9.736 9.736 0 00-7.248-4.608l.01-.128a9.866 9.866 0 017.346 4.666l-.108.07z"/><path d="M23.517 9.184l.117-.052.624 1.382-.117.054-.624-1.384z"/><path d="M23.517 9.184l.117-.052.624 1.382-.117.054-.624-1.384zm.972.696l.12-.042.488 1.404-.121.042-.487-1.403z"/><path d="M24.489 9.88l.12-.042.488 1.404-.121.042-.487-1.403zm-12.752-.405l-.093-.088a5.75 5.75 0 014.36-1.682v.128a5.644 5.644 0 00-4.267 1.642z"/><path d="M11.737 9.475l-.093-.088a5.75 5.75 0 014.36-1.682v.128a5.644 5.644 0 00-4.267 1.642zM19.34 7.55l-.057-.064a8.592 8.592 0 00-7.236-3.134v-.128a8.706 8.706 0 017.281 3.114c1.758-2.7 3.923-4.941 7.768-3.264l-.051.117c-3.79-1.653-5.917.602-7.656 3.288l-.05.071z"/><path d="M19.34 7.55l-.057-.064a8.592 8.592 0 00-7.236-3.134v-.128a8.706 8.706 0 017.281 3.114c1.758-2.7 3.923-4.941 7.768-3.264l-.051.117c-3.79-1.653-5.917.602-7.656 3.288l-.05.071z"/><path d="M19.29 7.41c-.541-2.33-1.54-3.867-2.965-4.57a5.786 5.786 0 00-4.745.2l-.054-.117a5.917 5.917 0 014.855-.2 6.027 6.027 0 012.874 4.042l-.244-4.88.129-.006.275 5.516-.126.015z"/><path d="M19.29 7.41c-.541-2.33-1.54-3.867-2.965-4.57a5.786 5.786 0 00-4.745.2l-.054-.117a5.917 5.917 0 014.855-.2 6.027 6.027 0 012.874 4.042l-.244-4.88.129-.006.275 5.516-.126.015z"/><path d="M19.07 2.878l.381-.75.115.058-.382.75-.114-.058z"/><path d="M19.07 2.878l.381-.75.115.058-.382.75-.114-.058zm.069 1.212l.601-.908.108.071-.602.908-.107-.07z"/><path d="M19.139 4.09l.601-.908.108.071-.602.908-.107-.07zm-.051-.847a6.2 6.2 0 00-.937-1.253l.09-.091c.371.383.693.813.956 1.278l-.108.066z"/><path d="M19.088 3.243a6.2 6.2 0 00-.937-1.253l.09-.091c.371.383.693.813.956 1.278l-.108.066zm-.021 4.012a1.955 1.955 0 00-1.443-.33c-.172.006-.35.014-.526 0l.007-.128c.17.01.346 0 .515 0a2.082 2.082 0 011.53.36l-.082.098z"/><path d="M19.067 7.255a1.955 1.955 0 00-1.443-.33c-.172.006-.35.014-.526 0l.007-.128c.17.01.346 0 .515 0a2.082 2.082 0 011.53.36l-.082.098zm-.881-.871a5.214 5.214 0 00-1.976-.179c-.206.008-.419.023-.632.017v-.129c.208 0 .42-.008.628-.016a5.322 5.322 0 012.023.186l-.043.121z"/><path d="M18.186 6.384a5.214 5.214 0 00-1.976-.179c-.206.008-.419.023-.632.017v-.129c.208 0 .42-.008.628-.016a5.322 5.322 0 012.023.186l-.043.121zm-1.003-.738l-.193-.033a6.272 6.272 0 00-2.334-.124l-.028-.125a6.357 6.357 0 012.384.122l.193.034-.022.126z"/><path d="M17.183 5.646l-.193-.033a6.272 6.272 0 00-2.334-.124l-.028-.125a6.357 6.357 0 012.384.122l.193.034-.022.126zm-3.597-1.703l.064-.111 1.091.633-.064.111-1.09-.633z"/><path d="M13.586 3.943l.064-.111 1.091.633-.064.111-1.09-.633zm.692.852l.006-.129 1.286.058-.006.129-1.286-.058z"/><path d="M14.278 4.795l.006-.129 1.286.058-.006.129-1.286-.058zm6.734.577l-.1-.086c.354-.427.631-.911.82-1.432l.026-.059.118.05-.025.06a4.93 4.93 0 01-.84 1.467z"/><path d="M21.012 5.372l-.1-.086c.354-.427.631-.911.82-1.432l.026-.059.118.05-.025.06a4.93 4.93 0 01-.84 1.467zm-.828 1.778l-.076-.101c2.537-1.856 5.02-2.097 7.588-.736l-.06.113c-2.522-1.339-4.959-1.1-7.452.723z"/><path d="M20.184 7.15l-.076-.101c2.537-1.856 5.02-2.097 7.588-.736l-.06.113c-2.522-1.339-4.959-1.1-7.452.723zm.993-4.065l-.114-.06c.58-1.122 1.847-1.596 3.765-1.403l-.011.128c-1.89-.19-3.08.248-3.64 1.335z"/><path d="M21.177 3.085l-.114-.06c.58-1.122 1.847-1.596 3.765-1.403l-.011.128c-1.89-.19-3.08.248-3.64 1.335zm-1.869 2.33l-.117-.053c.2-.45.411-.86.683-.941l.037.122c-.22.07-.418.471-.603.872z"/><path d="M19.308 5.415l-.117-.053c.2-.45.411-.86.683-.941l.037.122c-.22.07-.418.471-.603.872zm10.384 6.227c-1.46-3.6-4.512-5.005-9.067-4.179l-.023-.126c4.625-.839 7.721.593 9.208 4.257l-.118.048z"/><path d="M29.692 11.642c-1.46-3.6-4.512-5.005-9.067-4.179l-.023-.126c4.625-.839 7.721.593 9.208 4.257l-.118.048z"/><path d="M24.173 7.29l.09-.091.994.983-.09.092-.994-.984z"/><path d="M24.173 7.29l.09-.091.994.983-.09.092-.994-.984zm4.952 4.5a9.46 9.46 0 00-2.093-3.509l.1-.081a9.556 9.556 0 012.116 3.559l-.123.032z"/><path d="M29.125 11.79a9.46 9.46 0 00-2.093-3.509l.1-.081a9.556 9.556 0 012.116 3.559l-.123.032zM21 10.887l-.497.33-.027.66h.579l-.552.579v.602l.661.027-.645.601-.014.456.555-.008-.551.578v.602l.661.027-.645.602-.008.756.56.02-.552.578v.602l.661.028-.644.602-.016.455.556-.009-.552.579v.601l.662.027-.644.602.008.562.601-.038-.584.74v.506l.623.04-.584.642v.624l.623.019-.703.779-.02.624h.624l-.623.642v.602l.681-.039-.662.897.02.72-.812-.012-.921-.019.019-.72-.662-.897.682.039v-.602l-.624-.642h.624l-.02-.624-.702-.78.624-.02v-.623l-.585-.643.624-.039v-.506l-.585-.74.602.039.008-.562-.645-.602.66-.027v-.601l-.55-.579.555.008-.015-.455-.646-.602.662-.027v-.602l-.552-.578.56-.02-.008-.756-.645-.602.66-.027v-.602l-.55-.579.555.01-.015-.456-.645-.601.66-.027v-.602l-.55-.579h.579l-.028-.66-.497-.332c.246-.49.554-.947.917-1.358.29-.264.546-.39.903.03.31.425.58.88.802 1.358l.009.002z"/><path d="M21 10.887l-.497.33-.027.66h.579l-.552.579v.602l.661.027-.645.601-.014.456.555-.008-.551.578v.602l.661.027-.645.602-.008.756.56.02-.552.578v.602l.661.028-.644.602-.016.455.556-.009-.552.579v.601l.662.027-.644.602.008.562.601-.038-.584.74v.506l.623.04-.584.642v.624l.623.019-.703.779-.02.624h.624l-.623.642v.602l.681-.039-.662.897.02.72-.812-.012-.921-.019.019-.72-.662-.897.682.039v-.602l-.624-.642h.624l-.02-.624-.702-.78.624-.02v-.623l-.585-.643.624-.039v-.506l-.585-.74.602.039.008-.562-.645-.602.66-.027v-.601l-.55-.579.555.008-.015-.455-.646-.602.662-.027v-.602l-.552-.578.56-.02-.008-.756-.645-.602.66-.027v-.602l-.55-.579.555.01-.015-.456-.645-.601.66-.027v-.602l-.55-.579h.579l-.028-.66-.497-.332c.246-.49.554-.947.917-1.358.29-.264.546-.39.903.03.31.425.58.88.802 1.358l.009.002z"/><path d="M20.62 28.195l-1.862-.032.02-.763-.73-.99.75.043v-.51l-.71-.733h.708l-.016-.534-.779-.864.702-.023v-.536l-.657-.724.697-.043v-.424l-.66-.835.678.043.006-.465-.736-.688.753-.032v-.518l-.64-.671.642.01-.012-.361-.737-.69.753-.032v-.519l-.632-.662.639-.023-.006-.665-.737-.69.753-.03v-.52l-.638-.67.64.01-.011-.363-.737-.689.753-.03v-.52l-.637-.669h.662l-.022-.561-.518-.345.026-.05c.248-.499.561-.962.931-1.377a.79.79 0 01.501-.26.69.69 0 01.502.296c.315.429.587.889.81 1.372l.023.05-.514.344-.023.561h.661l-.636.669v.52l.753.03-.737.69-.012.362.64-.01-.638.67v.52l.753.03-.736.69-.006.666.638.022-.631.663v.519l.753.031-.737.69-.012.362.64-.01-.638.67v.52l.753.03-.735.688.006.465.678-.044-.66.836v.424l.697.044-.658.723v.537l.702.02-.778.866-.017.534h.709l-.711.733v.51l.75-.043-.73.989.02.765h-.016zm-2.307-1.64l.595.801-.018.678 1.604.028-.018-.675.595-.803-.614.035v-.702l.537-.552h-.538l.023-.714.625-.694-.547-.017v-.71l.511-.563-.55-.034v-.59l.509-.644-.526.033-.01-.657.555-.517-.57-.024v-.693l.465-.487-.47.007.017-.548.553-.518-.57-.023v-.693l.47-.494-.479-.016.01-.845.553-.518-.57-.023v-.693l.464-.487-.47.008.017-.55.553-.516-.57-.023v-.687l.466-.489h-.496l.031-.76.477-.319a7.801 7.801 0 00-.77-1.294.571.571 0 00-.4-.25.652.652 0 00-.414.226 5.904 5.904 0 00-.876 1.288l.474.317.032.761h-.495l.465.49v.693l-.57.023.553.517.018.549-.47-.007.463.486v.693l-.57.023.554.518.01.845-.48.017.47.493v.693l-.57.024.553.517.018.548-.47-.007.464.488v.692l-.57.024.554.518-.009.656-.525-.033.509.645v.59l-.55.033.51.564v.71l-.547.017.625.694.023.713H18.4l.536.552v.702l-.614-.034-.008-.007z"/><path d="M20.62 28.195l-1.862-.032.02-.763-.73-.99.75.043v-.51l-.71-.733h.708l-.016-.534-.779-.864.702-.023v-.536l-.657-.724.697-.043v-.424l-.66-.835.678.043.006-.465-.736-.688.753-.032v-.518l-.64-.671.642.01-.012-.361-.737-.69.753-.032v-.519l-.632-.662.639-.023-.006-.665-.737-.69.753-.03v-.52l-.638-.67.64.01-.011-.363-.737-.689.753-.03v-.52l-.637-.669h.662l-.022-.561-.518-.345.026-.05c.248-.499.561-.962.931-1.377a.79.79 0 01.501-.26.69.69 0 01.502.296c.315.429.587.889.81 1.372l.023.05-.514.344-.023.561h.661l-.636.669v.52l.753.03-.737.69-.012.362.64-.01-.638.67v.52l.753.03-.736.69-.006.666.638.022-.631.663v.519l.753.031-.737.69-.012.362.64-.01-.638.67v.52l.753.03-.735.688.006.465.678-.044-.66.836v.424l.697.044-.658.723v.537l.702.02-.778.866-.017.534h.709l-.711.733v.51l.75-.043-.73.989.02.765h-.016zm-2.307-1.64l.595.801-.018.678 1.604.028-.018-.675.595-.803-.614.035v-.702l.537-.552h-.538l.023-.714.625-.694-.547-.017v-.71l.511-.563-.55-.034v-.59l.509-.644-.526.033-.01-.657.555-.517-.57-.024v-.693l.465-.487-.47.007.017-.548.553-.518-.57-.023v-.693l.47-.494-.479-.016.01-.845.553-.518-.57-.023v-.693l.464-.487-.47.008.017-.55.553-.516-.57-.023v-.687l.466-.489h-.496l.031-.76.477-.319a7.801 7.801 0 00-.77-1.294.571.571 0 00-.4-.25.652.652 0 00-.414.226 5.904 5.904 0 00-.876 1.288l.474.317.032.761h-.495l.465.49v.693l-.57.023.553.517.018.549-.47-.007.463.486v.693l-.57.023.554.518.01.845-.48.017.47.493v.693l-.57.024.553.517.018.548-.47-.007.464.488v.692l-.57.024.554.518-.009.656-.525-.033.509.645v.59l-.55.033.51.564v.71l-.547.017.625.694.023.713H18.4l.536.552v.702l-.614-.034-.008-.007z"/><path d="M17.19 29.979h5.516c-.07-1.314.95-2.173 1.704-3.142a5.99 5.99 0 00-2.093 1.763c.082-.37.202-.73.357-1.074-.684.235-.889.847-1.239 1.35.3-.818.43-1.686 1.157-1.929-.729.015-1.169.527-1.704 1.323a2.586 2.586 0 01.937-1.928 2.052 2.052 0 00-1.598 1.873 4.011 4.011 0 01.055-2.039 3.296 3.296 0 00-.882 2.094l-.826-1.873.11 1.983a4.43 4.43 0 00-1.433-1.598l.992 1.763a6.42 6.42 0 00-2.149-.992c.52.482 1.147.923 1.323 1.542a4.558 4.558 0 00-1.818-.55c.6.405 1.28.652 1.591 1.434z"/><path d="M17.19 29.979h5.516c-.07-1.314.95-2.173 1.704-3.142a5.99 5.99 0 00-2.093 1.763c.082-.37.202-.73.357-1.074-.684.235-.889.847-1.239 1.35.3-.818.43-1.686 1.157-1.929-.729.015-1.169.527-1.704 1.323a2.586 2.586 0 01.937-1.928 2.052 2.052 0 00-1.598 1.873 4.011 4.011 0 01.055-2.039 3.296 3.296 0 00-.882 2.094l-.826-1.873.11 1.983a4.43 4.43 0 00-1.433-1.598l.992 1.763a6.42 6.42 0 00-2.149-.992c.52.482 1.147.923 1.323 1.542a4.558 4.558 0 00-1.818-.55c.6.405 1.28.652 1.591 1.434z"/><path d="M22.768 30.043h-5.622l-.016-.04a2.396 2.396 0 00-1.181-1.16 9.127 9.127 0 01-.393-.243l.043-.117a4.53 4.53 0 011.698.485 3.362 3.362 0 00-.946-1.092c-.1-.09-.208-.183-.307-.275l-.165-.153.221.043c.7.168 1.363.461 1.958.866l-.972-1.728.189.1a4.044 4.044 0 011.326 1.423l-.1-1.747.122-.03.742 1.682a3.07 3.07 0 01.869-1.927l.13-.1-.028.166-.01.057-.037.208c-.117.47-.147.958-.09 1.44a2.125 2.125 0 011.604-1.614l.05.116a2.507 2.507 0 00-.893 1.643c.492-.702.937-1.139 1.625-1.154l.022.125c-.561.189-.765.819-.945 1.375a1.86 1.86 0 01.987-.917l.107-.036-.023.11c-.02.097-.054.19-.1.278v.006a2.093 2.093 0 00-.174.45c.38-.463.848-.848 1.376-1.133.21-.13.383-.238.54-.354l.088.09c-.146.188-.3.373-.458.553a3.665 3.665 0 00-1.236 2.546v.066l-.001-.008zm-6.896-1.397l.143.085a2.57 2.57 0 011.218 1.182h5.401a3.875 3.875 0 011.268-2.567l.1-.115.083-.1-.146.091-.04.024c-.62.32-1.146.798-1.526 1.384l-.12-.044a2.71 2.71 0 01.261-.82c.028-.056.046-.095.062-.135a1.99 1.99 0 00-.86.915 5.788 5.788 0 01-.229.364l-.112-.06c.054-.15.1-.3.15-.447a2.65 2.65 0 01.713-1.341c-.48.14-.841.561-1.303 1.241l-.123.18.005-.218a2.763 2.763 0 01.735-1.782 1.99 1.99 0 00-1.267 1.734l-.125.016a3.484 3.484 0 01.006-1.805l.006-.036.009-.046a3.698 3.698 0 00-.723 1.934l-.038.206-.769-1.743.1 1.87-.13-.2a5.445 5.445 0 00-1.204-1.45l.87 1.549-.09.085a6.958 6.958 0 00-1.887-.928l.06.053.06.053c.462.329.821.78 1.037 1.304l.04.143-.131-.069a4.394 4.394 0 00-1.504-.507z"/><path d="M22.768 30.043h-5.622l-.016-.04a2.396 2.396 0 00-1.181-1.16 9.127 9.127 0 01-.393-.243l.043-.117a4.53 4.53 0 011.698.485 3.362 3.362 0 00-.946-1.092c-.1-.09-.208-.183-.307-.275l-.165-.153.221.043c.7.168 1.363.461 1.958.866l-.972-1.728.189.1a4.044 4.044 0 011.326 1.423l-.1-1.747.122-.03.742 1.682a3.07 3.07 0 01.869-1.927l.13-.1-.028.166-.01.057-.037.208c-.117.47-.147.958-.09 1.44a2.125 2.125 0 011.604-1.614l.05.116a2.507 2.507 0 00-.893 1.643c.492-.702.937-1.139 1.625-1.154l.022.125c-.561.189-.765.819-.945 1.375a1.86 1.86 0 01.987-.917l.107-.036-.023.11c-.02.097-.054.19-.1.278v.006a2.093 2.093 0 00-.174.45c.38-.463.848-.848 1.376-1.133.21-.13.383-.238.54-.354l.088.09c-.146.188-.3.373-.458.553a3.665 3.665 0 00-1.236 2.546v.066l-.001-.008zm-6.896-1.397l.143.085a2.57 2.57 0 011.218 1.182h5.401a3.875 3.875 0 011.268-2.567l.1-.115.083-.1-.146.091-.04.024c-.62.32-1.146.798-1.526 1.384l-.12-.044a2.71 2.71 0 01.261-.82c.028-.056.046-.095.062-.135a1.99 1.99 0 00-.86.915 5.788 5.788 0 01-.229.364l-.112-.06c.054-.15.1-.3.15-.447a2.65 2.65 0 01.713-1.341c-.48.14-.841.561-1.303 1.241l-.123.18.005-.218a2.763 2.763 0 01.735-1.782 1.99 1.99 0 00-1.267 1.734l-.125.016a3.484 3.484 0 01.006-1.805l.006-.036.009-.046a3.698 3.698 0 00-.723 1.934l-.038.206-.769-1.743.1 1.87-.13-.2a5.445 5.445 0 00-1.204-1.45l.87 1.549-.09.085a6.958 6.958 0 00-1.887-.928l.06.053.06.053c.462.329.821.78 1.037 1.304l.04.143-.131-.069a4.394 4.394 0 00-1.504-.507z"/></g></svg>