<svg width="40" height="40" fill="none" xmlns="http://www.w3.org/2000/svg"><path opacity=".702" d="M25 0H15C6.716 0 0 6.716 0 15v10c0 8.284 6.716 15 15 15h10c8.284 0 15-6.716 15-15V15c0-8.284-6.716-15-15-15z" fill="#4F5ABF"/><path opacity=".702" d="M25 0H15C6.716 0 0 6.716 0 15v10c0 8.284 6.716 15 15 15h10c8.284 0 15-6.716 15-15V15c0-8.284-6.716-15-15-15z" fill="#4F5ABF"/><path d="M20 12l1.796 5.528h5.813l-4.703 3.416 1.796 5.528L20 23.056l-4.702 3.416 1.796-5.528-4.703-3.416h5.813L20 12z" fill="#fff"/></svg>