<svg width="60" height="36" fill="none" xmlns="http://www.w3.org/2000/svg"><g clip-path="url(#clip0_200_41350)" fill="#fff"><path d="M15.845 1.886s-.841 5.625.876 6.48c.985.49 2.82-.683 3.285-2.705-.072 1.743 1.05 3.187 2.117 3.05a4.299 4.299 0 001.81-1.23 4.265 4.265 0 00.965-1.958c.218 1.526.685 3.27 1.753 3.124a3.91 3.91 0 001.74-1.161c.464-.538.77-1.19.888-1.889.83 1.482.647 3.468 1.715 3.323.667-.092 1.69-1.046 2.155-3.104.865 1.496 1.705 3.253 2.828 3.104.9-.118 2.963-5.078 3.452-8.695L15.845 1.886z"/><path d="M35.122 0H0v.87h35.122V0z"/><path d="M1.314.581S2.752 7.203 3.79 7.115c.36-.03.697-.854.95-2.832.452 1.557 1.097 3.322 1.68 3.272.36-.03.697-.856.95-2.832.455 1.557 1.098 3.32 1.68 3.272.361-.03.698-.854.95-2.832.453 1.558 1.098 3.322 1.68 3.273.365-.03.704-.87.956-2.887.473 1.576 1.152 3.387 1.763 3.34.49-.035 1.617-4.808 1.883-8.38L1.314.582z"/><path d="M3.698 1.25l-.479.039 8.027 34.26.479-.037L3.698 1.25zm13.664.921h-.483l-.056 33.61h.483l.056-33.61z"/><path d="M56.238 34.582H2.244V36h53.994v-1.418zM1.348.442s1.855 6.47 4.407 6.161C6.913 6.463 8.247 4.725 9.6.443H1.35zm12.638 0s1.855 6.47 4.407 6.161c1.158-.14 2.492-1.878 3.845-6.16h-8.252zm12.634 0s1.974 6.47 4.618 6.161c1.202-.14 2.578-1.878 3.954-6.16H26.62z"/><path d="M20.23.151s1.855 6.47 4.407 6.161c1.158-.14 2.492-1.878 3.845-6.16H20.23zm-12.638 0S9.447 6.621 12 6.312c1.158-.14 2.492-1.878 3.844-6.16h-8.25z"/><g opacity=".32"><path opacity=".01" d="M59.984 35.418c0 .092-6.61.164-14.745.164-8.136 0-14.746-.074-14.746-.164 0-.09 6.61-.165 14.746-.165 8.135 0 14.745.074 14.745.165z"/><path opacity=".01" d="M59.964 35.416c0 .09-6.594.164-14.727.164-8.134 0-14.728-.074-14.728-.164 0-.09 6.594-.163 14.727-.163 8.134 0 14.728.074 14.728.163z"/><path opacity=".012" d="M59.948 35.416c0 .09-6.587.164-14.71.164-8.123 0-14.71-.074-14.71-.164 0-.09 6.587-.163 14.71-.163 8.123 0 14.71.074 14.71.163z"/><path opacity=".016" d="M59.93 35.416c0 .09-6.578.164-14.694.164-8.114 0-14.693-.074-14.693-.164 0-.09 6.578-.163 14.694-.163 8.114 0 14.693.074 14.693.163z"/><path opacity=".02" d="M59.914 35.416c0 .09-6.57.164-14.675.164s-14.676-.074-14.676-.164c0-.09 6.57-.163 14.676-.163 8.104 0 14.675.074 14.675.163z"/><path opacity=".024" d="M59.896 35.418c0 .09-6.563.164-14.658.164-8.094 0-14.657-.074-14.657-.164 0-.09 6.563-.163 14.657-.163 8.095 0 14.658.074 14.658.163z"/><path opacity=".027" d="M59.878 35.418c0 .09-6.555.164-14.642.164-8.086 0-14.639-.074-14.639-.164 0-.09 6.554-.163 14.64-.163 8.084 0 14.64.074 14.64.163z"/><path opacity=".031" d="M59.862 35.418c0 .09-6.547.164-14.624.164-8.077 0-14.623-.074-14.623-.164 0-.09 6.546-.163 14.623-.163 8.077 0 14.624.074 14.624.163z"/><path opacity=".035" d="M59.842 35.418c0 .09-6.539.164-14.605.164-8.067 0-14.606-.074-14.606-.164 0-.09 6.539-.163 14.605-.163 8.067 0 14.606.074 14.606.163z"/><path opacity=".039" d="M59.826 35.418c0 .09-6.53.164-14.587.164-8.057 0-14.588-.074-14.588-.164 0-.09 6.53-.163 14.588-.163 8.056 0 14.587.074 14.587.163z"/><path opacity=".043" d="M59.808 35.418c0 .09-6.525.164-14.572.164-8.046 0-14.57-.074-14.57-.164 0-.09 6.524-.163 14.57-.163 8.047 0 14.572.074 14.572.163z"/><path opacity=".047" d="M59.792 35.416c0 .09-6.517.162-14.553.162-8.037 0-14.554-.072-14.554-.162 0-.09 6.517-.161 14.554-.161 8.036 0 14.553.072 14.553.161z"/><path opacity=".051" d="M59.782 35.416c0 .09-6.509.162-14.535.162-8.027 0-14.536-.072-14.536-.162 0-.09 6.509-.161 14.535-.161 8.027 0 14.536.072 14.536.161z"/><path opacity=".055" d="M45.236 35.578c8.018 0 14.518-.073 14.518-.162 0-.089-6.5-.161-14.517-.161-8.018 0-14.518.072-14.518.161 0 .09 6.5.162 14.517.162z"/><path opacity=".059" d="M59.74 35.416c0 .09-6.493.162-14.502.162-8.008 0-14.5-.072-14.5-.162 0-.09 6.492-.161 14.5-.161 8.01 0 14.502.072 14.502.161z"/><path opacity=".063" d="M59.722 35.418c0 .09-6.485.162-14.483.162-8 0-14.484-.072-14.484-.162 0-.09 6.485-.161 14.484-.161 7.998 0 14.483.072 14.483.161z"/><path opacity=".067" d="M59.704 35.418c0 .09-6.477.162-14.465.162-7.99 0-14.466-.072-14.466-.162 0-.09 6.477-.161 14.466-.161 7.988 0 14.465.072 14.465.161z"/><path opacity=".071" d="M59.686 35.418c0 .09-6.469.162-14.45.162-7.98 0-14.449-.072-14.449-.162 0-.09 6.469-.161 14.45-.161 7.98 0 14.449.072 14.449.161z"/><path opacity=".075" d="M45.239 35.58c7.97 0 14.43-.072 14.43-.162 0-.089-6.46-.161-14.43-.161s-14.432.072-14.432.161c0 .09 6.461.162 14.432.162z"/><path opacity=".078" d="M59.654 35.418c0 .09-6.453.162-14.424.162-7.97 0-14.423-.072-14.423-.162 0-.09 6.453-.161 14.423-.161 7.971 0 14.424.072 14.424.161z"/><path opacity=".082" d="M59.633 35.418c0 .088-6.446.162-14.397.162-7.95 0-14.395-.072-14.395-.162 0-.09 6.447-.161 14.395-.161 7.95 0 14.398.072 14.398.161z"/><path opacity=".086" d="M59.615 35.416c0 .088-6.438.16-14.379.16-7.94 0-14.378-.072-14.378-.16 0-.087 6.438-.159 14.378-.159 7.941 0 14.38.072 14.38.16z"/><path opacity=".09" d="M59.6 35.416c0 .088-6.43.16-14.361.16-7.931 0-14.361-.072-14.361-.16 0-.087 6.43-.159 14.36-.159 7.931 0 14.361.072 14.361.16z"/><path opacity=".094" d="M45.236 35.576c7.922 0 14.343-.072 14.343-.16 0-.088-6.421-.159-14.343-.159-7.92 0-14.342.071-14.342.16 0 .087 6.421.159 14.342.159z"/><path opacity=".098" d="M59.563 35.416c0 .088-6.41.16-14.327.16-7.916 0-14.324-.072-14.324-.16 0-.087 6.41-.159 14.325-.159 7.914 0 14.326.072 14.326.16z"/><path opacity=".102" d="M59.547 35.418c0 .088-6.41.16-14.308.16-7.9 0-14.31-.072-14.31-.16 0-.087 6.41-.159 14.31-.159 7.898 0 14.308.072 14.308.16z"/><path opacity=".106" d="M59.525 35.418c0 .088-6.398.16-14.29.16-7.893 0-14.291-.072-14.291-.16 0-.087 6.398-.159 14.29-.159 7.893 0 14.291.072 14.291.16z"/><path opacity=".11" d="M59.511 35.418c0 .088-6.39.16-14.273.16-7.882 0-14.272-.072-14.272-.16 0-.087 6.39-.159 14.273-.159 7.882 0 14.272.072 14.272.16z"/><path opacity=".114" d="M59.493 35.418c0 .088-6.382.16-14.257.16-7.874 0-14.256-.072-14.256-.16 0-.087 6.382-.159 14.256-.159 7.875 0 14.257.072 14.257.16z"/><path opacity=".118" d="M59.477 35.418c0 .088-6.374.16-14.238.16-7.865 0-14.24-.072-14.24-.16 0-.087 6.375-.159 14.24-.159 7.864 0 14.238.072 14.238.16z"/><path opacity=".122" d="M59.457 35.418c0 .088-6.366.16-14.223.16-7.856 0-14.222-.072-14.222-.16 0-.087 6.366-.159 14.222-.159 7.857 0 14.223.072 14.223.16z"/><path opacity=".125" d="M59.441 35.418c0 .088-6.36.158-14.205.158-7.844 0-14.202-.072-14.202-.158 0-.085 6.36-.159 14.203-.159 7.842 0 14.204.072 14.204.16z"/><path opacity=".129" d="M59.425 35.416c0 .088-6.352.158-14.186.158-7.835 0-14.187-.072-14.187-.158 0-.085 6.352-.157 14.187-.157 7.834 0 14.186.072 14.186.157z"/><path opacity=".133" d="M59.4 35.416c0 .088-6.345.158-14.17.158-7.824 0-14.168-.07-14.168-.158 0-.087 6.344-.157 14.168-.157 7.825 0 14.17.07 14.17.157z"/><path opacity=".137" d="M59.39 35.416c0 .088-6.337.158-14.151.158-7.815 0-14.151-.07-14.151-.158 0-.087 6.336-.157 14.15-.157 7.815 0 14.151.072 14.151.157z"/><path opacity=".141" d="M59.371 35.418c0 .088-6.328.158-14.135.158-7.806 0-14.134-.07-14.134-.158 0-.087 6.328-.157 14.134-.157 7.807 0 14.135.07 14.135.157z"/><path opacity=".145" d="M59.355 35.418c0 .088-6.32.158-14.116.158-7.797 0-14.117-.07-14.117-.158 0-.087 6.32-.157 14.117-.157 7.796 0 14.116.07 14.116.157z"/><path opacity=".149" d="M59.335 35.418c0 .088-6.312.158-14.099.158-7.786 0-14.098-.07-14.098-.158 0-.087 6.312-.157 14.098-.157 7.787 0 14.1.07 14.1.157z"/><path opacity=".153" d="M59.319 35.418c0 .086-6.304.158-14.083.158-7.778 0-14.08-.07-14.08-.158 0-.087 6.304-.157 14.08-.157 7.777 0 14.083.07 14.083.157z"/><path opacity=".157" d="M59.3 35.418c0 .086-6.295.158-14.064.158-7.768 0-14.064-.07-14.064-.158 0-.087 6.296-.157 14.064-.157 7.769 0 14.065.07 14.065.157z"/><path opacity=".161" d="M59.285 35.418c0 .086-6.288.158-14.046.158-7.759 0-14.047-.07-14.047-.158 0-.087 6.288-.157 14.047-.157 7.758 0 14.046.07 14.046.157z"/><path opacity=".165" d="M45.236 35.572c7.748 0 14.029-.07 14.029-.156 0-.085-6.28-.155-14.029-.155-7.747 0-14.028.07-14.028.155 0 .086 6.28.156 14.029.156z"/><path opacity=".169" d="M59.249 35.424c0 .086-6.274.156-14.013.156-7.738 0-14.012-.07-14.012-.156 0-.085 6.274-.155 14.012-.155 7.739 0 14.013.062 14.013.155z"/><path opacity=".173" d="M59.233 35.422c0 .086-6.266.156-13.994.156-7.729 0-13.995-.07-13.995-.156 0-.085 6.266-.155 13.995-.155 7.728 0 13.994.064 13.994.155z"/><path opacity=".176" d="M59.213 35.42c0 .086-6.258.156-13.977.156-7.718 0-13.968-.074-13.968-.156 0-.081 6.258-.155 13.977-.155 7.718 0 13.968.066 13.968.155z"/><path opacity=".18" d="M59.197 35.418c0 .086-6.25.156-13.959.156-7.708 0-13.958-.07-13.958-.156 0-.085 6.25-.155 13.959-.155 7.708 0 13.958.07 13.958.155z"/><path opacity=".184" d="M45.239 35.574c7.7 0 13.942-.07 13.942-.156 0-.085-6.242-.155-13.942-.155s-13.943.07-13.943.155c0 .086 6.242.156 13.943.156z"/><path opacity=".188" d="M59.163 35.414c0 .086-6.234.156-13.924.156-7.69 0-13.925-.07-13.925-.156 0-.085 6.234-.155 13.925-.155 7.69 0 13.924.074 13.924.155z"/><path opacity=".192" d="M59.145 35.412c0 .086-6.226.156-13.907.156-7.68 0-13.906-.07-13.906-.156 0-.085 6.226-.155 13.907-.155 7.68 0 13.906.076 13.906.155z"/><path opacity=".196" d="M59.127 35.41c0 .086-6.21.156-13.89.156-7.68 0-13.889-.07-13.889-.156 0-.085 6.21-.155 13.889-.155 7.678 0 13.89.078 13.89.155z"/><path opacity=".2" d="M59.11 35.408c0 .086-6.21.156-13.871.156-7.663 0-13.873-.07-13.873-.156 0-.085 6.21-.155 13.873-.155 7.662 0 13.872.08 13.872.155z"/><path opacity=".204" d="M45.236 35.574c7.652 0 13.855-.07 13.855-.156 0-.085-6.203-.155-13.855-.155-7.651 0-13.854.07-13.854.155 0 .086 6.203.156 13.854.156z"/><path opacity=".208" d="M59.075 35.416c0 .086-6.196.154-13.837.154-7.64 0-13.836-.07-13.836-.154 0-.083 6.196-.153 13.837-.153 7.64 0 13.836.07 13.836.153z"/><path opacity=".212" d="M59.057 35.416c0 .086-6.188.154-13.823.154-7.634 0-13.822-.07-13.822-.154 0-.083 6.188-.153 13.822-.153 7.635 0 13.823.07 13.823.153z"/><path opacity=".216" d="M59.04 35.416c0 .086-6.18.154-13.801.154-7.623 0-13.803-.07-13.803-.154 0-.083 6.18-.153 13.803-.153 7.622 0 13.802.07 13.802.153z"/><path opacity=".22" d="M59.026 35.416c0 .086-6.171.154-13.784.154-7.612 0-13.784-.07-13.784-.154 0-.083 6.172-.153 13.785-.153 7.612 0 13.783.07 13.783.153z"/><path opacity=".224" d="M45.236 35.572c7.603 0 13.767-.069 13.767-.154 0-.084-6.164-.153-13.767-.153-7.602 0-13.765.069-13.765.153 0 .085 6.163.154 13.765.154z"/><path opacity=".227" d="M58.989 35.418c0 .084-6.156.154-13.75.154-7.595 0-13.75-.068-13.75-.154 0-.085 6.155-.153 13.75-.153 7.594 0 13.75.068 13.75.153z"/><path opacity=".231" d="M58.97 35.418c0 .084-6.147.154-13.732.154-7.584 0-13.732-.068-13.732-.154 0-.085 6.148-.153 13.732-.153 7.585 0 13.732.068 13.732.153z"/><path opacity=".235" d="M58.952 35.418c0 .084-6.14.154-13.713.154-7.575 0-13.714-.068-13.714-.154 0-.085 6.14-.153 13.714-.153 7.574 0 13.713.068 13.713.153z"/><path opacity=".239" d="M58.934 35.418c0 .084-6.131.154-13.697.154-7.567 0-13.698-.068-13.698-.154 0-.085 6.131-.153 13.697-.153 7.567 0 13.698.068 13.698.153z"/><path opacity=".243" d="M45.239 35.572c7.555 0 13.68-.069 13.68-.154 0-.084-6.125-.153-13.68-.153-7.556 0-13.68.069-13.68.153 0 .085 6.124.154 13.68.154z"/><path opacity=".247" d="M58.898 35.416c0 .084-6.116.152-13.662.152-7.546 0-13.661-.068-13.661-.152 0-.083 6.117-.151 13.661-.151 7.545 0 13.662.068 13.662.151z"/><path opacity=".251" d="M58.882 35.416c0 .084-6.11.152-13.645.152-7.537 0-13.644-.068-13.644-.152 0-.083 6.11-.151 13.643-.151 7.535 0 13.646.068 13.646.151z"/><path opacity=".255" d="M45.239 35.568c7.526 0 13.627-.068 13.627-.152 0-.083-6.101-.151-13.627-.151-7.527 0-13.628.068-13.628.151 0 .084 6.101.152 13.628.152z"/><path opacity=".259" d="M58.848 35.416c0 .084-6.093.152-13.61.152-7.516 0-13.61-.068-13.61-.152 0-.083 6.094-.151 13.61-.151 7.517 0 13.61.068 13.61.151z"/><path opacity=".263" d="M45.236 35.57c7.507 0 13.592-.068 13.592-.152 0-.083-6.085-.151-13.592-.151-7.506 0-13.591.068-13.591.151 0 .084 6.085.152 13.591.152z"/><path opacity=".267" d="M58.812 35.418c0 .084-6.078.152-13.576.152s-13.573-.068-13.573-.152c0-.083 6.077-.151 13.573-.151s13.576.068 13.576.151z"/><path opacity=".271" d="M58.796 35.418c0 .084-6.07.152-13.557.152-7.488 0-13.558-.068-13.558-.152 0-.083 6.07-.151 13.558-.151 7.488 0 13.557.068 13.557.151z"/><path opacity=".275" d="M45.236 35.57c7.478 0 13.54-.068 13.54-.152 0-.083-6.062-.151-13.54-.151-7.477 0-13.54.068-13.54.151 0 .084 6.063.152 13.54.152z"/><path opacity=".278" d="M58.76 35.418c0 .084-6.054.152-13.521.152-7.468 0-13.522-.068-13.522-.152 0-.083 6.053-.151 13.522-.151 7.467 0 13.521.068 13.521.151z"/><path opacity=".282" d="M45.239 35.57c7.458 0 13.505-.068 13.505-.152 0-.083-6.047-.151-13.505-.151-7.46 0-13.506.068-13.506.151 0 .084 6.046.152 13.506.152z"/><path opacity=".286" d="M58.726 35.416c0 .084-6.038.15-13.488.15-7.45 0-13.487-.068-13.487-.15 0-.081 6.037-.149 13.487-.149s13.488.068 13.488.15z"/><path opacity=".29" d="M58.706 35.416c0 .084-6.03.15-13.47.15s-13.467-.066-13.467-.15c0-.083 6.032-.149 13.47-.149 7.437 0 13.467.068 13.467.15z"/><path opacity=".294" d="M45.238 35.566c7.43 0 13.454-.067 13.454-.15 0-.082-6.023-.149-13.454-.149-7.43 0-13.453.067-13.453.15 0 .082 6.023.149 13.453.149z"/><path opacity=".298" d="M58.674 35.416c0 .084-6.01.15-13.435.15-7.426 0-13.436-.068-13.436-.15 0-.081 6.01-.149 13.436-.149 7.425 0 13.435.068 13.435.15z"/><path opacity=".302" d="M58.656 35.418c0 .082-6.01.15-13.422.15-7.411 0-13.421-.068-13.421-.15 0-.081 6.01-.149 13.421-.149 7.412 0 13.422.068 13.422.15z"/><path opacity=".306" d="M58.638 35.418c0 .082-6 .15-13.4.15s-13.399-.068-13.399-.15c0-.081 6-.149 13.4-.149s13.399.068 13.399.15z"/><path opacity=".31" d="M58.62 35.418c0 .082-5.992.15-13.384.15-7.391 0-13.383-.068-13.383-.15 0-.081 5.992-.149 13.383-.149 7.392 0 13.384.068 13.384.15z"/><path opacity=".314" d="M45.239 35.568c7.381 0 13.365-.067 13.365-.15 0-.082-5.984-.149-13.365-.149-7.382 0-13.366.067-13.366.15 0 .082 5.984.149 13.366.149z"/><path opacity=".318" d="M58.584 35.418c0 .082-5.976.15-13.348.15-7.371 0-13.347-.066-13.347-.15 0-.083 5.976-.149 13.348-.149 7.371 0 13.347.076 13.347.15z"/><path opacity=".322" d="M58.568 35.418c0 .082-5.968.15-13.331.15-7.364 0-13.33-.066-13.33-.15 0-.083 5.968-.149 13.33-.149 7.361 0 13.33.074 13.33.15z"/><path opacity=".325" d="M58.55 35.418c0 .082-5.96.148-13.313.148-7.354 0-13.314-.066-13.314-.148 0-.081 5.96-.149 13.314-.149 7.353 0 13.313.072 13.313.15z"/><path opacity=".329" d="M58.534 35.416c0 .082-5.952.148-13.295.148-7.344 0-13.296-.066-13.296-.148 0-.081 5.952-.147 13.296-.147 7.343 0 13.295.068 13.295.147z"/><path opacity=".333" d="M45.236 35.564c7.333 0 13.278-.066 13.278-.148 0-.081-5.945-.147-13.278-.147-7.332 0-13.277.066-13.277.147 0 .082 5.945.148 13.277.148z"/><path opacity=".337" d="M58.498 35.416c0 .082-5.938.148-13.262.148-7.323 0-13.26-.066-13.26-.148 0-.081 5.937-.147 13.26-.147 7.324 0 13.262.064 13.262.147z"/><path opacity=".341" d="M58.482 35.416c0 .082-5.93.148-13.243.148-7.314 0-13.244-.066-13.244-.148 0-.081 5.93-.147 13.244-.147 7.313 0 13.243.062 13.243.147z"/><path opacity=".345" d="M58.462 35.418c0 .082-5.922.148-13.222.148s-13.22-.066-13.22-.148c0-.081 5.92-.147 13.22-.147 7.3 0 13.222.06 13.222.147z"/><path opacity=".349" d="M58.446 35.418c0 .082-5.914.148-13.208.148-7.293 0-13.207-.066-13.207-.148 0-.081 5.914-.147 13.207-.147 7.294 0 13.208.058 13.208.147z"/><path opacity=".353" d="M45.239 35.566c7.285 0 13.19-.066 13.19-.148 0-.081-5.905-.147-13.19-.147-7.286 0-13.192.066-13.192.147 0 .082 5.906.148 13.192.148z"/><path opacity=".357" d="M58.411 35.418c0 .082-5.897.148-13.173.148-7.275 0-13.173-.066-13.173-.148 0-.081 5.898-.147 13.173-.147 7.276 0 13.173.066 13.173.147z"/><path opacity=".361" d="M58.398 35.418c0 .082-5.89.148-13.156.148-7.265 0-13.155-.066-13.155-.148 0-.081 5.89-.147 13.155-.147 7.266 0 13.156.066 13.156.147z"/><path opacity=".365" d="M45.239 35.566c7.256 0 13.139-.066 13.139-.148 0-.081-5.883-.147-13.14-.147-7.256 0-13.139.066-13.139.147 0 .082 5.883.148 13.14.148z"/><path opacity=".369" d="M58.36 35.416c0 .082-5.876.146-13.121.146-7.246 0-13.121-.066-13.121-.146 0-.08 5.873-.145 13.12-.145 7.248 0 13.121.066 13.121.145z"/><path opacity=".373" d="M45.236 35.562c7.237 0 13.103-.065 13.103-.146 0-.08-5.866-.145-13.103-.145-7.236 0-13.102.065-13.102.145 0 .08 5.866.146 13.102.146z"/><path opacity=".376" d="M58.323 35.416c0 .08-5.859.146-13.085.146-7.225 0-13.084-.066-13.084-.146 0-.08 5.859-.145 13.084-.145 7.226 0 13.085.066 13.085.145z"/><path opacity=".38" d="M58.305 35.418c0 .08-5.851.146-13.069.146-7.217 0-13.069-.066-13.069-.146 0-.08 5.852-.145 13.07-.145 7.217 0 13.068.066 13.068.145z"/><path opacity=".384" d="M45.238 35.564c7.208 0 13.051-.065 13.051-.146 0-.08-5.843-.145-13.05-.145-7.208 0-13.051.065-13.051.145 0 .08 5.843.146 13.05.146z"/><path opacity=".388" d="M58.271 35.418c0 .08-5.835.146-13.032.146-7.198 0-13.033-.066-13.033-.146 0-.08 5.835-.145 13.032-.145 7.198 0 13.033.066 13.033.145z"/><path opacity=".392" d="M45.238 35.564c7.19 0 13.017-.065 13.017-.146 0-.08-5.828-.145-13.017-.145-7.188 0-13.016.065-13.016.145 0 .08 5.828.146 13.016.146z"/><path opacity=".396" d="M58.237 35.418c0 .08-5.819.146-12.998.146-7.18 0-13-.066-13-.146 0-.08 5.82-.145 13-.145 7.179 0 12.998.066 12.998.145z"/><path opacity=".4" d="M58.22 35.418c0 .08-5.81.146-12.981.146-7.172 0-12.981-.066-12.981-.146 0-.08 5.809-.145 12.98-.145 7.172 0 12.981.066 12.981.145z"/><path opacity=".404" d="M45.236 35.564c7.16 0 12.963-.065 12.963-.146 0-.08-5.803-.145-12.962-.145-7.16 0-12.963.065-12.963.145 0 .08 5.803.146 12.962.146z"/><path opacity=".408" d="M58.183 35.416c0 .08-5.795.144-12.947.144-7.151 0-12.946-.064-12.946-.144 0-.08 5.795-.143 12.947-.143 7.15 0 12.946.064 12.946.143z"/><path opacity=".412" d="M45.238 35.56c7.14 0 12.93-.064 12.93-.144 0-.079-5.79-.143-12.93-.143s-12.928.064-12.928.143c0 .08 5.788.144 12.928.144z"/><path opacity=".416" d="M58.143 35.416c0 .08-5.781.144-12.91.144-7.13 0-12.911-.064-12.911-.144 0-.08 5.781-.143 12.91-.143 7.13 0 12.911.064 12.911.143z"/><path opacity=".42" d="M58.131 35.416c0 .08-5.773.144-12.895.144-7.121 0-12.892-.064-12.892-.144 0-.08 5.773-.143 12.892-.143 7.12 0 12.895.064 12.895.143z"/><path opacity=".424" d="M45.239 35.562c7.111 0 12.876-.064 12.876-.144 0-.079-5.765-.143-12.877-.143-7.111 0-12.876.064-12.876.143 0 .08 5.765.144 12.877.144z"/><path opacity=".427" d="M58.097 35.418c0 .08-5.757.144-12.858.144-7.102 0-12.86-.064-12.86-.144 0-.08 5.758-.143 12.86-.143 7.1 0 12.858.064 12.858.143z"/><path opacity=".431" d="M45.236 35.562c7.092 0 12.841-.064 12.841-.144 0-.079-5.749-.143-12.84-.143-7.092 0-12.841.064-12.841.143 0 .08 5.749.144 12.84.144z"/><path opacity=".435" d="M58.061 35.418c0 .08-5.741.144-12.82.144-7.08 0-12.821-.064-12.821-.144 0-.08 5.741-.143 12.82-.143 7.08 0 12.821.064 12.821.143z"/><path opacity=".439" d="M58.045 35.418c0 .08-5.733.144-12.807.144-7.073 0-12.806-.064-12.806-.144 0-.08 5.733-.143 12.806-.143 7.074 0 12.807.064 12.807.143z"/><path opacity=".443" d="M45.236 35.562c7.063 0 12.789-.064 12.789-.144 0-.079-5.726-.143-12.788-.143-7.063 0-12.789.064-12.789.143 0 .08 5.726.144 12.788.144z"/><path opacity=".447" d="M58.009 35.418c0 .078-5.717.142-12.77.142-7.054 0-12.771-.064-12.771-.142 0-.077 5.717-.143 12.77-.143 7.054 0 12.77.064 12.77.143z"/><path opacity=".451" d="M45.239 35.558c7.044 0 12.754-.063 12.754-.142 0-.078-5.71-.141-12.755-.141-7.044 0-12.754.063-12.754.141 0 .079 5.71.142 12.755.142z"/><path opacity=".455" d="M45.239 35.558c7.034 0 12.736-.063 12.736-.142 0-.078-5.702-.141-12.736-.141-7.035 0-12.737.063-12.737.141 0 .079 5.702.142 12.736.142z"/><path opacity=".459" d="M57.955 35.416c0 .078-5.695.142-12.718.142-7.024 0-12.719-.064-12.719-.142 0-.077 5.695-.141 12.718-.141 7.024 0 12.719.064 12.719.141z"/><path opacity=".463" d="M45.239 35.56c7.015 0 12.702-.064 12.702-.142 0-.078-5.687-.141-12.703-.141-7.015 0-12.702.063-12.702.141 0 .078 5.687.142 12.703.142z"/><path opacity=".467" d="M57.923 35.418c0 .078-5.68.142-12.685.142-7.005 0-12.684-.064-12.684-.142 0-.077 5.68-.141 12.684-.141 7.006 0 12.685.064 12.685.141z"/><path opacity=".471" d="M45.236 35.56c6.996 0 12.667-.064 12.667-.142 0-.078-5.671-.141-12.666-.141-6.996 0-12.667.063-12.667.141 0 .078 5.671.142 12.666.142z"/><path opacity=".475" d="M45.236 35.56c6.986 0 12.649-.064 12.649-.142 0-.078-5.663-.141-12.648-.141-6.986 0-12.649.063-12.649.141 0 .078 5.663.142 12.648.142z"/><path opacity=".478" d="M57.869 35.418c0 .078-5.655.142-12.633.142-6.977 0-12.632-.064-12.632-.142 0-.077 5.655-.141 12.633-.141 6.977 0 12.632.064 12.632.141z"/><path opacity=".482" d="M45.239 35.56c6.966 0 12.614-.064 12.614-.142 0-.078-5.648-.141-12.614-.141-6.967 0-12.615.063-12.615.141 0 .078 5.648.142 12.614.142z"/><path opacity=".486" d="M57.833 35.416c0 .078-5.64.14-12.596.14-6.958 0-12.597-.064-12.597-.14 0-.075 5.64-.14 12.596-.14 6.958 0 12.597.065 12.597.14z"/><path opacity=".49" d="M45.236 35.556c6.947 0 12.579-.063 12.579-.14 0-.077-5.632-.14-12.578-.14-6.947 0-12.579.063-12.579.14 0 .077 5.632.14 12.578.14z"/><path opacity=".494" d="M45.239 35.556c6.937 0 12.562-.063 12.562-.14 0-.077-5.625-.14-12.563-.14-6.937 0-12.562.063-12.562.14 0 .077 5.625.14 12.563.14z"/><path opacity=".498" d="M57.78 35.416c0 .078-5.608.14-12.544.14-6.935 0-12.544-.062-12.544-.14 0-.077 5.61-.14 12.544-.14 6.936 0 12.545.065 12.545.14z"/><path opacity=".502" d="M45.236 35.558c6.918 0 12.527-.063 12.527-.14 0-.077-5.609-.14-12.526-.14-6.919 0-12.527.063-12.527.14 0 .077 5.608.14 12.526.14z"/><path opacity=".506" d="M57.746 35.418c0 .078-5.608.14-12.51.14-6.9 0-12.51-.062-12.51-.14 0-.077 5.61-.14 12.51-.14 6.902 0 12.51.063 12.51.14z"/><path opacity=".51" d="M57.73 35.418c0 .078-5.592.14-12.492.14-6.899 0-12.492-.062-12.492-.14 0-.077 5.593-.14 12.492-.14 6.9 0 12.492.063 12.492.14z"/><path opacity=".514" d="M45.236 35.558c6.89 0 12.474-.063 12.474-.14 0-.077-5.584-.14-12.474-.14-6.889 0-12.473.063-12.473.14 0 .077 5.584.14 12.474.14z"/><path opacity=".518" d="M57.694 35.418c0 .076-5.577.14-12.456.14s-12.465-.064-12.465-.14c0-.075 5.576-.14 12.455-.14 6.88 0 12.466.063 12.466.14z"/><path opacity=".522" d="M45.239 35.558c6.87 0 12.44-.063 12.44-.14 0-.077-5.57-.14-12.44-.14-6.87 0-12.44.063-12.44.14 0 .077 5.57.14 12.44.14z"/><path opacity=".525" d="M57.66 35.418c0 .076-5.56.138-12.42.138-6.858 0-12.42-.062-12.42-.138 0-.075 5.562-.137 12.42-.137 6.86 0 12.42.06 12.42.137z"/><path opacity=".529" d="M57.642 35.416c0 .076-5.553.138-12.404.138-6.85 0-12.403-.062-12.403-.138 0-.075 5.553-.137 12.403-.137 6.851 0 12.404.062 12.404.137z"/><path opacity=".533" d="M45.239 35.554c6.841 0 12.387-.062 12.387-.138 0-.075-5.546-.137-12.387-.137-6.842 0-12.388.061-12.388.137 0 .076 5.546.138 12.388.138z"/><path opacity=".537" d="M57.608 35.424c0 .076-5.539.138-12.37.138-6.83 0-12.37-.062-12.37-.138 0-.075 5.54-.137 12.37-.137 6.831 0 12.37.054 12.37.137z"/><path opacity=".541" d="M45.236 35.554c6.822 0 12.352-.062 12.352-.138 0-.075-5.53-.137-12.352-.137-6.821 0-12.351.061-12.351.137 0 .076 5.53.138 12.352.138z"/><path opacity=".545" d="M57.572 35.422c0 .076-5.523.138-12.334.138-6.81 0-12.333-.062-12.333-.138 0-.075 5.523-.137 12.334-.137 6.81 0 12.333.058 12.333.137z"/><path opacity=".549" d="M57.554 35.418c0 .076-5.515.138-12.318.138-6.802 0-12.317-.062-12.317-.138 0-.075 5.515-.137 12.318-.137 6.802 0 12.317.062 12.317.137z"/><path opacity=".553" d="M45.239 35.556c6.792 0 12.3-.062 12.3-.138 0-.076-5.508-.137-12.3-.137-6.793 0-12.3.061-12.3.137 0 .076 5.507.138 12.3.138z"/><path opacity=".557" d="M57.516 35.414c0 .076-5.499.138-12.282.138-6.782 0-12.281-.062-12.281-.138 0-.075 5.499-.137 12.281-.137 6.783 0 12.282.066 12.282.137z"/><path opacity=".561" d="M45.239 35.556c6.774 0 12.265-.062 12.265-.138 0-.076-5.491-.137-12.265-.137-6.775 0-12.266.061-12.266.137 0 .076 5.491.138 12.266.138z"/><path opacity=".565" d="M45.238 35.556c6.765 0 12.248-.062 12.248-.138 0-.076-5.483-.137-12.248-.137-6.764 0-12.247.061-12.247.137 0 .076 5.483.138 12.247.138z"/><path opacity=".569" d="M57.466 35.408c0 .076-5.475.136-12.23.136-6.754 0-12.23-.062-12.23-.136 0-.073 5.476-.135 12.23-.135 6.755 0 12.23.07 12.23.135z"/><path opacity=".573" d="M45.236 35.552c6.745 0 12.212-.06 12.212-.136 0-.074-5.467-.135-12.212-.135-6.744 0-12.211.06-12.211.135 0 .075 5.467.136 12.211.136z"/><path opacity=".576" d="M57.432 35.416c0 .076-5.46.136-12.196.136-6.734 0-12.195-.062-12.195-.136 0-.073 5.46-.135 12.196-.135 6.734 0 12.195.062 12.195.135z"/><path opacity=".58" d="M45.239 35.552c6.725 0 12.177-.06 12.177-.136 0-.074-5.452-.135-12.177-.135-6.726 0-12.178.06-12.178.135 0 .075 5.452.136 12.178.136z"/><path opacity=".584" d="M45.236 35.554c6.716 0 12.16-.06 12.16-.136 0-.074-5.444-.135-12.16-.135-6.715 0-12.159.06-12.159.135 0 .075 5.444.136 12.16.136z"/><path opacity=".588" d="M57.38 35.418c0 .074-5.437.136-12.142.136-6.704 0-12.141-.06-12.141-.136 0-.075 5.437-.135 12.142-.135 6.704 0 12.14.06 12.14.135z"/><path opacity=".592" d="M45.238 35.554c6.697 0 12.126-.06 12.126-.136 0-.074-5.429-.135-12.126-.135-6.696 0-12.125.06-12.125.135 0 .075 5.429.136 12.125.136z"/><path opacity=".596" d="M57.346 35.418c0 .074-5.42.136-12.107.136-6.687 0-12.108-.06-12.108-.136 0-.075 5.42-.135 12.108-.135 6.686 0 12.107.06 12.107.135z"/><path opacity=".6" d="M45.236 35.554c6.677 0 12.09-.06 12.09-.136 0-.074-5.413-.135-12.09-.135-6.676 0-12.089.06-12.089.135 0 .075 5.413.136 12.09.136z"/><path opacity=".604" d="M45.239 35.554c6.667 0 12.073-.06 12.073-.136 0-.074-5.406-.135-12.073-.135-6.668 0-12.074.06-12.074.135 0 .075 5.406.136 12.074.136z"/><path opacity=".608" d="M57.294 35.416c0 .074-5.397.134-12.055.134-6.66 0-12.056-.06-12.056-.134 0-.073 5.397-.133 12.056-.133 6.658 0 12.055.06 12.055.133z"/><path opacity=".612" d="M45.236 35.55c6.649 0 12.038-.06 12.038-.134 0-.073-5.39-.133-12.038-.133-6.647 0-12.037.06-12.037.133 0 .074 5.39.134 12.038.134z"/><path opacity=".616" d="M57.258 35.416c0 .074-5.38.134-12.02.134-6.638 0-12.019-.06-12.019-.134 0-.073 5.383-.133 12.02-.133 6.636 0 12.019.06 12.019.133z"/><path opacity=".62" d="M45.239 35.55c6.629 0 12.003-.06 12.003-.134 0-.073-5.374-.133-12.003-.133-6.63 0-12.004.06-12.004.133 0 .074 5.374.134 12.004.134z"/><path opacity=".624" d="M45.239 35.552c6.619 0 11.985-.06 11.985-.134 0-.073-5.366-.133-11.985-.133-6.62 0-11.986.06-11.986.133 0 .074 5.366.134 11.986.134z"/><path opacity=".627" d="M57.206 35.418c0 .074-5.359.134-11.968.134-6.608 0-11.967-.06-11.967-.134 0-.073 5.359-.133 11.967-.133 6.609 0 11.968.06 11.968.133z"/><path opacity=".631" d="M45.239 35.552c6.6 0 11.95-.06 11.95-.134 0-.073-5.35-.133-11.95-.133s-11.952.06-11.952.133c0 .074 5.351.134 11.952.134z"/><path opacity=".635" d="M57.172 35.418c0 .074-5.343.134-11.933.134-6.591 0-11.934-.06-11.934-.134 0-.073 5.343-.133 11.934-.133 6.59 0 11.933.06 11.933.133z"/><path opacity=".639" d="M45.236 35.552c6.581 0 11.916-.06 11.916-.134 0-.073-5.335-.133-11.916-.133-6.58 0-11.915.06-11.915.133 0 .074 5.335.134 11.916.134z"/><path opacity=".643" d="M45.236 35.552c6.571 0 11.898-.06 11.898-.134 0-.073-5.327-.133-11.898-.133-6.57 0-11.897.06-11.897.133 0 .074 5.327.134 11.898.134z"/><path opacity=".647" d="M57.117 35.416c0 .074-5.318.132-11.88.132-6.563 0-11.882-.06-11.882-.132 0-.071 5.319-.131 11.882-.131 6.562 0 11.88.06 11.88.131z"/><path opacity=".651" d="M45.239 35.548c6.551 0 11.862-.059 11.862-.132 0-.072-5.31-.131-11.862-.131-6.552 0-11.863.059-11.863.131 0 .073 5.31.132 11.863.132z"/><path opacity=".655" d="M45.236 35.548c6.542 0 11.845-.059 11.845-.132 0-.072-5.303-.131-11.845-.131-6.541 0-11.844.059-11.844.131 0 .073 5.303.132 11.844.132z"/><path opacity=".659" d="M45.239 35.548c6.532 0 11.828-.059 11.828-.132 0-.072-5.296-.131-11.828-.131-6.533 0-11.83.059-11.83.131 0 .073 5.297.132 11.83.132z"/><path opacity=".663" d="M45.238 35.55c6.523 0 11.811-.059 11.811-.132 0-.072-5.288-.131-11.81-.131-6.523 0-11.811.059-11.811.131 0 .073 5.288.132 11.81.132z"/><path opacity=".667" d="M57.031 35.418c0 .072-5.28.132-11.792.132-6.513 0-11.793-.058-11.793-.132 0-.073 5.28-.131 11.793-.131 6.512 0 11.792.06 11.792.131z"/><path opacity=".671" d="M45.236 35.55c6.504 0 11.775-.059 11.775-.132 0-.072-5.272-.131-11.775-.131s-11.774.059-11.774.131c0 .073 5.271.132 11.774.132z"/><path opacity=".675" d="M45.239 35.55c6.494 0 11.758-.059 11.758-.132 0-.072-5.264-.131-11.758-.131-6.495 0-11.76.059-11.76.131 0 .073 5.265.132 11.76.132z"/><path opacity=".678" d="M45.239 35.55c6.484 0 11.74-.059 11.74-.132 0-.072-5.256-.131-11.74-.131-6.485 0-11.741.059-11.741.131 0 .073 5.256.132 11.74.132z"/><path opacity=".682" d="M45.236 35.55c6.475 0 11.723-.059 11.723-.132 0-.072-5.248-.131-11.723-.131-6.474 0-11.722.059-11.722.131 0 .073 5.248.132 11.722.132z"/><path opacity=".686" d="M56.943 35.418c0 .072-5.24.132-11.706.132-6.467 0-11.705-.058-11.705-.132 0-.073 5.24-.131 11.705-.131 6.464 0 11.706.058 11.706.131z"/><path opacity=".69" d="M45.238 35.546c6.456 0 11.69-.058 11.69-.13 0-.071-5.234-.13-11.69-.13-6.455 0-11.688.059-11.688.13 0 .072 5.233.13 11.688.13z"/><path opacity=".694" d="M45.239 35.546c6.445 0 11.67-.058 11.67-.13 0-.071-5.225-.13-11.67-.13-6.446 0-11.671.059-11.671.13 0 .072 5.225.13 11.67.13z"/><path opacity=".698" d="M45.236 35.546c6.436 0 11.653-.058 11.653-.13 0-.071-5.217-.13-11.653-.13-6.435 0-11.652.059-11.652.13 0 .072 5.217.13 11.652.13z"/><path opacity=".702" d="M45.239 35.548c6.426 0 11.636-.058 11.636-.13 0-.071-5.21-.13-11.636-.13-6.427 0-11.637.059-11.637.13 0 .072 5.21.13 11.637.13z"/><path opacity=".706" d="M56.857 35.418c0 .072-5.208.13-11.618.13s-11.62-.058-11.62-.13c0-.071 5.21-.13 11.62-.13 6.41 0 11.618.059 11.618.13z"/><path opacity=".71" d="M45.236 35.548c6.407 0 11.601-.058 11.601-.13 0-.071-5.194-.13-11.6-.13-6.407 0-11.601.059-11.601.13 0 .072 5.194.13 11.6.13z"/><path opacity=".714" d="M45.236 35.548c6.397 0 11.583-.058 11.583-.13 0-.071-5.186-.13-11.583-.13-6.396 0-11.582.059-11.582.13 0 .072 5.186.13 11.582.13z"/><path opacity=".718" d="M56.803 35.418c0 .072-5.178.13-11.567.13-6.388 0-11.566-.058-11.566-.13 0-.071 5.178-.13 11.566-.13 6.389 0 11.567.059 11.567.13z"/><path opacity=".722" d="M45.239 35.548c6.378 0 11.548-.058 11.548-.13 0-.071-5.17-.13-11.548-.13-6.379 0-11.549.059-11.549.13 0 .072 5.17.13 11.549.13z"/><path opacity=".725" d="M56.759 35.418c0 .072-5.162.13-11.53.13-6.369 0-11.531-.058-11.531-.13 0-.071 5.162-.13 11.53-.13 6.369 0 11.53.059 11.53.13z"/><path opacity=".729" d="M45.239 35.544c6.359 0 11.514-.057 11.514-.128 0-.07-5.155-.127-11.514-.127-6.36 0-11.515.057-11.515.127s5.155.128 11.515.128z"/><path opacity=".733" d="M45.239 35.544c6.349 0 11.496-.057 11.496-.128 0-.07-5.147-.127-11.496-.127-6.35 0-11.497.057-11.497.127s5.147.128 11.497.128z"/><path opacity=".737" d="M56.715 35.416c0 .07-5.138.128-11.479.128-6.34 0-11.478-.058-11.478-.128s5.138-.127 11.478-.127 11.479.058 11.479.127z"/><path opacity=".741" d="M45.236 35.544c6.33 0 11.46-.057 11.46-.128 0-.07-5.13-.127-11.46-.127-6.329 0-11.46.057-11.46.127s5.131.128 11.46.128z"/><path opacity=".745" d="M56.68 35.418c0 .07-5.123.128-11.444.128-6.32 0-11.444-.058-11.444-.128s5.124-.127 11.444-.127c6.32 0 11.445.058 11.445.127z"/><path opacity=".749" d="M45.239 35.546c6.31 0 11.426-.057 11.426-.128 0-.07-5.116-.127-11.426-.127-6.311 0-11.427.057-11.427.127s5.116.128 11.427.128z"/><path opacity=".753" d="M45.236 35.546c6.301 0 11.409-.057 11.409-.128 0-.07-5.108-.127-11.409-.127-6.3 0-11.408.057-11.408.127s5.108.128 11.408.128z"/><path opacity=".757" d="M56.629 35.418c0 .07-5.1.128-11.392.128-6.293 0-11.39-.058-11.39-.128s5.1-.127 11.39-.127c6.29 0 11.392.058 11.392.127z"/><path opacity=".761" d="M45.239 35.546c6.281 0 11.374-.057 11.374-.128 0-.07-5.093-.127-11.374-.127-6.282 0-11.375.057-11.375.127s5.093.128 11.375.128z"/><path opacity=".765" d="M45.239 35.546c6.271 0 11.356-.057 11.356-.128 0-.07-5.085-.127-11.356-.127-6.272 0-11.357.057-11.357.127s5.085.128 11.357.128z"/><path opacity=".769" d="M45.236 35.542c6.262 0 11.339-.056 11.339-.126 0-.069-5.077-.125-11.339-.125-6.261 0-11.338.056-11.338.125 0 .07 5.077.126 11.338.126z"/><path opacity=".773" d="M45.239 35.542c6.253 0 11.322-.056 11.322-.126 0-.069-5.07-.125-11.322-.125-6.253 0-11.323.056-11.323.125 0 .07 5.07.126 11.323.126z"/><path opacity=".776" d="M56.543 35.416c0 .07-5.06.126-11.304.126-6.244 0-11.305-.056-11.305-.126s5.06-.125 11.305-.125c6.244 0 11.304.056 11.304.125z"/><path opacity=".78" d="M45.236 35.542c6.234 0 11.287-.056 11.287-.126 0-.069-5.053-.125-11.287-.125-6.233 0-11.286.056-11.286.125 0 .07 5.053.126 11.286.126z"/><path opacity=".784" d="M45.236 35.544c6.224 0 11.269-.056 11.269-.126 0-.069-5.045-.125-11.269-.125-6.223 0-11.268.056-11.268.125 0 .07 5.045.126 11.268.126z"/><path opacity=".788" d="M45.239 35.544c6.214 0 11.252-.056 11.252-.126 0-.069-5.038-.125-11.252-.125-6.215 0-11.252.056-11.252.125 0 .07 5.037.126 11.252.126z"/><path opacity=".792" d="M45.239 35.544c6.204 0 11.233-.056 11.233-.126 0-.069-5.03-.125-11.233-.125-6.205 0-11.234.056-11.234.125 0 .07 5.03.126 11.233.126z"/><path opacity=".796" d="M56.454 35.418c0 .07-5.022.126-11.218.126-6.195 0-11.217-.056-11.217-.126s5.022-.125 11.218-.125c6.195 0 11.217.056 11.217.125z"/><path opacity=".8" d="M45.239 35.544c6.185 0 11.2-.056 11.2-.126 0-.069-5.015-.125-11.2-.125-6.186 0-11.2.056-11.2.125 0 .07 5.014.126 11.2.126z"/><path opacity=".804" d="M45.239 35.544c6.175 0 11.181-.056 11.181-.126 0-.069-5.006-.125-11.181-.125-6.176 0-11.182.056-11.182.125 0 .07 5.006.126 11.181.126z"/><path opacity=".808" d="M45.236 35.54c6.166 0 11.164-.055 11.164-.124 0-.068-4.998-.123-11.163-.123-6.166 0-11.164.055-11.164.123 0 .069 4.998.124 11.163.124z"/><path opacity=".812" d="M45.236 35.54c6.156 0 11.146-.055 11.146-.124 0-.068-4.99-.123-11.145-.123-6.156 0-11.146.055-11.146.123 0 .069 4.99.124 11.145.124z"/><path opacity=".816" d="M56.366 35.416c0 .068-4.982.124-11.13.124-6.147 0-11.13-.056-11.13-.124 0-.067 4.983-.123 11.13-.123 6.148 0 11.13.056 11.13.123z"/><path opacity=".82" d="M45.239 35.54c6.136 0 11.111-.055 11.111-.124 0-.068-4.975-.123-11.111-.123-6.137 0-11.112.055-11.112.123 0 .069 4.975.124 11.111.124z"/><path opacity=".824" d="M45.236 35.542c6.127 0 11.094-.055 11.094-.124 0-.068-4.967-.123-11.093-.123-6.128 0-11.094.055-11.094.123 0 .069 4.966.124 11.093.124z"/><path opacity=".827" d="M45.239 35.542c6.117 0 11.077-.055 11.077-.124 0-.068-4.96-.123-11.078-.123-6.118 0-11.077.055-11.077.123 0 .069 4.96.124 11.078.124z"/><path opacity=".831" d="M45.239 35.542c6.108 0 11.06-.055 11.06-.124 0-.068-4.952-.123-11.06-.123-6.109 0-11.06.055-11.06.123 0 .069 4.951.124 11.06.124z"/><path opacity=".835" d="M56.28 35.418c0 .068-4.944.124-11.042.124-6.097 0-11.041-.056-11.041-.124 0-.067 4.944-.123 11.041-.123 6.098 0 11.042.056 11.042.123z"/><path opacity=".839" d="M45.236 35.542c6.089 0 11.024-.055 11.024-.124 0-.068-4.935-.123-11.023-.123-6.089 0-11.024.055-11.024.123 0 .069 4.935.124 11.023.124z"/><path opacity=".843" d="M45.238 35.542c6.08 0 11.008-.055 11.008-.124 0-.068-4.928-.123-11.008-.123-6.079 0-11.007.055-11.007.123 0 .069 4.928.124 11.007.124z"/><path opacity=".847" d="M45.239 35.538c6.069 0 10.99-.054 10.99-.122 0-.067-4.921-.121-10.99-.121-6.07 0-10.99.054-10.99.121 0 .068 4.92.122 10.99.122z"/><path opacity=".851" d="M45.236 35.538c6.06 0 10.972-.054 10.972-.122 0-.067-4.912-.121-10.972-.121-6.059 0-10.971.054-10.971.121 0 .068 4.912.122 10.971.122z"/><path opacity=".855" d="M45.236 35.538c6.05 0 10.954-.054 10.954-.122 0-.067-4.904-.121-10.953-.121-6.05 0-10.954.054-10.954.121 0 .068 4.904.122 10.953.122z"/><path opacity=".859" d="M45.239 35.538c6.04 0 10.937-.054 10.937-.122 0-.067-4.897-.121-10.938-.121-6.04 0-10.937.054-10.937.121 0 .068 4.897.122 10.938.122z"/><path opacity=".863" d="M45.238 35.54c6.031 0 10.92-.054 10.92-.122 0-.067-4.889-.121-10.92-.121-6.03 0-10.919.054-10.919.121 0 .068 4.889.122 10.92.122z"/><path opacity=".867" d="M45.236 35.54c6.021 0 10.902-.054 10.902-.122 0-.067-4.88-.121-10.901-.121s-10.902.054-10.902.121c0 .068 4.88.122 10.901.122z"/><path opacity=".871" d="M45.238 35.54c6.012 0 10.886-.054 10.886-.122 0-.067-4.874-.121-10.886-.121-6.011 0-10.885.054-10.885.121 0 .068 4.874.122 10.885.122z"/><path opacity=".875" d="M45.239 35.54c6.001 0 10.867-.054 10.867-.122 0-.067-4.866-.121-10.867-.121-6.002 0-10.868.054-10.868.121 0 .068 4.866.122 10.867.122z"/><path opacity=".878" d="M45.236 35.54c5.992 0 10.85-.054 10.85-.122 0-.067-4.858-.121-10.85-.121-5.991 0-10.849.054-10.849.121 0 .068 4.858.122 10.85.122z"/><path opacity=".882" d="M45.236 35.54c5.983 0 10.832-.054 10.832-.122 0-.067-4.85-.121-10.831-.121-5.983 0-10.832.054-10.832.121 0 .068 4.85.122 10.831.122z"/><path opacity=".886" d="M45.239 35.54c5.973 0 10.815-.054 10.815-.122 0-.067-4.842-.121-10.816-.121-5.973 0-10.815.054-10.815.121 0 .068 4.842.122 10.816.122z"/><path opacity=".89" d="M45.238 35.536c5.964 0 10.798-.054 10.798-.12s-4.834-.12-10.798-.12c-5.963 0-10.797.054-10.797.12s4.834.12 10.797.12z"/><path opacity=".894" d="M45.236 35.536c5.954 0 10.78-.054 10.78-.12s-4.826-.12-10.78-.12c-5.953 0-10.779.054-10.779.12s4.826.12 10.78.12z"/><path opacity=".898" d="M45.238 35.536c5.945 0 10.764-.054 10.764-.12s-4.82-.12-10.764-.12c-5.944 0-10.763.054-10.763.12s4.82.12 10.763.12z"/><path opacity=".902" d="M45.239 35.536c5.934 0 10.745-.054 10.745-.12s-4.811-.12-10.745-.12c-5.935 0-10.746.054-10.746.12s4.811.12 10.745.12z"/><path opacity=".906" d="M55.964 35.426c0 .066-4.808.12-10.728.12-5.919 0-10.727-.054-10.727-.12 0-.065 4.808-.12 10.727-.12 5.92 0 10.728.047 10.728.12z"/><path opacity=".91" d="M45.236 35.538c5.915 0 10.71-.054 10.71-.12s-4.795-.12-10.71-.12c-5.914 0-10.709.054-10.709.12s4.795.12 10.71.12z"/><path opacity=".914" d="M45.239 35.538c5.905 0 10.693-.054 10.693-.12s-4.788-.12-10.694-.12c-5.905 0-10.693.054-10.693.12s4.788.12 10.694.12z"/><path opacity=".918" d="M45.239 35.538c5.895 0 10.675-.054 10.675-.12s-4.78-.12-10.675-.12c-5.896 0-10.676.054-10.676.12s4.78.12 10.675.12z"/><path opacity=".922" d="M45.236 35.538c5.886 0 10.658-.054 10.658-.12s-4.772-.12-10.657-.12c-5.886 0-10.658.054-10.658.12s4.772.12 10.657.12z"/><path opacity=".925" d="M55.888 35.414c0 .066-4.764.12-10.642.12-5.877 0-10.639-.054-10.639-.12 0-.065 4.764-.12 10.64-.12 5.875 0 10.64.059 10.64.12z"/><path opacity=".929" d="M45.239 35.534c5.866 0 10.623-.053 10.623-.118 0-.064-4.757-.117-10.623-.117-5.867 0-10.623.053-10.623.117 0 .065 4.756.118 10.623.118z"/><path opacity=".933" d="M45.236 35.534c5.857 0 10.605-.053 10.605-.118 0-.064-4.748-.117-10.605-.117-5.856 0-10.604.053-10.604.117 0 .065 4.748.118 10.604.118z"/><path opacity=".937" d="M45.236 35.534c5.848 0 10.587-.053 10.587-.118 0-.064-4.74-.117-10.587-.117-5.846 0-10.586.053-10.586.117 0 .065 4.74.118 10.587.118z"/><path opacity=".941" d="M45.239 35.534c5.838 0 10.57-.053 10.57-.118 0-.064-4.732-.117-10.57-.117-5.839 0-10.572.053-10.572.117 0 .065 4.733.118 10.572.118z"/><path opacity=".945" d="M55.791 35.418c0 .066-4.725.118-10.552.118-5.828 0-10.553-.052-10.553-.118 0-.065 4.723-.117 10.553-.117 5.829 0 10.552.052 10.552.117z"/><path opacity=".949" d="M45.236 35.536c5.819 0 10.535-.053 10.535-.118s-4.716-.117-10.535-.117c-5.818 0-10.534.052-10.534.117s4.716.118 10.535.118z"/><path opacity=".953" d="M45.236 35.536c5.809 0 10.517-.053 10.517-.118s-4.708-.117-10.517-.117c-5.808 0-10.516.052-10.516.117s4.708.118 10.517.118z"/><path opacity=".957" d="M45.239 35.536c5.799 0 10.5-.053 10.5-.118s-4.701-.117-10.5-.117c-5.8 0-10.501.052-10.501.117s4.701.118 10.5.118z"/><path opacity=".961" d="M45.238 35.536c5.79 0 10.483-.053 10.483-.118s-4.693-.117-10.483-.117c-5.789 0-10.482.052-10.482.117s4.693.118 10.482.118z"/><path opacity=".965" d="M45.236 35.536c5.78 0 10.465-.053 10.465-.118s-4.685-.117-10.465-.117c-5.779 0-10.464.052-10.464.117s4.685.118 10.465.118z"/><path opacity=".969" d="M45.239 35.532c5.77 0 10.448-.052 10.448-.116 0-.063-4.678-.115-10.448-.115-5.771 0-10.45.052-10.45.115 0 .064 4.679.116 10.45.116z"/><path opacity=".973" d="M45.239 35.532c5.76 0 10.43-.052 10.43-.116 0-.063-4.67-.115-10.43-.115-5.761 0-10.431.052-10.431.115 0 .064 4.67.116 10.43.116z"/><path opacity=".976" d="M45.236 35.532c5.751 0 10.413-.052 10.413-.116 0-.063-4.662-.115-10.413-.115-5.75 0-10.412.052-10.412.115 0 .064 4.662.116 10.413.116z"/><path opacity=".98" d="M45.236 35.532c5.741 0 10.395-.052 10.395-.116 0-.063-4.654-.115-10.395-.115-5.74 0-10.394.052-10.394.115 0 .064 4.654.116 10.395.116z"/><path opacity=".984" d="M45.239 35.534c5.731 0 10.378-.052 10.378-.116 0-.063-4.647-.115-10.378-.115-5.732 0-10.38.052-10.38.115 0 .064 4.648.116 10.38.116z"/><path opacity=".988" d="M45.238 35.534c5.722 0 10.361-.052 10.361-.116 0-.063-4.639-.115-10.36-.115-5.722 0-10.361.052-10.361.115 0 .064 4.639.116 10.36.116z"/><path opacity=".992" d="M45.236 35.534c5.713 0 10.343-.052 10.343-.116 0-.063-4.63-.115-10.343-.115-5.712 0-10.342.052-10.342.115 0 .064 4.63.116 10.343.116z"/><path opacity=".996" d="M45.238 35.534c5.704 0 10.327-.052 10.327-.116 0-.063-4.623-.115-10.327-.115-5.703 0-10.326.052-10.326.115 0 .064 4.623.116 10.326.116z"/><path d="M45.239 35.534c5.693 0 10.308-.052 10.308-.116 0-.063-4.615-.115-10.308-.115-5.694 0-10.309.052-10.309.115 0 .064 4.615.116 10.309.116z"/></g><path d="M34.922 25.995h21.48V36h-21.48V25.995z"/><path d="M34.912 25.244h21.482v.773L34.912 26v-.757z"/><path d="M36.559 14.119h-.85V25.27h.85V14.12zm19.317 0h-.81V25.27h.81V14.12zm-16.769-3.813l-2.376 1.687h-3.606l3.606-1.687h2.376zm.01 0l-2.376 1.687h3.606l1.318-1.687h-2.548zm8.429 1.687H43.94l.465-1.687h2.692l.45 1.687z"/><path d="M40.333 11.993h3.605l.465-1.687h-2.748l-1.322 1.687zm12.051-1.687l2.376 1.687h3.605l-3.605-1.687h-2.376z"/><path d="M52.386 10.306l2.376 1.687h-3.606l-1.308-1.687h2.538z"/><path d="M51.148 11.993h-3.606l-.455-1.687h2.763l1.298 1.687zm-17.314 2.942a.707.707 0 01-.705-.7v-.236h1.402v.235a.699.699 0 01-.697.701zm8.462 0a.71.71 0 01-.652-.432.698.698 0 01-.053-.269V14h1.402v.235a.7.7 0 01-.697.701zm-2.819 0a.707.707 0 01-.705-.7v-.236h1.402v.235a.7.7 0 01-.697.701zm-4.232 0a.707.707 0 01-.706-.7v-.236h1.403v.235a.7.7 0 01-.697.701zm2.822 0a.707.707 0 01-.705-.7v-.236h1.402v.235a.7.7 0 01-.697.701zm-1.407 0a.707.707 0 01-.704-.7v-.236h1.402v.235a.7.7 0 01-.697.701zm4.228 0a.707.707 0 01-.706-.7v-.236h1.403v.235a.7.7 0 01-.697.701zm9.793 0a.707.707 0 01-.705-.7v-.236h1.402v.235a.7.7 0 01-.697.701zm-2.818 0a.707.707 0 01-.706-.7v-.236h1.403v.235a.7.7 0 01-.697.701z"/><path d="M43.63 14.935a.707.707 0 01-.705-.7v-.236h1.402v.235a.7.7 0 01-.697.701zm2.822 0a.707.707 0 01-.705-.7v-.236h1.403v.235a.7.7 0 01-.698.701zm-1.404 0a.707.707 0 01-.705-.7v-.236h1.402v.235a.7.7 0 01-.697.701zm4.225 0a.707.707 0 01-.705-.7v-.236h1.402v.235a.699.699 0 01-.697.701zm4.153 0a.707.707 0 01-.706-.7v-.236h1.403v.235a.7.7 0 01-.697.701zm2.822 0a.707.707 0 01-.705-.7v-.236h1.402v.235a.7.7 0 01-.697.701zm-4.233 0a.707.707 0 01-.705-.7v-.236h1.402v.235a.7.7 0 01-.697.701zm2.825 0a.707.707 0 01-.705-.7v-.236h1.402v.235a.699.699 0 01-.697.701zm2.818 0a.707.707 0 01-.705-.7v-.236h1.402v.235a.7.7 0 01-.697.701z"/><path d="M33.13 11.993h25.24V14H33.13v-2.006z"/></g><defs><clipPath id="clip0_200_41350"><path fill="#fff" d="M0 0h60v36H0z"/></clipPath></defs></svg>