<svg xmlns="http://www.w3.org/2000/svg" width="41.538" height="40"><path data-name="Path 2" d="M3.444 10.08L20.758 0l17.315 10.08z" fill="#fff"/><path data-name="Path 3" d="M11.941 7.777l8.817-5.134 8.817 5.134z" fill="#fff"/><path data-name="Path 4" d="M8.508 15.3H4.84v18.234h3.668z" fill="#fff"/><path data-name="Path 5" d="M15.5 15.3h-3.644v18.234H15.5z" fill="#fff"/><path data-name="Path 6" d="M22.56 15.3h-3.667v18.234h3.667z" fill="#fff"/><path data-name="Path 7" d="M29.6 15.3h-3.671v18.234H29.6z" fill="#fff"/><path data-name="Path 8" d="M36.613 15.3h-3.647v18.234h3.646z" fill="#fff"/><path data-name="Path 9" d="M38.02 9.939H3.5v4.8h34.52z" fill="#fff"/><path data-name="Path 10" d="M38.02 34.1H3.5v1.471h34.52z" fill="#fff"/><path data-name="Path 11" d="M39.342 35.567H2.2v1.471h37.142z" fill="#fff"/><path data-name="Path 12" d="M40.366 37.037H1.151v1.471h39.215z" fill="#fff"/><path data-name="Path 13" d="M41.538 38.529H0V40h41.538z" fill="#fff"/><path data-name="Path 14" d="M9.02 32.971H4.35V34.1h4.67z" fill="#fff"/><path data-name="Path 15" d="M16.057 32.972h-4.67V34.1h4.67z" fill="#fff"/><path data-name="Path 16" d="M23.093 32.972h-4.67V34.1h4.67z" fill="#fff"/><path data-name="Path 17" d="M30.13 32.972h-4.67V34.1h4.67z" fill="#fff"/><path data-name="Path 18" d="M37.167 32.972H32.5V34.1h4.67z" fill="#fff"/><path data-name="Path 19" d="M9.02 14.741H4.35v1.125h4.67z" fill="#fff"/><path data-name="Path 20" d="M16.057 14.741h-4.67v1.125h4.67z" fill="#fff"/><path data-name="Path 21" d="M23.093 14.741h-4.67v1.125h4.67z" fill="#fff"/><path data-name="Path 22" d="M30.13 14.741h-4.67v1.125h4.67z" fill="#fff"/><path data-name="Path 23" d="M37.167 14.741H32.5v1.125h4.67z" fill="#fff"/><path data-name="Path 24" d="M4.832 15.856h3.659V18.7l-3.659.229z" fill="#fff" opacity=".051"/><path data-name="Path 25" d="M11.856 15.856h3.653v2.4l-3.653.229z" fill="#fff" opacity=".051"/><path data-name="Path 26" d="M18.893 15.856h3.659v1.959l-3.659.229z" fill="#fff" opacity=".051"/><path data-name="Path 27" d="M25.929 15.856h3.659v1.514l-3.659.236z" fill="#fff" opacity=".051"/><path data-name="Path 28" d="M36.617 15.856v1.068l-3.653.229v-1.3z" fill="#fff" opacity=".051"/><path data-name="Path 29" d="M4.832 31.215q1.836-.06 3.659-.145v1.9H4.832z" fill="#fff" opacity=".051"/><path data-name="Path 30" d="M11.856 30.906c1.228-.069 2.452-.149 3.653-.242v2.31h-3.653z" fill="#fff" opacity=".051"/><path data-name="Path 31" d="M18.893 30.37c1.245-.115 2.469-.253 3.659-.4v3h-3.659z" fill="#fff" opacity=".051"/><path data-name="Path 32" d="M25.929 29.487a79.558 79.558 0 003.659-.69v4.176h-3.659z" fill="#fff" opacity=".051"/><path data-name="Path 33" d="M36.617 26.665v6.306h-3.651v-5.017a33.053 33.053 0 003.651-1.289z" fill="#fff" opacity=".051"/></svg>