<svg width="70" height="33" fill="none" xmlns="http://www.w3.org/2000/svg"><g clip-path="url(#clip0_200_41708)"><path d="M.344 32.628a.162.162 0 00-.22-.088.095.095 0 01-.102-.023.095.095 0 01-.017-.105.099.099 0 01.052-.051.354.354 0 01.462.195l.18.438H.493l-.15-.366z" fill="#D1D1D0"/><path d="M9.166 21.098l-8.862 11.6a.129.129 0 00.025.182.132.132 0 00.135.013.126.126 0 00.044-.038l8.655-11.34.003-.417zm60.49 11.53a.163.163 0 01.22-.088.096.096 0 00.072-.001.095.095 0 00.048-.127.098.098 0 00-.053-.051.355.355 0 00-.46.195l-.18.438h.209l.144-.366z" fill="#D1D1D0"/><path d="M60.834 21.098l8.862 11.6a.129.129 0 01-.206.155l-8.656-11.34v-.415z" fill="#D1D1D0"/><path d="M61.023 21.19v.026l-.467 3.578-.727 5.56-.346 2.642H10.56l-.346-2.642-.728-5.56-.47-3.578v-.027L22.975 9.808l12.046-9.81 12.045 9.81 13.956 11.381z" fill="#D0CFCF"/><path d="M43.804 33H26.268a157.44 157.44 0 010-19.622l.024-.383H43.79l.024.383A157.46 157.46 0 0143.804 33z" fill="#fff"/><path d="M43.463 32.68s.35-10.698 0-16.266H26.745c-.339 5.417-.168 16.267-.168 16.267h16.886z" fill="#481391"/><path d="M25.28 29.669c.053 1.11.114 2.221.195 3.331h19.12c.07-.96.125-1.922.173-2.883a32.433 32.433 0 00-19.488-.448zm19.028-16.587c-.05.285-.157.557-.316.8l-2.643-.108h-.54a23.977 23.977 0 01-5.46 0h-.54a33.33 33.33 0 01-5.457 0h-.541l-2.758.107a3.623 3.623 0 01-.219-.853 3.018 3.018 0 01.22-1.476l2.757.108h.54a42.404 42.404 0 015.459 0h.54a34.249 34.249 0 015.46 0h.541l2.644-.108c.278.459.389 1 .313 1.53z" fill="#fff"/><path d="M29.356 11.666h-.547v2.123h.547v-2.123zm6.001 0h-.547v2.123h.547v-2.123zm6.001 0h-.548v2.123h.548v-2.123z" fill="#fff"/><path opacity=".2" d="M44.308 13.082c-.05.285-.157.557-.315.8l-2.644-.108h-.54a23.965 23.965 0 01-5.46 0h-.54c-1.816.15-3.641.15-5.457 0h-.541l-2.758.107a3.618 3.618 0 01-.219-.853c1.36.102 2.764-.162 4.142-.151 1.19 0 2.37.218 3.559.24 1.031 0 2.063-.127 3.097-.078.944.041 1.877.236 2.818.183.622-.035 1.231-.175 1.849-.238a13.554 13.554 0 013.009.098z" fill="#fff"/><path d="M31.439 9.42l3.58-3.256L38.6 9.42h-7.16z" fill="#fff"/><path d="M37.69 9.068h-5.34l2.67-2.43 2.67 2.43z" fill="#fff"/><path opacity=".11" d="M23.252 30.356H10.366L9.17 21.22v-.026L23.132 9.812a144.076 144.076 0 00.12 20.544z" fill="#fff"/><path opacity=".11" d="M61.018 22.901v.029l-1.193 9.135H46.936c.53-6.836.572-13.701.125-20.543l13.957 11.38z" fill="#FEFEFE"/><path opacity=".2" d="M61.02 21.22l-.177 1.36a1.392 1.392 0 01-2.153.98L35.018 7.8s-17.79 11.855-23.671 15.76a1.393 1.393 0 01-2.153-.979l-.18-1.36v-.027L35.02 2.51l26 18.71z" fill="#fff"/><path d="M9.012 21.19v.026a1.512 1.512 0 002.444.987l23.56-18.204V0L9.011 21.19zM35.029 0v3.999l23.558 18.204a1.514 1.514 0 002.444-.987v-.027L35.03 0z" fill="#fff"/></g><defs><clipPath id="clip0_200_41708"><path fill="#fff" d="M0 0h70v33H0z"/></clipPath></defs></svg>