<svg xmlns="http://www.w3.org/2000/svg" width="114.952" height="159.266"><g fill="#fff"><path data-name="Rectangle 1" d="M45.037 81.035l6.123 3.535-14.995 25.972-6.123-3.535z"/><path data-name="Rectangle 2" d="M48.115 82.797l3.057 1.765-14.995 25.972-3.057-1.765z"/><path data-name="Path 29" d="M13.602 157.722c-2.79 4.85-16-2.85-13.22-7.63l34.45-53.73a.67.67 0 01.9-.22l6.92 4a.66.66 0 01.26.88z"/><path data-name="Path 30" d="M13.602 157.722l29.3-56.7a.66.66 0 00-.26-.88l-3.15-1.82-33.59 59.71c3.06 1.51 6.44 1.88 7.7-.31z" opacity=".1"/><path data-name="Path 31" d="M114.902 31.232a8.109 8.109 0 00-.06-1.21c-.06-.4 0-.79-.09-1.18s0-.52-.08-.78c-.07-.68-.17-1.35-.28-2-.05-.29-.1-.59-.16-.88s-.11-.55-.17-.82c-.17-.74-.35-1.46-.56-2.15-.11-.33-.21-.66-.32-1a.88.88 0 01-.05-.15c-.12-.32-.23-.63-.35-.93a10.876 10.876 0 00-.44-1c-.16-.3-.22-.49-.35-.73a3.6 3.6 0 00-.26-.52c-.1-.21-.21-.42-.33-.62s-.05-.1-.08-.14-.21-.36-.32-.54-.15-.23-.22-.34a18.251 18.251 0 00-1.72-2.29l-.32-.36-.27-.28c-.11-.12-.23-.23-.35-.35a11.182 11.182 0 00-1-.93c-.17-.15-.35-.29-.53-.42l-.55-.4a9.661 9.661 0 00-.89-.58l-.24-.15h-.05l-14.17-8.18-.08-.05a17.78 17.78 0 00-8.9-2.25c-4.64 0-9.88 1.52-15.43 4.72-19.06 11-34.52 37.78-34.52 59.8 0 11 3.84 18.7 10.05 22.32h.06l14.18 8.17h.06l.17.09a9.164 9.164 0 00.82.43c.34.17.69.32 1 .46a8.347 8.347 0 00.95.35l.51.15a3.475 3.475 0 00.55.16 5.718 5.718 0 00.56.14 3 3 0 00.41.09c.24.05.5.1.75.13a.51.51 0 00.17 0q.45.08.9.12c5.14.54 11.12-.91 17.52-4.6 19.07-11 34.53-37.79 34.53-59.8a14.468 14.468 0 01-.05-1.5zm-23.13-15.57a30.76 30.76 0 011.09 8.4c0 19.42-14.21 44-31 53.74a30 30 0 01-7.87 3.27 31.18 31.18 0 01-1.09-8.41c0-19.42 14.21-44 31-53.74a29.941 29.941 0 017.84-3.26z"/><path data-name="Path 32" d="M55.472 94.732l-13.77-7.94c-6.21-3.63-10.05-11.35-10.05-22.31 0-9.82 3.08-20.58 8.17-30.46l14.18 8.16c-5.1 9.88-8.17 20.64-8.17 30.46 0 10.76 3.66 18.37 9.64 22.09z" opacity=".1"/><path data-name="Path 33" d="M114.902 31.232a8.109 8.109 0 00-.06-1.21c-.06-.4 0-.79-.09-1.18s0-.52-.08-.78c-.07-.68-.17-1.35-.28-2-.05-.29-.1-.59-.16-.88s-.11-.55-.17-.82c-.17-.74-.35-1.46-.56-2.15-.11-.33-.21-.66-.32-1a.88.88 0 01-.05-.15c-.12-.32-.23-.63-.35-.93a10.876 10.876 0 00-.44-1c-.16-.3-.22-.49-.35-.73a3.6 3.6 0 00-.26-.52c-.1-.21-.21-.42-.33-.62s-.05-.1-.08-.14-.21-.36-.32-.54-.15-.23-.22-.34a18.251 18.251 0 00-1.72-2.29l-.32-.36-.27-.28c-.11-.12-.23-.23-.35-.35a11.182 11.182 0 00-1-.93c-.17-.15-.35-.29-.53-.42l-.55-.4a9.661 9.661 0 00-.89-.58c-6.27-3.81-15-3.36-24.71 2.23-19.07 11-34.53 37.78-34.53 59.8 0 11.15 4 18.94 10.35 22.48a9.162 9.162 0 00.82.43c.34.17.69.32 1 .46a8.347 8.347 0 00.95.35l.51.15a3.475 3.475 0 00.55.16 5.727 5.727 0 00.56.14 3 3 0 00.41.09c.24.05.5.1.75.13a.509.509 0 00.17 0q.45.08.9.12c5.14.54 11.12-.91 17.52-4.6 19.07-11 34.53-37.79 34.53-59.8-.03-.5-.03-1.02-.03-1.54zm-38 55.31c-4.28 2.47-8.4 3.77-11.92 3.77-6.61 0-9.65-4.51-11-9.24a31.18 31.18 0 01-1.09-8.41c0-19.42 14.21-44 31-53.74a29.94 29.94 0 017.87-3.26 17.409 17.409 0 014-.51c10.93 0 12.1 12.34 12.1 17.65.04 19.38-14.17 44.03-30.96 53.74z" opacity=".4"/><path data-name="Path 34" d="M107.902 32.802c0 19.42-14.2 44-31 53.74-4.28 2.47-8.4 3.77-11.92 3.77-6.61 0-9.65-4.51-11-9.24a30 30 0 007.87-3.27c16.82-9.71 31-34.32 31-53.74a30.761 30.761 0 00-1.09-8.4 17.409 17.409 0 014-.51c10.96.03 12.14 12.34 12.14 17.65z" opacity=".1"/></g></svg>