<svg width="46" height="46" fill="none" xmlns="http://www.w3.org/2000/svg"><g clip-path="url(#clip0_200_41847)" fill="#fff"><path d="M38.199 14.33a2.655 2.655 0 00-1.483 1.384 2.694 2.694 0 00-.082 2.037l3.262 9.005c.162.448.17.937.025 1.39l-1.651 5.145a1.33 1.33 0 01-.661.747 1.309 1.309 0 01-.99.072 1.324 1.324 0 01-.76-.644 1.346 1.346 0 01-.102-.995l1.382-4.312a2.69 2.69 0 00-.16-2.034 2.648 2.648 0 00-1.54-1.323 2.618 2.618 0 00-2.014.162 2.66 2.66 0 00-1.31 1.554l-3.166 9.872-.213.666a6.47 6.47 0 00.079 4.179l1.605 4.419a.536.536 0 00.275.302.524.524 0 00.406.016l10.768-4.03a.526.526 0 00.315-.33l2.734-8.251.762-2.283a6.452 6.452 0 00-.069-4.25L41.605 15.91a2.674 2.674 0 00-1.378-1.505 2.624 2.624 0 00-2.028-.075zm-30.398 0a2.655 2.655 0 011.483 1.384c.293.641.323 1.374.082 2.037l-3.262 9.005a2.15 2.15 0 00-.025 1.39l1.651 5.145a1.34 1.34 0 00.65.808 1.311 1.311 0 001.805-.59 1.345 1.345 0 00.057-1.039l-1.381-4.31a2.69 2.69 0 01.16-2.034 2.648 2.648 0 011.54-1.323 2.618 2.618 0 012.014.162c.623.322 1.095.88 1.31 1.553l3.166 9.872.213.667a6.47 6.47 0 01-.079 4.178l-1.605 4.42a.534.534 0 01-.476.35.525.525 0 01-.205-.032L4.13 41.942a.524.524 0 01-.315-.33L1.082 33.36.32 31.079a6.47 6.47 0 01.069-4.25L4.397 15.91a2.675 2.675 0 011.377-1.503 2.625 2.625 0 012.027-.077zm15.234 11.952a.383.383 0 01-.335-.193l-1.31-2.223-5.65-9.593-.043-.067-.018-.028-.221-.344a.174.174 0 01-.015-.028l-.133-.256a9.633 9.633 0 01-1.188-4.637 8.61 8.61 0 01.56-3.479 8.542 8.542 0 011.906-2.953A8.447 8.447 0 0119.512.557a8.382 8.382 0 013.445-.567A8.701 8.701 0 0126.4.578a8.766 8.766 0 012.943 1.897c.092.09.18.185.285.305.104.12.19.218.266.316l.018.025c.069.085.145.188.236.31l.02.031a7.7 7.7 0 01.214.316l.02.033c.072.116.135.218.191.318l.028.05.036.066c.053.097.096.177.137.256l.035.075c.061.12.11.22.15.312l.018.044.013.03.035.088.076.182.023.054.028.082.038.103.028.08c.018.045.033.092.049.138l.035.105.028.092c.023.077.046.149.066.223l.03.11.031.119c.018.069.036.135.05.207l.016.072.015.075.028.143c0 .051.023.103.033.157.01.053.02.13.03.197l.018.12c0 .047.016.093.023.14v.017c0 .054 0 .105.016.16l.012.125c0 .056.013.113.018.172.005.059 0 .084 0 .128v.138l.013.208v.487a9.549 9.549 0 01-1.034 4.348c0 .015-.183.325-.292.536v.033l-.117.182-.036.057a2.73 2.73 0 01-.13.21l-5.514 9.58-1.27 2.218a.394.394 0 01-.32.234zm-.101-22.827a4.954 4.954 0 00-1.947.35 4.991 4.991 0 00-1.659 1.086 5.047 5.047 0 00-1.112 1.65 5.087 5.087 0 001.112 5.565 4.973 4.973 0 003.606 1.436h.05a4.966 4.966 0 003.816-1.849l.026-.03v-.016c.096-.123.177-.234.254-.336l.015-.023.038-.065c.079-.123.142-.228.193-.325.015-.028.028-.06.043-.087l.041-.085.013-.026c.038-.08.078-.161.112-.256.017-.04.032-.081.045-.123l.043-.116c.028-.077.056-.149.08-.223.022-.074.032-.11.045-.166l.033-.131c.015-.06.033-.123.046-.182.012-.06.02-.118.027-.18v-.061l.018-.121v-.046c0-.031 0-.062.013-.093a5.14 5.14 0 00.025-.513c0-.161 0-.336-.025-.513 0-.033 0-.066-.015-.1v-.038l-.018-.12v-.052c0-.064-.018-.128-.03-.187-.013-.06-.031-.126-.046-.187l-.033-.126a1.889 1.889 0 00-.046-.172 3.81 3.81 0 00-.069-.197V6.77l-.04-.115-.015-.041c0-.029-.02-.057-.034-.083-.035-.087-.078-.171-.127-.271l-.017-.034-.018-.038-.015-.033-.03-.06a4.813 4.813 0 00-.21-.348.42.42 0 00-.037-.064 4.594 4.594 0 00-.254-.344l-.023-.03v-.014a7.891 7.891 0 00-.297-.333l-.023-.023a4.938 4.938 0 00-3.496-1.49h-.05l-.008.005z"/></g><defs><clipPath id="clip0_200_41847"><path fill="#fff" d="M0 0h46v46H0z"/></clipPath></defs></svg>