<svg width="27" height="26" fill="none" xmlns="http://www.w3.org/2000/svg"><g filter="url(#filter0_d_200_41898)"><path d="M18.566 9.013a8.943 8.943 0 11-17.887 0 8.943 8.943 0 0117.887 0z" fill="#fff"/></g><path d="M9.976 5.678a.5.5 0 00-.707 0L6.087 8.86a.5.5 0 10.707.707l2.829-2.828 2.828 2.828a.5.5 0 00.707-.707L9.976 5.678zm.147 8.179V6.03h-1v7.826h1z" fill="#2C085D"/><path d="M9.976 7.914a.5.5 0 00-.707 0l-3.182 3.182a.5.5 0 10.707.707l2.829-2.829 2.828 2.829a.5.5 0 00.707-.707L9.976 7.914zm.147 5.943v-5.59h-1v5.59h1z" fill="#2C085D" fill-opacity=".5"/><defs><filter id="filter0_d_200_41898" x=".679" y=".069" width="25.887" height="25.887" filterUnits="userSpaceOnUse" color-interpolation-filters="sRGB"><feFlood flood-opacity="0" result="BackgroundImageFix"/><feColorMatrix in="SourceAlpha" values="0 0 0 0 0 0 0 0 0 0 0 0 0 0 0 0 0 0 127 0" result="hardAlpha"/><feOffset dx="4" dy="4"/><feGaussianBlur stdDeviation="2"/><feComposite in2="hardAlpha" operator="out"/><feColorMatrix values="0 0 0 0 0 0 0 0 0 0 0 0 0 0 0 0 0 0 0.25 0"/><feBlend in2="BackgroundImageFix" result="effect1_dropShadow_200_41898"/><feBlend in="SourceGraphic" in2="effect1_dropShadow_200_41898" result="shape"/></filter></defs></svg>