<?xml version="1.0" encoding="utf-8"?>
<!-- Generator: Adobe Illustrator 24.1.1, SVG Export Plug-In . SVG Version: 6.00 Build 0)  -->
<svg version="1.1" id="Layer_1" xmlns="http://www.w3.org/2000/svg" xmlns:xlink="http://www.w3.org/1999/xlink" x="0px" y="0px"
	 viewBox="0 0 500 500" style="enable-background:new 0 0 500 500;" xml:space="preserve">
<style type="text/css">
	.st0{fill:#21A366;}
	.st1{fill:#185C37;}
	.st2{fill:#107C41;}
	.st3{fill:#33C481;}
	.st4{fill:#209D63;}
	.st5{fill:#175935;}
	.st6{fill:#0F783F;}
	.st7{fill:#175633;}
	.st8{fill:#1E935C;}
	.st9{fill:#165332;}
	.st10{fill:#0E703B;}
	.st11{fill:#155030;}
	.st12{fill:#1C8A56;}
	.st13{fill:#154E2E;}
	.st14{fill:#0D6937;}
	.st15{fill:#21A265;}
	.st16{fill:#209C62;}
	.st17{fill:#1E925B;}
	.st18{fill:#1C8855;}
	.st19{fill:#144B2D;}
	.st20{fill:#114227;}
	.st21{fill:#0F3A23;}
	.st22{fill:#0D321E;}
	.st23{fill:#1A8050;}
	.st24{fill:#13492B;}
	.st25{fill:#0D6233;}
	.st26{fill:#0C2E1C;}
	.st27{fill:#0B2919;}
	.st28{fill:#0A2617;}
	.st29{fill:#CBCBCB;}
	.st30{fill:#1A8251;}
	.st31{fill:#13492C;}
	.st32{fill:#CACACA;}
	.st33{fill:#156A42;}
	.st34{fill:#0A512A;}
	.st35{fill:#094926;}
	.st36{fill:#083F21;}
	.st37{fill:#07381E;}
	.st38{fill:#114127;}
	.st39{fill:#092415;}
	.st40{fill:#12462A;}
	.st41{fill:#113E25;}
	.st42{fill:#103B23;}
	.st43{fill:#0F3821;}
	.st44{fill:#0E3821;}
	.st45{fill:#0E3520;}
	.st46{fill:#0D331E;}
	.st47{fill:#0D301D;}
	.st48{fill:#0C2D1B;}
	.st49{fill:#13462A;}
	.st50{fill:#18794C;}
	.st51{fill:#124429;}
	.st52{fill:#0C5C30;}
	.st53{fill:#103A23;}
	.st54{fill:#0E341F;}
	.st55{fill:#0D311D;}
	.st56{fill:#0B2B1A;}
	.st57{fill:#0A2818;}
	.st58{fill:#0A2516;}
	.st59{fill:#103D24;}
	.st60{fill:#0C2C1B;}
	.st61{fill:#0A2718;}
	.st62{fill:#0A2616;}
	.st63{fill:#0A2416;}
	.st64{fill:#092315;}
	.st65{fill:#14653F;}
	.st66{fill:#0F3922;}
	.st67{fill:#0A4D28;}
	.st68{fill:#135C39;}
	.st69{fill:#094624;}
	.st70{fill:#083D20;}
	.st71{fill:#07361D;}
	.st72{fill:#07331B;}
	.st73{fill:#063119;}
	.st74{fill:#062F19;}
	.st75{fill:#092214;}
	.st76{fill:#062E18;}
	.st77{fill:#0C3B25;}
	.st78{fill:#062D18;}
	.st79{fill:#1F975F;}
	.st80{fill:#BFBFBF;}
	.st81{fill:#BEBEBE;}
	.st82{fill:#197D4E;}
	.st83{fill:#B9B9B9;}
	.st84{fill:#18774A;}
	.st85{fill:#114328;}
	.st86{fill:#103C24;}
	.st87{fill:#092114;}
	.st88{fill:#1B8453;}
	.st89{fill:#197C4E;}
	.st90{fill:#187549;}
	.st91{fill:#14623D;}
	.st92{fill:#115535;}
	.st93{fill:#166F45;}
	.st94{fill:#AFAFAF;}
	.st95{fill:#177046;}
	.st96{fill:#103F26;}
	.st97{fill:#AEAEAE;}
	.st98{fill:#176F46;}
	.st99{fill:#0B552C;}
	.st100{fill:#166D44;}
	.st101{fill:#156942;}
	.st102{fill:#156640;}
	.st103{fill:#14643F;}
	.st104{fill:#135E3B;}
	.st105{fill:#115233;}
	.st106{fill:#104F32;}
	.st107{fill:#104D30;}
	.st108{fill:#0F4C2F;}
	.st109{fill:#0F4A2E;}
	.st110{fill:#0E472C;}
	.st111{fill:#0E462C;}
	.st112{fill:#0E442B;}
	.st113{fill:#135D3A;}
	.st114{fill:#094725;}
	.st115{fill:#105133;}
	.st116{fill:#083E20;}
	.st117{fill:#0F492E;}
	.st118{fill:#07371D;}
	.st119{fill:#14643E;}
	.st120{fill:#0F3822;}
	.st121{fill:#0A4C28;}
	.st122{fill:#0F4C30;}
	.st123{fill:#073A1E;}
	.st124{fill:#07361C;}
	.st125{fill:#0E442A;}
	.st126{fill:#07341B;}
	.st127{fill:#0D4229;}
	.st128{fill:#06321A;}
	.st129{fill:#06311A;}
	.st130{fill:#07321A;}
	.st131{fill:#063019;}
	.st132{fill:#084122;}
	.st133{fill:#0E462B;}
	.st134{fill:#07351C;}
	.st135{fill:#0D4128;}
	.st136{fill:#062D17;}
	.st137{fill:#062C17;}
	.st138{fill:#0C3A24;}
	.st139{fill:#FFFFFF;}
</style>
<g>
	<path class="st0" d="M173.87,82.91h243.3c4.09-0.02,7.99,1.66,10.78,4.63c2.85,3.05,4.44,7.07,4.44,11.25v301.65
		c-0.01,4.18-1.6,8.19-4.44,11.25c-2.79,2.97-6.7,4.65-10.78,4.63h-243.3c-8.51-0.15-15.28-7.18-15.13-15.69v-0.1V98.8
		c-0.21-8.53,6.5-15.63,15.03-15.89H173.87"/>
	<path class="st1" d="M158.75,249.62v151.29c-0.42,8.51,6.12,15.74,14.63,16.16l0.13,0.01H417.2c8.57-0.15,15.39-7.22,15.22-15.78
		v-0.1V249.9L158.75,249.62"/>
	<polyline class="st2" points="158.75,166.31 432.41,166.31 432.41,249.71 158.75,249.71 158.75,166.31 	"/>
	<path class="st3" d="M417.19,82.91h-121.6v250.11h136.83V98.8c-0.01-4.18-1.6-8.19-4.44-11.25
		C425.17,84.57,421.26,82.89,417.19,82.91z"/>
	<rect x="295.58" y="166.31" class="st0" width="136.92" height="83.4"/>
	<rect x="295.58" y="249.62" class="st2" width="136.92" height="83.4"/>
	<path class="st4" d="M266.92,249.71h-4.35v0.02l4.35,0V249.71 M255.57,151h-7.76c0.73,1.14,1.26,2.42,1.55,3.78h1.77v-0.01h0.09
		c0.1,0,0.19,0.01,0.29,0.01c6.22,0.21,11.12,5.35,11.06,11.53h4.34v-3.4C267.09,156.49,262.01,151.16,255.57,151"/>
	<path class="st5" d="M262.57,249.73v90.48v0.1c0.02,1.18-0.14,2.31-0.45,3.39c0,0.95-0.13,1.88-0.35,2.76
		c3.18-2.14,5.24-5.81,5.15-9.94v-0.01v-86.79L262.57,249.73"/>
	<path class="st6" d="M266.92,166.31h-4.34c0,0.09,0,0.19-0.01,0.28v83.12h4.35V166.31"/>
	<path class="st7" d="M159.04,346.84v26.84h75.65c8.34-0.05,15.1-6.73,15.31-15.02c-0.53,0.25-1.09,0.47-1.66,0.64
		c-2.53,4.98-7.69,8.39-13.65,8.43h-75.65v-5.3V346.84L159.04,346.84"/>
	<path class="st8" d="M262.57,249.71h-0.47v0.02l0.47,0V249.71 M251.23,154.77h-0.09v0.01h-1.77c0.19,0.88,0.28,1.8,0.25,2.74v2.08
		h1.43c4.48,0.18,8.26,2.89,10.02,6.71h1.52c0.06-6.19-4.84-11.32-11.06-11.53C251.42,154.78,251.33,154.77,251.23,154.77"/>
	<path class="st9" d="M262.11,249.73v93.24l0.01,0.22c0.01,0.17,0.01,0.35,0.01,0.52c0.31-1.08,0.46-2.21,0.45-3.39v-0.1v-90.48
		L262.11,249.73"/>
	<path class="st10" d="M262.58,166.31h-1.52c0.73,1.58,1.11,3.35,1.05,5.2v78.2h0.47v-83.12
		C262.58,166.5,262.58,166.41,262.58,166.31"/>
	<path class="st7" d="M261.78,346.47c-0.44,0.29-0.89,0.56-1.37,0.79c-1.04,1.46-2.42,2.67-4.01,3.52
		c-0.31,1.28-0.82,2.48-1.51,3.57C258.29,352.98,260.88,350.04,261.78,346.47"/>
	<path class="st9" d="M262.13,343.7c-0.37,1.29-0.95,2.49-1.72,3.56c0.48-0.23,0.93-0.5,1.37-0.79
		C262,345.58,262.12,344.66,262.13,343.7"/>
	<path class="st11" d="M260.41,347.26c-1.14,0.56-2.38,0.94-3.7,1.1c-0.02,0.83-0.13,1.64-0.32,2.42
		C258,349.93,259.37,348.72,260.41,347.26"/>
	<path class="st12" d="M262.11,249.71h-1.62v0.01l1.62,0V249.71 M251.04,159.61h-1.43v0.63c0,0.2,0.01,0.4,0,0.6v2.43
		c0,0.2,0.01,0.4,0,0.6v1.82c1.12,0.06,2.19,0.28,3.2,0.64h8.24C259.3,162.5,255.52,159.78,251.04,159.61"/>
	<path class="st13" d="M260.49,249.73v89.64v0.01c0.08,3.5-1.38,6.67-3.77,8.86c0,0.04,0,0.08,0,0.12c1.31-0.16,2.56-0.54,3.7-1.1
		c0.76-1.07,1.35-2.27,1.72-3.56c0-0.17,0-0.34-0.01-0.52l-0.01-0.22v-93.24L260.49,249.73"/>
	<path class="st14" d="M261.06,166.31h-8.24c4.45,1.58,7.64,5.81,7.67,10.78v72.62h1.62v-78.2
		C262.17,169.66,261.79,167.89,261.06,166.31"/>
	<path class="st15" d="M238.28,145.61h-0.1h-79.43v10.77l0,0v-7.46h79.43h0.1c2.37,0.06,4.55,0.82,6.36,2.08h3.17
		C245.8,147.84,242.3,145.71,238.28,145.61"/>
	<path class="st16" d="M247.81,151h-3.17c1.42,0.99,2.6,2.28,3.46,3.78h1.27C249.07,153.42,248.54,152.14,247.81,151"/>
	<path class="st17" d="M249.36,154.78h-1.27c0.83,1.45,1.35,3.08,1.49,4.82h0.03v-2.08C249.64,156.58,249.55,155.66,249.36,154.78"
		/>
	<path class="st18" d="M249.62,159.61h-0.03c0.02,0.21,0.03,0.42,0.03,0.63V159.61"/>
	<path class="st19" d="M248.33,359.3c-0.94,0.28-1.94,0.44-2.97,0.48h-2.13c-2.44,1.66-5.38,2.63-8.55,2.65h-75.65v5.3h75.65
		C240.65,367.69,245.8,364.27,248.33,359.3"/>
	<path class="st20" d="M159.04,346.84v15.58h75.65c3.17-0.02,6.11-0.99,8.55-2.65h-77.39h-0.01c-1.39-0.04-2.66-0.57-3.63-1.42
		h-3.16v-3.59V346.84L159.04,346.84"/>
	<path class="st21" d="M160.23,354.77h-1.19v3.59h3.16C161.15,357.46,160.44,356.19,160.23,354.77"/>
	<path class="st22" d="M159.04,346.84v7.93h1.19c-0.05-0.34-0.07-0.69-0.06-1.04v-6.83c-0.07,0-0.13,0-0.2,0
		C159.66,346.9,159.35,346.88,159.04,346.84"/>
	<path class="st23" d="M260.49,249.71h-3.77v0.01l3.77,0V249.71 M249.62,165.67v0.5c0.06,0.05,0.13,0.09,0.19,0.14h3.01
		C251.81,165.95,250.73,165.73,249.62,165.67"/>
	<path class="st24" d="M256.72,249.72v98.23c0,0.09,0,0.19,0,0.28c2.39-2.19,3.86-5.36,3.77-8.86v-0.01v-89.64L256.72,249.72"/>
	<path class="st25" d="M252.82,166.31h-3.01c2.11,1.62,3.61,3.49,3.61,5.67v5.19c2.12,2.17,3.39,5.15,3.31,8.42v64.11h3.77v-72.62
		C260.46,172.12,257.27,167.89,252.82,166.31"/>
	<path class="st11" d="M158.93,339.3v7.53c0.03,0,0.07,0.01,0.1,0.01v-7.46C159,339.36,158.97,339.33,158.93,339.3"/>
	<path class="st26" d="M159.13,346.26h-0.09v0.58c0.31,0.04,0.62,0.06,0.94,0.06c0.07,0,0.13,0,0.2,0v-0.07h-1.04V346.26"/>
	<polyline class="st27" points="160.17,346.26 159.13,346.26 159.13,346.83 160.17,346.83 160.17,346.26 	"/>
	<path class="st27" d="M159.04,339.39v6.88h0.09v-6.8C159.1,339.43,159.07,339.41,159.04,339.39"/>
	<path class="st28" d="M159.13,339.46v6.8h1.04v-6.16C159.8,339.93,159.45,339.71,159.13,339.46"/>
	<path class="st29" d="M158.74,156.37c-1.18,1.07-1.91,2.63-1.88,4.35v0.1v173.99c0,1.7,0.72,3.24,1.88,4.31v-3.71
		c-0.75-1.01-1.18-2.27-1.13-3.63v-2.37c0-0.12,0-0.25,0-0.37v-3.22c0-0.06,0-0.12,0-0.19v-24.4h1.13V156.37"/>
	<path class="st30" d="M158.74,335.42v3.71c0,0,0.01,0.01,0.01,0.01v-3.7C158.75,335.43,158.75,335.43,158.74,335.42"/>
	<path class="st31" d="M158.75,335.44v3.7c0.06,0.05,0.12,0.11,0.18,0.16v-3.63C158.87,335.59,158.81,335.52,158.75,335.44"/>
	<path class="st32" d="M158.74,301.25h-1.13v24.4c0,0.06,0,0.12,0,0.19v-21.18h1.13V301.25"/>
	<path class="st33" d="M249.62,166.17v0.14h0.19C249.74,166.26,249.68,166.22,249.62,166.17"/>
	<path class="st34" d="M249.8,166.31h-0.19v3.51c1.28,1.71,2.09,3.79,2.25,6.03c0.55,0.4,1.07,0.84,1.54,1.33v-5.19
		C253.41,169.81,251.91,167.93,249.8,166.31"/>
	<path class="st35" d="M249.62,169.82v1.86c0.23,0.99,0.36,2.02,0.38,3.07c0.66,0.31,1.29,0.67,1.87,1.09
		C251.7,173.61,250.89,171.53,249.62,169.82"/>
	<path class="st36" d="M249.62,171.69L249.62,171.69c0.23,0.99,0.36,2.02,0.38,3.07v0C249.97,173.7,249.84,172.68,249.62,171.69"/>
	<path class="st37" d="M249.62,171.69v2.9c0.13,0.05,0.25,0.11,0.38,0.17C249.97,173.71,249.84,172.68,249.62,171.69"/>
	<path class="st38" d="M158.93,335.67v3.63c0.03,0.03,0.07,0.06,0.1,0.08v-3.6C159,335.75,158.97,335.71,158.93,335.67"/>
	<path class="st28" d="M159.04,335.79v3.6c0.03,0.02,0.06,0.05,0.09,0.07v-3.57C159.1,335.86,159.07,335.82,159.04,335.79"/>
	<path class="st39" d="M159.13,335.89v3.57c0.32,0.25,0.67,0.47,1.04,0.65v-3.32C159.79,336.53,159.44,336.23,159.13,335.89"/>
	<path class="st7" d="M254.89,354.34c-1.19,0.48-2.49,0.77-3.85,0.82H250v3.11c0,0.13,0,0.26,0,0.39
		C252.01,357.71,253.7,356.2,254.89,354.34"/>
	<path class="st11" d="M250,355.16h-0.26c-0.27,1.46-0.75,2.85-1.41,4.14c0.57-0.17,1.13-0.38,1.66-0.64c0-0.13,0-0.26,0-0.39
		V355.16"/>
	<path class="st11" d="M256.4,350.78c-1.57,0.84-3.36,1.32-5.26,1.35H250v0.28l0,0v2.75h1.04c1.36-0.05,2.65-0.34,3.85-0.82
		C255.58,353.26,256.09,352.06,256.4,350.78"/>
	<path class="st19" d="M250,352.41c-0.01,0.94-0.1,1.86-0.26,2.75H250V352.41"/>
	<path class="st19" d="M256.71,348.35c-0.05,0.01-0.1,0.01-0.15,0.02c-1.78,1.57-4.05,2.61-6.56,2.86v0.9h1.13
		c1.9-0.03,3.69-0.52,5.26-1.35C256.58,350,256.69,349.19,256.71,348.35"/>
	<path class="st24" d="M256.72,348.23c-0.05,0.05-0.1,0.09-0.16,0.14c0.05-0.01,0.1-0.01,0.15-0.02
		C256.72,348.31,256.72,348.27,256.72,348.23"/>
	<path class="st40" d="M249.74,355.16h-2.06c-1.14,1.83-2.66,3.4-4.44,4.61h2.13c1.03-0.03,2.02-0.2,2.97-0.48
		C248.99,358.01,249.47,356.62,249.74,355.16"/>
	<path class="st41" d="M247.68,355.16h-3.75c-2.56,1.97-5.76,3.16-9.24,3.2H162.2c0.98,0.85,2.24,1.37,3.63,1.42h0.01h77.39
		C245.02,358.57,246.53,356.99,247.68,355.16"/>
	<path class="st20" d="M250,352.13h-0.87c-0.38,1.07-0.87,2.09-1.46,3.03h2.06c0.17-0.89,0.26-1.81,0.26-2.75V352.13"/>
	<path class="st42" d="M249.13,352.13h-2.21c-0.85,1.14-1.86,2.17-2.99,3.03h3.75C248.27,354.21,248.76,353.2,249.13,352.13"/>
	<path class="st41" d="M250,351.23c-0.2,0.02-0.39,0.03-0.59,0.04c-0.08,0.29-0.17,0.58-0.27,0.86H250V351.23"/>
	<path class="st43" d="M249.41,351.27c-0.09,0-0.18,0.01-0.27,0.01h-1.63c-0.19,0.29-0.39,0.57-0.59,0.85h2.21
		C249.23,351.85,249.32,351.56,249.41,351.27"/>
	<path class="st44" d="M169.65,354.77h-9.42c0.21,1.42,0.93,2.69,1.97,3.59h72.49c3.48-0.04,6.68-1.23,9.24-3.2h-72.41
		C170.86,355.13,170.23,354.99,169.65,354.77"/>
	<path class="st45" d="M246.92,352.13h-3.57c-2.44,1.67-5.4,2.64-8.57,2.64c-0.03,0-0.06,0-0.09,0h-65.04
		c0.58,0.23,1.21,0.36,1.87,0.39h72.41C245.06,354.29,246.07,353.27,246.92,352.13"/>
	<path class="st46" d="M247.51,351.28h-3.03c-0.36,0.3-0.74,0.58-1.13,0.85h3.57C247.13,351.85,247.33,351.57,247.51,351.28"/>
	<path class="st47" d="M164.11,346.83h-3.09c-0.28,0.04-0.57,0.06-0.85,0.07v6.83c-0.01,0.35,0.01,0.7,0.06,1.04h9.42
		c-2.07-0.8-3.57-2.72-3.78-5C165.02,348.99,164.4,347.98,164.11,346.83"/>
	<path class="st26" d="M165.87,349.76c0.21,2.28,1.71,4.2,3.78,5h65.04c0.03,0,0.06,0,0.09,0c3.18,0,6.13-0.97,8.57-2.64H171.7h-0.1
		c-1.12-0.04-2.16-0.39-3.02-0.98C167.55,350.93,166.62,350.44,165.87,349.76"/>
	<path class="st48" d="M168.57,351.15c0.87,0.58,1.9,0.94,3.02,0.98h0.1h71.65c0.39-0.27,0.77-0.55,1.13-0.85h-74.77
		C169.32,351.27,168.94,351.23,168.57,351.15"/>
	<path class="st49" d="M256.56,348.37c-0.33,0.04-0.65,0.06-0.99,0.06H250v2.79C252.51,350.98,254.78,349.95,256.56,348.37"/>
	<polyline class="st50" points="256.72,249.71 253.41,249.71 253.41,249.72 256.72,249.72 256.72,249.71 	"/>
	<path class="st51" d="M253.41,249.72v79.14c0.03,2.16-0.52,4.19-1.52,5.94v0.11v0.01c0.06,2.45-0.64,4.74-1.89,6.64v1.29l0,0v5.58
		h5.57c0.33-0.01,0.66-0.03,0.99-0.06c0.05-0.05,0.1-0.09,0.16-0.14c0-0.09,0-0.19,0-0.28v-98.23L253.41,249.72"/>
	<path class="st52" d="M253.41,177.18v72.53h3.31V185.6C256.8,182.33,255.53,179.35,253.41,177.18"/>
	<path class="st42" d="M250,348.44h-0.06c-0.09,0.97-0.27,1.92-0.53,2.83c0.2-0.01,0.4-0.02,0.59-0.04V348.44"/>
	<path class="st53" d="M250,347.11c0,0.45-0.02,0.89-0.06,1.33H250V347.11"/>
	<path class="st45" d="M249.94,348.44h-0.97c-0.39,1-0.87,1.95-1.45,2.84h1.63c0.09,0,0.18-0.01,0.27-0.01
		C249.67,350.36,249.85,349.41,249.94,348.44"/>
	<path class="st54" d="M250,342.85c0,1.97-0.37,3.85-1.04,5.58h0.97c0.04-0.44,0.06-0.88,0.06-1.33V342.85"/>
	<path class="st55" d="M248.97,348.44h-1.83c-0.76,1.06-1.66,2.01-2.66,2.84h3.03C248.09,350.39,248.58,349.44,248.97,348.44"/>
	<path class="st47" d="M250,341.57c-0.05,0.08-0.11,0.17-0.17,0.25c-0.37,2.45-1.31,4.7-2.69,6.62h1.83
		c0.67-1.73,1.04-3.62,1.04-5.58V341.57"/>
	<path class="st26" d="M165.84,346.83h-1.73c0.28,1.15,0.91,2.16,1.76,2.94c-0.02-0.18-0.03-0.37-0.03-0.56V346.83"/>
	<path class="st48" d="M166.04,346.83h-0.2v2.38c0,0.19,0.01,0.37,0.03,0.56c0.75,0.68,1.68,1.17,2.71,1.39
		C167.15,350.19,166.19,348.62,166.04,346.83"/>
	<path class="st56" d="M172.19,346.83h-6.15c0.14,1.79,1.11,3.37,2.53,4.32c0.37,0.08,0.74,0.12,1.13,0.13h74.77
		c1-0.83,1.9-1.78,2.66-2.84h-71.09h-0.01C174.54,348.39,173.2,347.78,172.19,346.83"/>
	<path class="st56" d="M249.83,341.82c-2.04,2.95-5.42,4.92-9.29,5.01h-5.77l0,0h-62.58c1,0.96,2.35,1.56,3.85,1.61h0.01h71.09
		C248.52,346.52,249.47,344.26,249.83,341.82"/>
	<path class="st48" d="M161.02,346.83h-0.85v0.07C160.45,346.89,160.73,346.87,161.02,346.83"/>
	<path class="st57" d="M164,346.26h-3.83v0.57h0.85l0,0h3.09C164.07,346.64,164.03,346.45,164,346.26"/>
	<path class="st58" d="M160.17,340.11v6.16H164c-0.04-0.31-0.07-0.62-0.06-0.94v-4.63h-1.41
		C161.69,340.66,160.89,340.45,160.17,340.11"/>
	<path class="st59" d="M251.89,334.8c-0.52,0.91-1.16,1.74-1.89,2.48v4.28c1.25-1.9,1.95-4.2,1.89-6.64v-0.01V334.8"/>
	<path class="st60" d="M250,339.64c0,0.74-0.06,1.47-0.17,2.18c0.06-0.08,0.11-0.17,0.17-0.25V339.64"/>
	<path class="st57" d="M250,337.28c-0.56,0.56-1.17,1.06-1.83,1.49c-2.57,4.76-7.6,8.01-13.39,8.05h5.77
		c3.87-0.09,7.25-2.06,9.29-5.01c0.11-0.71,0.16-1.44,0.17-2.18V337.28"/>
	<path class="st61" d="M165.84,346.26H164c0.03,0.19,0.06,0.38,0.11,0.57h1.73V346.26"/>
	<path class="st28" d="M166.02,346.26h-0.18v0.57h0.2C166.03,346.64,166.02,346.45,166.02,346.26"/>
	<path class="st62" d="M171.67,346.26h-5.65c0,0.19,0,0.38,0.02,0.57h6.15C172.01,346.65,171.83,346.46,171.67,346.26"/>
	<path class="st58" d="M248.17,338.78c-0.17,0.11-0.34,0.22-0.52,0.32c-2.71,4.3-7.5,7.16-12.96,7.16h-63.02
		c0.16,0.2,0.34,0.39,0.52,0.57h62.58C240.57,346.79,245.6,343.54,248.17,338.78"/>
	<path class="st63" d="M165.84,340.69h-1.9v4.63c0,0.32,0.02,0.63,0.06,0.94h1.84V340.69"/>
	<path class="st39" d="M166.02,340.69h-0.18v5.57h0.18c0-0.03,0-0.06,0-0.09V340.69"/>
	<path class="st64" d="M170.37,340.69h-4.35v5.48c0,0.03,0,0.06,0,0.09h5.65c-0.85-1.06-1.34-2.41-1.3-3.87V340.69"/>
	<path class="st64" d="M247.65,339.1c-1.64,0.96-3.55,1.54-5.59,1.59h-71.69v1.7c-0.05,1.46,0.45,2.82,1.3,3.87h63.02
		C240.15,346.26,244.94,343.4,247.65,339.1"/>
	<polyline class="st65" points="253.41,249.71 251.89,249.71 251.89,249.72 253.41,249.72 253.41,249.71 	"/>
	<path class="st66" d="M251.89,249.72v85.09c1-1.75,1.55-3.78,1.52-5.94v-79.14L251.89,249.72"/>
	<path class="st67" d="M251.87,175.85c0.03,0.41,0.04,0.82,0.02,1.24v72.62h1.52v-72.53C252.94,176.69,252.42,176.25,251.87,175.85"
		/>
	<path class="st64" d="M160.17,336.78v3.32c0.72,0.35,1.52,0.55,2.37,0.58h1.41v-3.06l-0.66,0.13h-0.1
		C162.06,337.72,161.03,337.36,160.17,336.78"/>
	<polyline class="st68" points="251.89,249.71 250,249.71 250,249.72 251.89,249.72 251.89,249.71 	"/>
	<path class="st54" d="M250,249.72v87.57c0.74-0.74,1.37-1.57,1.89-2.48v-85.09L250,249.72"/>
	<path class="st69" d="M250,174.76c0,0.12,0,0.24,0,0.35v3.59l0,0v3.4l0,0v67.61h1.89v-72.62c0.01-0.42,0.01-0.83-0.02-1.24
		C251.28,175.43,250.66,175.07,250,174.76"/>
	<path class="st70" d="M250,174.76c0,0.12,0,0.24,0,0.35v3.59l0,0v-3.59C250,174.99,250,174.88,250,174.76L250,174.76"/>
	<path class="st71" d="M249.62,174.59v0.95c0.23,1.02,0.36,2.08,0.38,3.16v-3.59c0-0.12,0-0.24,0-0.35
		C249.87,174.7,249.74,174.64,249.62,174.59"/>
	<path class="st72" d="M249.62,175.54v3.5c0.23,0.99,0.36,2.01,0.38,3.06v-3.4C249.98,177.62,249.85,176.56,249.62,175.54"/>
	<path class="st58" d="M250,331.51c0,2.63-0.66,5.1-1.83,7.27c0.66-0.44,1.27-0.94,1.83-1.49V331.51"/>
	<path class="st64" d="M250,330.95c0,3-0.86,5.79-2.35,8.16c0.18-0.1,0.35-0.21,0.52-0.32c1.17-2.16,1.83-4.64,1.83-7.27V330.95"/>
	<path class="st73" d="M249.62,179.04v4.16c0.23,1.02,0.36,2.08,0.38,3.16v5.3l0,0v58.05V182.1
		C249.98,181.05,249.84,180.03,249.62,179.04"/>
	<path class="st74" d="M249.62,183.2v5.3c0.23,1.02,0.36,2.08,0.38,3.16v-5.3C249.98,185.27,249.85,184.22,249.62,183.2"/>
	<polyline class="st64" points="165.84,337.26 163.94,337.63 163.94,340.69 165.84,340.69 165.84,337.26 	"/>
	<polyline class="st75" points="166.02,337.23 165.84,337.26 165.84,340.69 166.02,340.69 166.02,337.23 	"/>
	<path class="st76" d="M249.62,188.5v5.77c0.24,1.05,0.37,2.13,0.38,3.25v52.19v-58.05C249.98,190.57,249.85,189.52,249.62,188.5"/>
	<polyline class="st75" points="170.37,336.4 166.02,337.23 166.02,340.69 170.37,340.69 170.37,336.4 	"/>
	<polyline class="st77" points="250,249.71 249.62,249.71 249.62,249.71 250,249.72 250,249.71 	"/>
	<path class="st75" d="M249.62,249.71v63.73c0,6.52-16.83,12.2-23.16,12.2l-56.08,10.75v4.29h71.69c2.04-0.05,3.94-0.62,5.59-1.59
		c1.49-2.36,2.35-5.16,2.35-8.16v-81.23L249.62,249.71"/>
	<path class="st78" d="M249.62,194.27v55.44H250v-52.19C249.99,196.4,249.86,195.31,249.62,194.27"/>
	<path class="st23" d="M249.62,160.23v3.02l0,0v-2.43C249.62,160.63,249.62,160.43,249.62,160.23"/>
	<path class="st79" d="M238.28,148.91h-0.1h-79.43v7.46l0,0v-4.44h14.3c0.87-0.56,1.9-0.91,3-0.94h68.59
		C242.83,149.74,240.65,148.97,238.28,148.91"/>
	<path class="st17" d="M244.64,151h-68.59c-1.11,0.04-2.14,0.38-3,0.94h65.13h0.1c2.81,0.07,5.37,1.13,7.34,2.84h2.48
		C247.24,153.28,246.06,151.99,244.64,151"/>
	<path class="st18" d="M248.1,154.78h-2.48c1.48,1.29,2.64,2.95,3.32,4.82h0.65C249.45,157.86,248.92,156.23,248.1,154.78"/>
	<path class="st23" d="M249.58,159.61h-0.65c0.41,1.15,0.65,2.37,0.69,3.65v-3.02C249.61,160.02,249.6,159.81,249.58,159.61"/>
	<path class="st80" d="M157.61,325.83v3.22c0,0.13,0,0.25,0,0.37V325.83L157.61,325.83"/>
	<polyline class="st81" points="158.74,304.66 157.61,304.66 157.61,325.83 157.61,325.83 157.61,307.49 158.74,307.49 
		158.74,304.66 	"/>
	<path class="st82" d="M249.62,163.26v2.41l0,0v-1.82C249.62,163.65,249.62,163.45,249.62,163.26"/>
	<path class="st83" d="M157.61,329.43v2.37c-0.04,1.36,0.38,2.62,1.13,3.63v-2.74C158.06,331.77,157.65,330.64,157.61,329.43"/>
	<path class="st84" d="M158.74,332.68v2.74c0,0,0.01,0.01,0.01,0.01v-2.74C158.75,332.69,158.75,332.69,158.74,332.68"/>
	<path class="st85" d="M158.75,332.7v2.74c0.06,0.08,0.12,0.16,0.18,0.23v-2.74C158.87,332.85,158.81,332.78,158.75,332.7"/>
	<path class="st86" d="M158.93,332.93v2.74c0.03,0.04,0.07,0.08,0.1,0.12v-2.74C159,333.01,158.97,332.97,158.93,332.93"/>
	<path class="st58" d="M159.04,333.05v2.74c0.03,0.03,0.06,0.07,0.09,0.1v-2.74C159.1,333.11,159.07,333.08,159.04,333.05"/>
	<path class="st64" d="M159.13,333.15v2.74c0.31,0.34,0.66,0.64,1.04,0.89v-2.74C159.79,333.79,159.44,333.49,159.13,333.15"/>
	<path class="st75" d="M160.17,334.04v2.74c0.86,0.58,1.9,0.93,3.01,0.97h0.1l0.66-0.13v-2.74l-0.66,0.13h-0.1
		C162.06,334.97,161.03,334.62,160.17,334.04"/>
	<polyline class="st75" points="165.84,334.52 163.94,334.89 163.94,337.63 165.84,337.26 165.84,334.52 	"/>
	<polyline class="st75" points="166.02,334.48 165.84,334.52 165.84,337.26 166.02,337.23 166.02,334.48 	"/>
	<polyline class="st87" points="170.37,333.64 166.02,334.48 166.02,337.23 170.37,336.4 170.37,333.64 	"/>
	<path class="st87" d="M249.62,249.71v60.9c0,6.52-16.83,12.2-23.16,12.2l-56.08,10.83v2.75l56.08-10.75
		c6.33,0,23.16-5.67,23.16-12.2V249.71"/>
	<path class="st18" d="M173.05,151.94h-14.3v4.44c1-0.91,2.33-1.48,3.79-1.5h8.18C171.16,153.66,171.98,152.63,173.05,151.94"/>
	<path class="st88" d="M238.28,151.94h-0.1h-65.13c-1.07,0.69-1.89,1.72-2.33,2.93h0.12c0.28-0.05,0.57-0.08,0.86-0.09h73.91
		C243.64,153.07,241.09,152.01,238.28,151.94"/>
	<path class="st89" d="M245.61,154.78H171.7c-0.29,0.01-0.58,0.04-0.86,0.09h49.57c5.54,0.03,11.01,1.43,15.89,4.07
		c0.16,0.21,0.45,0.43,0.83,0.67h11.8C248.25,157.73,247.1,156.07,245.61,154.78"/>
	<path class="st90" d="M248.93,159.61h-11.8c0.3,0.18,0.65,0.38,1.06,0.58c0.99,0.23,1.94,0.56,2.85,0.97
		c1,0.46,1.94,1.02,2.81,1.67c1.72,0.83,3.5,1.77,5.04,2.82h0.26c0.16,0,0.31,0.01,0.47,0.02v-2.41
		C249.58,161.98,249.35,160.75,248.93,159.61"/>
	<path class="st91" d="M238.19,160.19C238.19,160.19,238.19,160.19,238.19,160.19c0.99,0.23,1.94,0.56,2.85,0.97
		C240.13,160.75,239.18,160.42,238.19,160.19"/>
	<path class="st91" d="M241.04,161.16c1,0.46,1.94,1.02,2.81,1.67c0,0,0,0,0.01,0C242.98,162.18,242.04,161.62,241.04,161.16"/>
	<path class="st92" d="M238.19,160.19c1.45,0.74,3.51,1.61,5.66,2.64c-0.87-0.65-1.81-1.21-2.81-1.67
		C240.13,160.75,239.18,160.42,238.19,160.19"/>
	<path class="st93" d="M249.15,165.65h-0.26c0.25,0.17,0.49,0.34,0.72,0.52v-0.5C249.46,165.66,249.31,165.66,249.15,165.65"/>
	<path class="st94" d="M157.61,325.83v3.6c0.04,1.21,0.45,2.34,1.13,3.25v-3.51C158.05,328.24,157.63,327.08,157.61,325.83"/>
	<path class="st95" d="M158.74,329.17v3.51c0,0,0.01,0.01,0.01,0.01v-3.51C158.75,329.18,158.75,329.18,158.74,329.17"/>
	<path class="st96" d="M158.75,329.19v3.51c0.06,0.08,0.12,0.16,0.18,0.23v-3.51C158.87,329.34,158.81,329.27,158.75,329.19"/>
	<path class="st97" d="M158.74,307.49h-1.13v18.34c0.02,1.25,0.44,2.4,1.13,3.34V307.49"/>
	<path class="st98" d="M170.72,154.87h-8.18c-1.46,0.02-2.79,0.59-3.79,1.5v151.12v21.68c0,0,0.01,0.01,0.01,0.01v-79.57v-83.31
		h0.18v-0.66c0.03-0.01,0.07-0.02,0.1-0.03v-5.83h7.05c0.36-2.44,2.22-4.4,4.62-4.89C170.71,154.89,170.72,154.88,170.72,154.87"/>
	<path class="st96" d="M158.75,249.62v79.57c0.06,0.08,0.12,0.16,0.18,0.23v-79.71h-0.18V249.62"/>
	<polyline class="st99" points="158.93,166.31 158.75,166.31 158.75,249.62 158.75,249.71 158.93,249.71 158.93,166.31 	"/>
	<path class="st100" d="M170.84,154.87h-0.12c0,0.01-0.01,0.02-0.01,0.02C170.75,154.89,170.8,154.88,170.84,154.87"/>
	<path class="st101" d="M170.71,154.9c-2.41,0.49-4.27,2.45-4.62,4.89h4.15c0.05-0.01,0.09-0.02,0.14-0.03v-2.8
		C170.36,156.23,170.48,155.54,170.71,154.9"/>
	<path class="st102" d="M220.4,154.87h-49.57c-0.04,0.01-0.08,0.02-0.13,0.02c-0.23,0.64-0.35,1.34-0.34,2.06v2.8
		c0.37-0.09,0.75-0.14,1.14-0.15h65.61c-0.38-0.24-0.67-0.46-0.83-0.67C231.41,156.3,225.95,154.9,220.4,154.87"/>
	<path class="st103" d="M170.37,159.75c-0.05,0.01-0.09,0.02-0.14,0.03h0.14V159.75"/>
	<path class="st91" d="M237.13,159.61h-65.61c-0.39,0.01-0.77,0.06-1.14,0.15v0.03h64.3l0,0h0.1c1.17,0.01,2.31,0.15,3.41,0.4
		C237.78,159.98,237.42,159.79,237.13,159.61"/>
	<path class="st92" d="M234.78,159.79h-0.1c1.21,0,2.38,0.14,3.51,0.4c0,0,0,0,0,0C237.09,159.93,235.95,159.79,234.78,159.79"/>
	<path class="st91" d="M243.85,162.83c1.08,0.81,2.05,1.76,2.89,2.82h2.16C247.35,164.6,245.57,163.66,243.85,162.83"/>
	<polyline class="st104" points="166.09,159.79 159.04,159.79 159.04,165.62 159.04,165.62 159.04,163.57 159.13,163.57 
		159.13,159.79 166.09,159.79 166.09,159.79 	"/>
	<path class="st92" d="M243.84,162.83c1.08,0.81,2.06,1.76,2.89,2.82h0C245.9,164.59,244.93,163.64,243.84,162.83
		C243.85,162.83,243.85,162.83,243.84,162.83"/>
	<path class="st105" d="M166.09,159.79h-6.96v3.78h6.9v-2.92C166.02,160.36,166.05,160.07,166.09,159.79"/>
	<path class="st106" d="M170.24,159.79h-4.15c-0.04,0.28-0.06,0.57-0.06,0.86v2.92h0.13C166.79,161.72,168.32,160.28,170.24,159.79"
		/>
	<path class="st107" d="M170.37,159.79h-0.14c-1.92,0.49-3.45,1.94-4.08,3.78h4.22V159.79"/>
	<path class="st108" d="M234.68,159.79h-64.3v3.78h64.3c2.48,0.01,4.83,0.62,6.9,1.67c0.71,0.07,1.4,0.21,2.07,0.41h3.09
		c-0.83-1.06-1.81-2.01-2.89-2.82c-2.14-1.03-4.21-1.9-5.66-2.64C237.06,159.93,235.89,159.79,234.68,159.79"/>
	<path class="st105" d="M159.13,163.57h-0.09v2.05c0.03-0.01,0.06-0.02,0.09-0.03V163.57"/>
	<path class="st109" d="M166.02,163.57h-6.9v2.02c0.28-0.08,0.56-0.12,0.85-0.12c0.35,0,0.7,0.06,1.04,0.17h4.82
		c-0.02-0.57,0.05-1.12,0.18-1.65V163.57"/>
	<path class="st110" d="M166.15,163.57h-0.13V164C166.06,163.86,166.11,163.71,166.15,163.57"/>
	<path class="st110" d="M166.02,164c-0.14,0.53-0.2,1.08-0.18,1.65h0.18V164"/>
	<path class="st111" d="M170.37,163.57h-4.22c-0.05,0.14-0.09,0.29-0.13,0.43v1.65h4.35V163.57"/>
	<path class="st112" d="M234.68,163.57h-64.3v2.08h69.98l0.2-0.47h0.19c0.28,0.01,0.56,0.03,0.83,0.06
		C239.5,164.19,237.16,163.59,234.68,163.57"/>
	<path class="st113" d="M248.89,165.65h-2.16c0.17,0.21,0.33,0.43,0.49,0.66h2.39v-0.14C249.38,166,249.14,165.82,248.89,165.65"/>
	<path class="st114" d="M249.62,166.31h-2.39c0.5,0.71,0.94,1.47,1.32,2.27c0.39,0.39,0.75,0.8,1.07,1.24V166.31"/>
	<path class="st115" d="M246.74,165.65L246.74,165.65c0.17,0.21,0.33,0.43,0.49,0.66h0C247.07,166.09,246.91,165.87,246.74,165.65"
		/>
	<path class="st116" d="M247.23,166.31L247.23,166.31c0.5,0.71,0.94,1.47,1.31,2.26c0,0,0,0,0,0
		C248.17,167.78,247.73,167.02,247.23,166.31"/>
	<path class="st117" d="M246.74,165.65h-3.09c0.59,0.17,1.16,0.4,1.71,0.66h1.87C247.07,166.09,246.9,165.87,246.74,165.65"/>
	<path class="st118" d="M247.22,166.31h-1.87c1.19,0.57,2.26,1.34,3.18,2.26C248.17,167.78,247.72,167.02,247.22,166.31"/>
	<path class="st66" d="M158.93,329.42v3.51c0.03,0.04,0.07,0.08,0.1,0.12v-3.51C159,329.5,158.97,329.46,158.93,329.42"/>
	<path class="st119" d="M159.04,165.62c-0.03,0.01-0.07,0.02-0.1,0.03v0.66h0.1V165.62"/>
	<path class="st120" d="M159.04,249.71h-0.1v79.71c0.03,0.04,0.07,0.08,0.1,0.12V249.71"/>
	<polyline class="st121" points="159.04,166.31 158.93,166.31 158.93,249.71 159.04,249.71 159.04,182.29 159.04,171.23 
		159.04,166.31 	"/>
	<path class="st110" d="M241.58,165.25c0.25,0.13,0.5,0.27,0.75,0.41h1.32C242.98,165.46,242.29,165.32,241.58,165.25"/>
	<path class="st122" d="M159.13,165.59c-0.03,0.01-0.06,0.02-0.09,0.03v0.69h0.09V165.59"/>
	<polyline class="st123" points="159.13,166.31 159.04,166.31 159.04,171.23 159.04,167.16 159.13,167.16 159.13,166.31 	"/>
	<path class="st111" d="M159.98,165.48c-0.29,0-0.57,0.04-0.85,0.12v0.72h6.72v-0.65v-0.01l0,0h-4.82
		C160.68,165.54,160.33,165.48,159.98,165.48"/>
	<path class="st124" d="M165.84,166.31h-6.72v0.85h6.7c0.01,0,0.01-0.01,0.02-0.01V166.31"/>
	<polyline class="st125" points="166.02,165.65 165.84,165.65 165.84,165.65 165.84,165.66 165.84,166.31 166.02,166.31 
		166.02,165.65 	"/>
	<path class="st126" d="M166.02,166.31h-0.18v0.84c0.06-0.05,0.12-0.11,0.18-0.16V166.31"/>
	<path class="st127" d="M170.37,165.65h-4.35v0.66h1.01c0.8-0.42,1.71-0.66,2.68-0.66H170.37"/>
	<path class="st128" d="M167.04,166.31h-1.01v0.68C166.34,166.73,166.68,166.5,167.04,166.31"/>
	<path class="st127" d="M240.75,165.19h-0.19l-0.2,0.47h-69.98h71.95c-0.25-0.14-0.5-0.28-0.75-0.41
		C241.3,165.22,241.03,165.2,240.75,165.19"/>
	<polyline class="st124" points="159.13,167.16 159.04,167.16 159.04,171.23 159.13,171.23 159.13,167.16 	"/>
	<polyline class="st126" points="159.13,171.23 159.04,171.23 159.04,176.53 159.13,176.53 159.13,171.23 	"/>
	<path class="st63" d="M159.04,329.54v3.51c0.03,0.03,0.06,0.07,0.09,0.1v-3.51C159.1,329.61,159.07,329.57,159.04,329.54"/>
	<polyline class="st129" points="159.13,176.53 159.04,176.53 159.04,182.29 159.13,182.29 159.13,176.53 	"/>
	<path class="st63" d="M159.13,249.71h-0.09v79.83c0.03,0.03,0.06,0.07,0.09,0.1V249.71"/>
	<polyline class="st129" points="159.13,182.29 159.04,182.29 159.04,249.71 159.13,249.71 159.13,182.29 	"/>
	<path class="st130" d="M165.83,167.16h-6.7v4.07h4.82C164,169.62,164.72,168.18,165.83,167.16"/>
	<path class="st131" d="M163.94,171.23h-4.82v5.3h1.92c0.67-1.09,1.68-1.96,2.9-2.44v-2.48v-0.19
		C163.94,171.36,163.94,171.29,163.94,171.23"/>
	<path class="st75" d="M159.13,329.64v3.51c0.31,0.34,0.66,0.64,1.04,0.89v-3.51C159.79,330.28,159.44,329.98,159.13,329.64"/>
	<path class="st74" d="M161.04,176.53h-1.92v5.77h1.04v-2.65C160.17,178.5,160.49,177.44,161.04,176.53"/>
	<path class="st75" d="M160.17,249.71h-1.04v79.93c0.31,0.34,0.66,0.64,1.04,0.9V249.71"/>
	<polyline class="st76" points="160.17,182.29 159.13,182.29 159.13,249.71 160.17,249.71 160.17,182.29 	"/>
	<path class="st132" d="M248.54,168.58c0.46,0.98,0.83,2.02,1.07,3.11v-1.86C249.29,169.38,248.93,168.97,248.54,168.58"/>
	<path class="st123" d="M248.54,168.57c0.47,0.98,0.83,2.03,1.08,3.11v0C249.37,170.6,249.01,169.56,248.54,168.57
		C248.54,168.58,248.54,168.58,248.54,168.57"/>
	<path class="st133" d="M243.65,165.65h-1.32c0.35,0.21,0.7,0.43,1.03,0.66h1.99C244.81,166.05,244.24,165.83,243.65,165.65"/>
	<path class="st134" d="M245.36,166.31h-1.99c2.81,1.95,4.95,4.81,5.97,8.16c0.1,0.04,0.19,0.08,0.28,0.12v-2.9
		c-0.25-1.09-0.61-2.13-1.08-3.11C247.62,167.65,246.55,166.88,245.36,166.31"/>
	<path class="st126" d="M165.84,167.15c-0.01,0-0.01,0.01-0.02,0.01h0.02V167.15"/>
	<path class="st128" d="M166.02,166.99c-0.06,0.05-0.12,0.1-0.18,0.16v0.01h0.18V166.99"/>
	<path class="st135" d="M170.37,165.65h-0.66c-0.97,0-1.88,0.24-2.68,0.66h3.34V165.65"/>
	<path class="st129" d="M170.37,166.31h-3.34c-0.36,0.19-0.7,0.42-1.01,0.68v0.17h4.35V166.31"/>
	<path class="st135" d="M242.33,165.65h-71.95v0.66h72.99C243.03,166.08,242.68,165.86,242.33,165.65"/>
	<path class="st129" d="M243.36,166.31h-72.99v0.85h64.3c5.27,0,9.94,2.67,12.7,6.74c0.67,0.13,1.33,0.33,1.95,0.57
		C248.31,171.12,246.18,168.26,243.36,166.31"/>
	<path class="st129" d="M165.84,167.16h-0.02c-1.11,1.01-1.82,2.46-1.88,4.07h1.9V167.16"/>
	<path class="st74" d="M165.84,171.23h-1.9c0,0.06,0,0.13,0,0.19v0.19v2.48c0.59-0.23,1.23-0.38,1.9-0.41V171.23"/>
	<polyline class="st73" points="166.02,167.16 165.84,167.16 165.84,171.23 166.02,171.23 166.02,167.16 	"/>
	<polyline class="st74" points="166.02,171.23 165.84,171.23 165.84,173.69 165.84,173.69 166.02,173.69 166.02,171.23 	"/>
	<polyline class="st74" points="170.37,167.16 166.02,167.16 166.02,171.23 170.37,171.23 170.37,167.16 	"/>
	<path class="st74" d="M234.68,167.16h-64.3v4.07h64.3c3.04,0.02,5.88,0.92,8.26,2.46h2.43h0.1c0.65,0.02,1.29,0.09,1.91,0.22
		C244.62,169.83,239.95,167.16,234.68,167.16"/>
	<polyline class="st76" points="170.37,171.23 166.02,171.23 166.02,173.69 170.37,173.69 170.37,171.23 	"/>
	<path class="st76" d="M234.68,171.23h-64.3v2.46h72.56C240.55,172.15,237.72,171.25,234.68,171.23"/>
	<path class="st74" d="M163.94,174.09c-1.21,0.48-2.23,1.34-2.9,2.44h2.9V174.09"/>
	<path class="st75" d="M160.17,330.53v3.51c0.86,0.58,1.9,0.93,3.01,0.97h0.1l0.66-0.13v-3.5l-0.66,0.13
		C162.13,331.49,161.06,331.13,160.17,330.53"/>
	<path class="st76" d="M163.94,176.53h-2.9c-0.56,0.91-0.88,1.98-0.88,3.12v2.65h3.77V176.53"/>
	<path class="st75" d="M163.94,249.71h-3.77v80.82c0.89,0.6,1.96,0.96,3.12,0.98l0.66-0.13V249.71"/>
	<polyline class="st76" points="163.94,182.29 160.17,182.29 160.17,249.71 163.94,249.71 163.94,182.29 	"/>
	<path class="st72" d="M249.33,174.48c0.11,0.35,0.2,0.7,0.28,1.06v-0.95C249.52,174.55,249.43,174.51,249.33,174.48"/>
	<path class="st131" d="M247.38,173.9c1.04,1.53,1.81,3.27,2.24,5.13v-3.5c-0.08-0.36-0.18-0.71-0.28-1.06
		C248.71,174.23,248.05,174.04,247.38,173.9"/>
	<path class="st74" d="M165.84,173.69c-0.67,0.03-1.31,0.17-1.9,0.41v2.44h1.9V173.69"/>
	<polyline class="st76" points="166.02,173.69 165.84,173.69 165.84,173.69 165.84,176.53 166.02,176.53 166.02,173.69 	"/>
	<path class="st74" d="M245.47,173.69h-0.1h-2.43c3.32,2.15,5.77,5.53,6.68,9.51v-4.16c-0.43-1.86-1.2-3.6-2.24-5.13
		C246.76,173.78,246.12,173.71,245.47,173.69"/>
	<polyline class="st76" points="170.37,173.69 166.02,173.69 166.02,176.53 170.37,176.53 170.37,173.69 	"/>
	<path class="st78" d="M242.94,173.69h-72.56v2.84h64.3c7.28,0.04,13.38,5.14,14.94,11.97v-5.3
		C248.71,179.22,246.26,175.83,242.94,173.69"/>
	<polyline class="st75" points="165.84,331.02 163.94,331.39 163.94,334.89 165.84,334.52 165.84,331.02 	"/>
	<polyline class="st87" points="166.02,330.99 165.84,331.02 165.84,334.52 166.02,334.48 166.02,330.99 	"/>
	<polyline class="st87" points="170.37,330.15 166.02,330.99 166.02,334.48 170.37,333.64 170.37,330.15 	"/>
	<path class="st87" d="M249.62,249.71v57.49c0,6.52-16.83,12.2-23.16,12.2l-56.08,10.75v3.49l56.08-10.83
		c6.33,0,23.16-5.68,23.16-12.2V249.71"/>
	<polyline class="st76" points="165.84,176.53 163.94,176.53 163.94,182.29 165.84,182.29 165.84,176.53 	"/>
	<polyline class="st75" points="165.84,249.71 163.94,249.71 163.94,331.39 165.84,331.02 165.84,249.71 	"/>
	<polyline class="st78" points="165.84,182.29 163.94,182.29 163.94,249.71 165.84,249.71 165.84,182.29 	"/>
	<polyline class="st78" points="166.02,176.53 165.84,176.53 165.84,182.29 166.02,182.29 166.02,176.53 	"/>
	<polyline class="st87" points="166.02,249.71 165.84,249.71 165.84,331.02 166.02,330.99 166.02,249.71 	"/>
	<polyline class="st136" points="166.02,182.29 165.84,182.29 165.84,249.71 166.02,249.71 166.02,182.29 	"/>
	<polyline class="st136" points="170.37,176.53 166.02,176.53 166.02,182.29 170.37,182.29 170.37,176.53 	"/>
	<path class="st137" d="M234.68,176.53h-64.3v5.77h64.3c7.29,0.04,13.38,5.14,14.94,11.97v-5.77
		C248.06,181.66,241.96,176.57,234.68,176.53"/>
	<polyline class="st87" points="170.37,249.71 166.02,249.71 166.02,330.99 170.37,330.15 170.37,249.71 	"/>
	<polyline class="st137" points="170.37,182.29 166.02,182.29 166.02,249.71 170.37,249.71 170.37,182.29 	"/>
	<polyline class="st138" points="249.62,249.71 246.43,249.71 249.62,249.71 249.62,249.71 	"/>
	<path class="st87" d="M246.43,249.71h-76.05v80.44l56.08-10.75c6.33,0,23.16-5.68,23.16-12.2v-57.49L246.43,249.71"/>
	<path class="st137" d="M234.68,182.29h-64.3v67.42h76.05h3.19v-55.44C248.06,187.44,241.97,182.34,234.68,182.29"/>
	<path class="st2" d="M82.73,154.3h152.05c8.6,0.25,15.39,7.38,15.22,15.98v158.77c0.32,8.6-6.34,15.86-14.94,16.27H82.73
		c-8.57-0.15-15.39-7.22-15.22-15.78v-0.1V170.29C67.34,161.69,74.13,154.56,82.73,154.3z"/>
	<path class="st139" d="M108.91,309.2l35.84-58.44l-32.91-57.69h26.48l17.87,36.88c1.27,2.65,2.41,5.37,3.41,8.13
		c1.13-2.74,2.46-5.58,3.78-8.13l18.92-36.6h24.31l-33.38,57.39l34.51,58.34h-25.9l-20.81-40.19c-0.95-1.75-1.8-3.55-2.55-5.39
		c-0.63,1.82-1.45,3.56-2.46,5.2l-21.27,40.56L108.91,309.2z"/>
</g>
</svg>
