<?xml version="1.0" standalone="no"?>
<!DOCTYPE svg PUBLIC "-//W3C//DTD SVG 20010904//EN"
 "http://www.w3.org/TR/2001/REC-SVG-20010904/DTD/svg10.dtd">
<svg version="1.0" xmlns="http://www.w3.org/2000/svg"
 width="756.000000pt" height="531.000000pt" viewBox="0 0 756.000000 531.000000"
 preserveAspectRatio="xMidYMid meet">

<g transform="translate(0.000000,531.000000) scale(0.100000,-0.100000)"
fill="#000000" stroke="none">
<path d="M3576 3724 c-55 -25 -109 -54 -120 -65 -12 -10 -219 -154 -460 -319
l-440 -300 -85 0 c-188 1 -331 26 -331 58 0 5 15 16 33 25 18 10 23 16 12 14
-11 -2 -315 -55 -676 -117 l-656 -114 -22 -39 c-12 -21 -21 -40 -19 -42 2 -2
120 1 263 7 l260 10 87 34 c147 57 269 77 438 71 165 -6 246 -23 408 -88 l103
-41 1941 111 1940 111 44 -49 c95 -106 221 -165 341 -159 39 2 74 6 77 9 3 3
-6 44 -21 91 l-26 87 -238 237 c-132 130 -239 239 -239 242 0 2 40 59 88 126
49 66 92 127 96 134 6 9 -266 12 -1346 11 l-1353 0 -99 -45z m2533 -274 c117
-138 211 -252 210 -254 -8 -5 -3672 -156 -3677 -151 -12 11 10 16 119 25 311
28 460 74 467 146 4 41 -32 72 -110 94 l-62 17 236 177 236 177 668 7 c368 4
901 8 1184 10 l515 3 214 -251z"/>
<path d="M5365 3504 c-247 -12 -469 -23 -492 -23 l-42 -1 -24 -77 c-13 -43
-23 -79 -23 -80 1 -1 262 45 581 102 401 71 560 103 515 103 -36 -1 -267 -11
-515 -24z"/>
<path d="M3977 3440 l-778 -38 -39 -27 c-40 -28 -51 -45 -28 -45 29 0 100 -44
113 -71 19 -36 11 -69 -24 -103 -27 -26 -127 -66 -164 -66 -11 0 -18 -3 -15
-6 4 -3 118 0 255 6 248 12 249 12 838 116 325 57 595 106 601 108 5 2 18 32
28 67 10 35 21 72 23 82 4 12 0 17 -13 16 -11 -1 -369 -18 -797 -39z"/>
<path d="M2743 3346 c-461 -202 -568 -253 -550 -259 12 -5 95 -13 185 -19
l162 -11 133 90 c473 324 659 453 651 452 -5 -1 -266 -114 -581 -253z"/>
<path d="M4238 2798 l-1897 -110 -98 42 c-170 73 -225 84 -418 85 -148 0 -180
-3 -249 -23 -111 -32 -204 -77 -329 -160 l-109 -72 -228 0 c-197 0 -229 2
-232 15 -4 19 -88 -130 -88 -156 0 -17 75 -383 86 -421 5 -16 23 -18 200 -18
l194 0 0 48 c0 68 35 183 83 277 61 118 201 256 317 314 114 56 206 74 340 68
276 -12 516 -173 636 -424 47 -99 64 -172 64 -270 l0 -83 1244 0 1244 0 22
123 c35 189 91 314 194 425 85 93 231 177 359 207 91 22 257 19 351 -5 283
-72 499 -319 536 -611 5 -46 10 -85 10 -86 0 -2 42 -3 94 -3 l94 0 30 83 c93
258 119 395 97 521 -8 45 -19 97 -25 117 l-10 37 -43 -10 c-61 -14 -183 -3
-252 22 -73 28 -178 95 -224 144 -26 27 -42 36 -65 35 -17 -1 -885 -51 -1928
-111z"/>
<path d="M1656 2504 c-202 -49 -363 -211 -411 -415 -96 -408 284 -777 690
-668 197 53 357 226 400 434 51 243 -75 497 -300 605 -128 61 -250 75 -379 44z
m216 -135 c122 -26 235 -114 291 -229 30 -61 32 -70 32 -180 0 -107 -2 -119
-29 -175 -37 -75 -124 -163 -196 -198 -201 -97 -457 -10 -554 189 -153 312
117 664 456 593z"/>
<path d="M5615 2506 c-92 -22 -183 -72 -251 -137 -123 -119 -176 -239 -177
-399 -2 -290 204 -526 489 -562 331 -41 623 219 624 557 0 254 -180 481 -431
540 -76 17 -184 18 -254 1z m230 -141 c310 -80 418 -471 194 -695 -124 -124
-323 -159 -479 -83 -72 35 -159 123 -196 198 -27 56 -29 68 -29 175 0 104 3
121 27 173 85 182 292 281 483 232z"/>
</g>
</svg>
